<svg xmlns="http://www.w3.org/2000/svg" viewBox="0 0 313.53 316.43"><g id="Layer_2" data-name="Layer 2"><g id="Layer_1-2" data-name="Layer 1"><path d="M232.32,162.57l76.87,46.73,1.85-1.75c.89,2.72,1.69,5.15,2.49,7.57-1.24.83-2.44,1.73-3.73,2.48Q232,262.54,154.2,307.51c-5.39,3.12-10.22,3.26-15.41-.1-5.35-3.45-10.84-6.68-16.29-10q-13.59-8.18-27.21-16.28l-7.38-15.72,5.93,5.16c2.55,1.32,5.08,2.67,7.65,3.94a9.53,9.53,0,0,0,3.27,1.2c.94.07,1.92-.55,2.89-.86a8.59,8.59,0,0,0-1-2.77c-1.77-2.14-3.75-4.13-5.64-6.17l-.06-1.86c3.43,2.16,6.88,4.28,10.27,6.48s6.67,1.64,10-.31c10.68-6.34,21.34-12.71,32.1-18.92,10.43-6,21-11.82,31.45-17.82,8.92-5.11,17.83-10.24,26.6-15.58,6.15-3.75,12.08-7.86,18.11-11.8l2.82-.77,1-.45,1.24-.57c3.94-2.25,8-4.35,11.78-6.8,2.06-1.32,1.67-3-.43-4.22-1.61-1-3.11-2.13-4.78-3-2.06-1.05-4.24-1.86-6.37-2.78a45.05,45.05,0,0,0-.57-6.06c-1-4.25-2.46-8.35-1.58-12.89.38-1.92-.19-4-.34-6Zm-18,62a33.39,33.39,0,0,0-4.62,1.76c-8,4.52-16,9.14-24,13.71-5.85,3.34-11.75,6.6-17.55,10a4.75,4.75,0,0,0-2.12,2.82c-.11.58,1.33,1.6,2.23,2.15,4.32,2.6,8.69,5.13,13.06,7.65,4.92,2.84,9.76,5.86,14.85,8.34,1.7.83,4.52,1,6.09.18,10.23-5.61,20.26-11.57,30.34-17.44,3.68-2.14,7.37-4.29,11-6.54a27.28,27.28,0,0,0,3.26-2.75c-.74-.83-1.43-1.72-2.24-2.48a9.8,9.8,0,0,0-1.85-1.24c-6.63-3.93-13.23-7.89-19.91-11.74C220,227.4,217.08,226,214.27,224.57Z" fill="#dbe7eb"/><path d="M199,17.61l.15,15.58-8.05,5.19V27.56l-7.32,4.77-4.48,3.45-6.52,2.46L170.19,40l-2.09,1.53-6.14,4a10.93,10.93,0,0,0-2.92.68c-3.82,2.13-7.56,4.39-11.33,6.61l-4,3-7,3.33-1.45,1.23-1.84,1.22-4.06,2.47-1.74.36-3.29,3.14-4.6,1.8-1.84,1.42a15.16,15.16,0,0,0-3.21,1c-2.25,1.25-4.38,2.7-6.56,4.07L97,82.44l-2.59,1.34-5.78,2.88-2.6,2.18-3.93,2.07L71.79,96.09l-3.48,2.55-7.55,5.22-4.12,1.26-5.63,4-1.26.62-4.55,1.9c-.6.92-1.69,1.82-1.71,2.75-.16,9-.14,18.1-.17,27.16l0,2.5q.06,3.26.11,6.51l-.17,27.22.08,4.53q0,7.84.07,15.68a14.06,14.06,0,0,0-4.53,9.56c-.43,4.38-1.16,8.74-2,13.05a10,10,0,0,0,2.7,9.46,28.62,28.62,0,0,1,3.19,3.61,13,13,0,0,1,1.12,3.16l-3.26,1.6-4.36,2.39a16.36,16.36,0,0,1-.76-3.28c-.25-13.17-.5-26.33-.62-39.49q-.41-42.12-.69-84.23a10.32,10.32,0,0,1,4.76-9c3.56-2.37,7.36-4.41,11.08-6.55,6.88-4,13.81-7.84,20.67-11.86,10.94-6.41,21.81-13,32.76-19.34,9.65-5.61,19.42-11,29-16.64,17.91-10.48,35.74-21.1,53.67-31.54,3.5-2,7.31-3.51,11-5.24L199,17Z" fill="#04373e"/><path d="M191.14,38.38l8.05-5.19c.67-.13,1.52-.06,2-.44s.49-1.69,1-1.87c3-1.09,6-2,9.05-2.93.09,1.13.18,2.27.26,3.4l-.3.91c-1.17.54-2.39,1-3.5,1.63-15.11,8.74-30.18,17.56-45.35,26.17-2.11,1.2-2.91,2.4-2.89,4.75.1,12.19.06,24.38.12,36.58a26.27,26.27,0,0,0,.48,3.5c-.16,2.5-.32,5-.51,8,1.48-.74,2.26-1.07,3-1.49C181.82,100.27,201,88.88,220.59,78.1c5-2.74,6.51-5.86,5.56-10.93L226,46.8l.39-1.18,4.44-2.07a13.28,13.28,0,0,1,.47,2.47q0,19.9,0,39.83l-4.77-1.62v-6c-3.75,2.2-6.79,4-9.79,5.78a1.84,1.84,0,0,0-.86,1.27c-.07,3.7,0,7.39,0,11.37l4-1.83v4.45l-15.72,8.46-5.87-2v-11c-3.47,2-6.45,3.65-9.37,5.42a2.22,2.22,0,0,0-1,1.51c-.08,3.49,0,7,0,11.1l9.28-5.08,1.21,3.74-7.31,4.6-5.75,3.29-30.49,17.27V118.82q0-16.87,0-33.76c0-1.71,0-3.43,0-5.15V68.82l-4.95,2.38V55.75l-2-3c3.77-2.22,7.51-4.48,11.33-6.61A10.93,10.93,0,0,1,162,45.5c.13,3.14.27,6.28.45,10.16l6.75-4.87c1.92-.9,3.79-1.93,5.77-2.67,4.58-1.71,6.82-4.76,5.93-9.75a34.18,34.18,0,0,0,3.34,1.47,21.43,21.43,0,0,0,3,.54Zm-11,66.8-.27-.15.27.15c-2.36,1.78-6.12,2.15-6.4,6.06a45.74,45.74,0,0,0,0,7.12c.05.55,1.59,1.58,1.94,1.41,2.66-1.38,5.22-3,7.76-4.55.5-.31,1.14-1,1.11-1.43-.2-3.25-.56-6.5-.89-10Zm-20.35,23.88c3.61-2.07,6.68-3.79,9.68-5.61a2.13,2.13,0,0,0,.86-1.55c.07-3.49,0-7,0-11-3.44,2-6.35,3.54-9.17,5.28a3,3,0,0,0-1.35,2C159.69,121.54,159.77,125,159.77,129.06Zm42.29-24.69c3.75-2.08,6.73-3.7,9.66-5.41a1.82,1.82,0,0,0,.74-1.32c.06-3.26,0-6.52,0-9.77l-.93-.62c-3.17,2-7.43,3.28-9.18,6.14C200.83,95.92,202.06,100.17,202.06,104.37Z" fill="#deebef"/><path d="M197.12,13.63c-3.66,1.73-7.47,3.21-11,5.24-17.93,10.44-35.76,21.06-53.67,31.54-9.63,5.63-19.4,11-29,16.64C92.48,73.44,81.61,80,70.67,86.39c-6.86,4-13.79,7.9-20.67,11.86-3.72,2.14-7.52,4.18-11.08,6.55a10.32,10.32,0,0,0-4.76,9q.33,42.12.69,84.23c.12,13.16.37,26.32.62,39.49a16.36,16.36,0,0,0,.76,3.28c-1.25,2.37-.45,4.06,1.73,5.37q19.78,11.91,39.55,23.85l4.54,2.62,4,5.06.34,1.47Q64.54,266.63,42.69,254c-2.5-1.45-4.81-3.21-7.21-4.83-.54-1.63-1.12-3.26-1.61-4.9s-1.36-3.47-1.36-5.2q0-63.37.15-126.73c0-4.56,2-7.73,5.89-10,14-8.1,28-16.3,42-24.46q55.19-32.2,110.37-64.38C192.88,12.35,195.12,10.12,197.12,13.63Z" fill="#396168"/><path d="M312.35,218.55c1,2,.35,3.44-1.53,4.54q-24.79,14.4-49.57,28.84-20.64,12-41.33,23.85c-11.25,6.44-22.59,12.74-33.84,19.18-1.34.77-2.36,2.1-4.15,3.72-3.69-.64-6.73,3-10.39,4.92-6.67,3.49-13.08,7.47-19.62,11.21-4.62,2.64-8.89,1.86-13.28-.92-7-4.43-14.19-8.52-21.28-12.77-4.06-2.44-8.07-5-12.17-7.31-.57-.33-1.55.05-2.35.1a21.56,21.56,0,0,0-1.15-3.31,14.83,14.83,0,0,0-2-2.46,20.41,20.41,0,0,1,3.89,1.29c11.9,6.81,23.79,13.64,35.61,20.59,5,2.92,9.66,2.93,14.65,0q32.47-18.9,65-37.63Q265.61,245.48,312.35,218.55Z" fill="#c8dade"/><path d="M238.53,81.42c0-6.73.26-13.48-.08-20.19-.26-5.12,1.2-8.46,6.1-10.79,6-2.84,11.52-6.58,17.33-9.79,3.19-1.76,5.75-.16,5.8,3.48.06,4.42-.1,8.85.06,13.27a5.18,5.18,0,0,1-3,5.18C259.2,65.69,253.82,69,248.26,72c-3.17,1.72-5.15,4.37-7,7.28a27.19,27.19,0,0,1-1.88,2.4Z" fill="#cbe1e6"/><path d="M212.63,26.1c2.62-1.68,2-4.36,1.81-6.71-.22-2.81.95-4.14,3.35-5.45,7.36-4,14.52-8.36,21.77-12.53A29.7,29.7,0,0,1,243,0V7.13c0,7.46-.15,14.92.09,22.38.08,2.48-.94,3.59-2.84,4.7-3.23,1.87-6.32,4-9.47,6l-4.67,2.16-11.65,6.28v-18C213.79,29.14,216.15,26.41,212.63,26.1Zm26.43-3.74c-5.67-2.28.08-4.67-.82-7.07l-3.54.52c.16-1.54.28-2.71.42-4.1-2.24-.12-3.29,6.25-6,0a20.77,20.77,0,0,1-1.7,3.63c-.68.87-1.72,2.1-2.57,2.08-2.25-.06-2.68,1-2.18,2.71.61,2.11-.21,3.19-2.08,4-1.6.71-2.45,1.69-.49,3.26.51.41.32,2,.1,2.91a20.9,20.9,0,0,1-1.65,3.56l4-1.37c-.13,1.78-.23,3-.39,5.21l3.88-3.69,2.29,2.56a21,21,0,0,0,1.16-2.4c.59-1.77.89-3.73,3.66-2.84.21.07,1.65-1.92,1.48-2.75a3.22,3.22,0,0,1,1.83-4A17.77,17.77,0,0,0,239.06,22.36Z" fill="#cbe1e6"/><path d="M312.35,218.55q-46.73,26.94-93.45,53.88-32.55,18.76-65,37.63c-5,2.89-9.69,2.88-14.65,0-11.82-6.95-23.71-13.78-35.61-20.59a20.41,20.41,0,0,0-3.89-1.29c-1.9-1-1-4.48-4-4.6l-.43-2.38q13.6,8.13,27.21,16.28c5.45,3.29,10.94,6.52,16.29,10,5.19,3.36,10,3.22,15.41.1q77.73-45.08,155.6-89.91c1.29-.75,2.49-1.65,3.73-2.48Z" fill="#44696f"/><path d="M234.66,118.15a59.66,59.66,0,0,1-.91,7,30.44,30.44,0,0,0,0,16.37c-3.26.65-6.5,1.71-9.77,1.81-2.53.07-5.67,1.65-7.69-1.49l2.12-4.37L214,135.56a21.82,21.82,0,0,0,1-3.29c.63-4.28,2.61-8.67-.75-12.72q.85-2.51,1.7-5a7.8,7.8,0,0,0,1.36-2.41c.49-3.59,2.75-5.36,6-6.3.51,1.52,1.1,3,1.51,4.56C226.81,118.16,226.79,118.16,234.66,118.15Z" fill="#045367"/><path d="M216.28,141.8c2,3.14,5.16,1.56,7.69,1.49,3.27-.1,6.51-1.16,9.77-1.81.47,5.63,1.14,11.25,1.27,16.89,0,1.38-1.75,2.8-2.69,4.2h-.12c-5.81,3-11.67,2.35-17.57.32-.49-1-1.32-2-1.4-3.07a34.69,34.69,0,0,1,.4-5.35l.08-.63.1-1.31,1.92-10.35Z" fill="#04373e"/><path d="M234.66,118.15c-7.87,0-7.85,0-9.89-7.76-.41-1.55-1-3-1.51-4.55l-1.08-4.08c-.41-2.66-.75-5.32-1.26-8-.15-.76-.83-1.41-1.17-2.16-.41-.92-1.16-2-1-2.81.8-4.39,4.39-4.39,7.77-4.6l4.78,1.62c3.5,9.19,5.74,18.63,5.28,28.52C236.52,115.66,235.33,116.89,234.66,118.15Z" fill="#04373e"/><path d="M95.29,281.16c.15.79.29,1.59.43,2.38a.28.28,0,0,0-.16.31l-.82.74-4.69-.36-.64-.72-3-4.3c-.11-.49-.23-1-.34-1.47-.08-1.51.34-3.31-.33-4.48-2.45-4.25-5.4-8.2-7.9-12.42-3-5.13-8.28-7.32-13.24-9.45-4.47-1.92-7.74-5.14-7.69-9.92h5.17l.81.56,1.14-.08c.4.3.81.59,1.22.88l7,2.53,9.07,8.43q2.63,4.86,5.24,9.71l1.41,2h-.06Z" fill="#fb8470"/><path d="M8.32,149.92c-1.11-4.44-1.89-8.14-3-11.76-1.46-4.93,1.42-11.86,6-14.06,3.64-1.74,6.4-.09,6.15,3.91-.14,2.34-1,4.62-1.39,6.94s-1.19,4.71-1,7c.3,3.08-1.13,5.22-3,7C11.2,149.81,9.3,149.69,8.32,149.92Z" fill="#4a9aa5"/><path d="M26.25,79.36l-1.88-.89c4.51-4.76,8.84-9.35,13.21-13.9a3.62,3.62,0,0,1,1.94-1.07c4.34-.49,8.69-.87,13.94-1.37l-5.89,6.5c-1.48,1.38-3.08,2.65-4.42,4.15-2.47,2.75-5,5.27-9,5.52l-6.58.88Z" fill="#fb8470"/><path d="M10,203.87c-1.8,4.54-5.5,8.22-5.08,13.49,0,.11,0,.25,0,.32a49.06,49.06,0,0,1-3.08,4.19c-.18.2-1.85-.52-1.83-.61.34-1.7.42-3.65,1.36-5A29,29,0,0,0,7.19,202c.16-1.57,2-3,3.23-4.37.17-.18,2.13.84,2.09,1-1.06,4,2.6,5.49,4.11,8.65a10.17,10.17,0,0,0,1.64-2.18c1.47-4.1,2.83-8.24,4.23-12.37.17-.51.17-1.17.51-1.51a14.18,14.18,0,0,1,2.83-2.3c.33-.19,1.59.4,1.58.59a10.05,10.05,0,0,1-.63,4c-1.61,3.11-3.72,6-5.24,9.12-.83,1.73-.68,3.9-1.31,5.76a11.67,11.67,0,0,1-2.42,4.38c-1.15,1.17-3.14,1-3-1C15.18,207.91,12,206.46,10,203.87Z" fill="#bbd8de"/><path d="M48.42,71.42c.76,5-1.4,8.59-5.55,11a104.41,104.41,0,0,1-10.5,5.45c-1.94.85-3.18,0-3.23-2.49-.12-5.15-.22-5.15,5-5.64l2-.18,1.38-.19.56-.14.12-.57-.1,0,.58.23c2.4-2.25,4.74-4.56,7.22-6.71A7.05,7.05,0,0,1,48.42,71.42Z" fill="#fb8470"/><path d="M86.39,279.21l3,4.3c-3.48-1.84-7-3.55-10.41-5.56-7.53-4.49-15-9.15-22.46-13.72-6.53-4-13.12-7.88-19.58-12-.82-.52-1-2-1.48-3.07,2.4,1.62,4.71,3.38,7.21,4.83Q64.5,266.67,86.39,279.21Z" fill="#c8dade"/><path d="M90.05,284.23l4.7.36.81-.74a.28.28,0,0,1,.16-.31c3,.12,2.09,3.56,4,4.6a14.83,14.83,0,0,1,2,2.46,21.56,21.56,0,0,1,1.15,3.31,8.82,8.82,0,0,1-2.55,1.13C96,295.44,89.54,288.58,90.05,284.23Z" fill="#186171"/><path d="M173.57,3.58c-2.27,2-3.89,3.45-5.63,4.76-.06.05-1.7-1.31-1.78-2.09C165.93,4,168.66.54,170.32.87,171.24,1.05,172,2.19,173.57,3.58Z" fill="#dbe7eb"/><path d="M161.54,7.43c1,2.58,0,4.34-1.83,5.73-.6.46-1.88,1-2.13.75a4.26,4.26,0,0,1-1.37-2.64C156.16,8.51,158.15,7.13,161.54,7.43Z" fill="#deebef"/><path d="M145.87,17.06c1-1.51,1.62-3.17,2.83-4.17s2.92-1,2.8,1.27a8.91,8.91,0,0,1-1.33,4.1c-.51.83-1.77,1.18-2.69,1.75Z" fill="#e4f0f3"/><path d="M48.42,71.42a7.05,7.05,0,0,0-2.53.83c-2.48,2.15-4.82,4.46-7.22,6.71-.06-.19-.11-.39-.17-.58l-.41.35.1,0-2.06.9-2,.18V78.3c4-.25,6.5-2.77,9-5.52,1.34-1.5,2.94-2.77,4.42-4.15C47.85,69.56,48.14,70.49,48.42,71.42Z" fill="#dbe7eb"/><path d="M26.25,79.36l1.35-.18c.22,3.62.52,7.24.59,10.87,0,.86-.74,1.74-1.14,2.61a11.16,11.16,0,0,1-.64-2.41C26.3,86.62,26.29,83,26.25,79.36Z" fill="#edb6ab"/><path d="M65.94,306.8c1.86-1.78,3.66-2.71,5.68-.87a2.39,2.39,0,0,1-.05,2.23C69.57,309.26,67.55,309.48,65.94,306.8Z" fill="#dbe7eb"/><path d="M226.13,42.35l4.67-2.17.06,3.37-4.44,2.07C226.32,44.53,226.23,43.44,226.13,42.35Z" fill="#a4c4c8"/><path d="M62,300.35l2.57,2.23c-.94.58-1.84,1.48-2.85,1.63-.64.1-1.45-.91-2.19-1.42Z" fill="#deebef"/><path d="M54.12,300.41l-2.37-2c.86-.62,1.73-1.74,2.59-1.73s1.63,1.21,2.44,1.88Z" fill="#e4f0f3"/><path d="M212.63,26.1c3.52.31,1.16,3,1.85,4.51l-3,.74-.27-3.4Z" fill="#a4c4c8"/><path d="M86,62.56c-.77,2.71-3,2.79-5.69,2.18l5-3.25Z" fill="#dbe7eb"/><path d="M199,17.61V17a3.82,3.82,0,0,1,.21.46S199.11,17.54,199,17.61Z" fill="#deebef"/><path d="M214.27,224.57c2.81,1.45,5.76,2.83,8.57,4.45,6.68,3.85,13.28,7.81,19.91,11.74A9.8,9.8,0,0,1,244.6,242c.81.76,1.5,1.65,2.24,2.48a27.28,27.28,0,0,1-3.26,2.75c-3.61,2.25-7.3,4.4-11,6.54-10.08,5.87-20.11,11.83-30.34,17.44-1.57.86-4.39.65-6.09-.18-5.09-2.48-9.93-5.5-14.85-8.34-4.37-2.52-8.74-5.05-13.06-7.65-.9-.55-2.34-1.57-2.23-2.15a4.75,4.75,0,0,1,2.12-2.82c5.8-3.43,11.7-6.69,17.55-10,8-4.57,15.94-9.19,24-13.71A33.39,33.39,0,0,1,214.27,224.57Z" fill="#b3d4d7"/><path d="M214.63,162.89c5.9,2,11.76,2.68,17.57-.32.14,2,.71,4.12.33,6-.88,4.54.6,8.64,1.58,12.89a45.05,45.05,0,0,1,.57,6.06l1.26,7.95,0,4.46c0,.4-.05.8-.08,1.2-3.09-.35-6.29-.49-7.92-3.86,3.23-.3,3.4-.69,1.86-4.3l-1.77-6.75-1.26-4.45q-1.44-7.68-2.86-15.35l-1.28,0-.89,13.84c0,.9,0,1.79,0,2.69,0,1.41-.09,2.82-.13,4.24l.09,1.86q-.22,5.09-.47,10.17c-.19.84-.38,1.67-.58,2.5-.08,1.09-.17,2.17-.26,3.25-3,.08-6,.44-8.09-2.47,3,.12,4-1.34,3.46-4.16-.3-1.67-.46-3.38-.68-5.07-.06-.55-.11-1.1-.17-1.65-.16-2-.31-3.95-.47-5.93l.08-1.29-.78-6.42c0-.93,0-1.86.05-2.79,0-1.41,0-2.81.08-4.21C214.1,168.33,214.38,165.62,214.63,162.89Z" fill="#edb6ab"/><path d="M229.46,206.13c-6,3.94-12,8.05-18.11,11.8-8.77,5.34-17.68,10.47-26.6,15.58-10.45,6-21,11.79-31.45,17.82-10.76,6.21-21.42,12.58-32.1,18.92-3.29,1.95-6.54,2.52-10,.31s-6.84-4.32-10.27-6.48c0-.72,0-1.43.07-2.15l5.12,2.34,2,1.76a36.56,36.56,0,0,1,4.47,2.49c1.93,1.43,3.54,1.26,5.5,0,3-2,6.23-3.59,9.26-5.52a40.16,40.16,0,0,0,4.1-3.42l1.39-.12a24.37,24.37,0,0,0,2.92-1.24c5.25-2.95,10.46-6,15.69-8.95l1.38-1.22a6.21,6.21,0,0,1,.62-.14l.66-.45c7.68-4.37,15.43-8.63,23-13.14,6.64-3.94,13.06-8.27,19.7-12.22,3.38-2,7-3.55,10.55-5.31l1.25-1.13c2.92-1.3,6.45-1.73,7.73-5.39l4-1.13,5.17-2.72Z" fill="#aecfd2"/><path d="M235.94,195.51l-1.26-7.95c2.13.92,4.31,1.73,6.37,2.78,1.67.85,3.17,2,4.78,3,2.1,1.25,2.49,2.9.43,4.22-3.82,2.45-7.84,4.55-11.78,6.8a.52.52,0,0,1,.09-.42l1.32-2.75c0-.4.05-.8.08-1.2l7.71-3.89C241.05,192.29,238.48,194.26,235.94,195.51Z" fill="#aecfd2"/><path d="M101,265.94c1.89,2,3.87,4,5.64,6.17a8.59,8.59,0,0,1,1,2.77c-1,.31-2,.93-2.89.86a9.53,9.53,0,0,1-3.27-1.2c-2.57-1.27-5.1-2.62-7.65-3.94.18-1.32.36-2.64.53-4l5.86-.82Z" fill="#186171"/><path d="M94.37,266.64c-.17,1.32-.35,2.64-.53,4l-5.93-5.16H88l-1.41-2q-2.61-4.86-5.24-9.71l2.79.61h0l1.31.71c.14,2.91,3.51,2,4.54,3.83l.27.14-.27-.14.59-1.26Q92.46,262.15,94.37,266.64Z" fill="#aecfd2"/><path d="M234.57,203.92a.52.52,0,0,0-.09.42l-1.24.57-1,.45-2.82.77-3.92.26c-1.36-1.17-2.64-2.65-4.68-1.2a.75.75,0,0,1-.45-.14c.09-1.08.18-2.16.26-3.25,2.4,1.47,4-.86,5.91-1.32,1.15.53,2.28,1.09,3.44,1.58C231.53,202.71,233.06,203.3,234.57,203.92Z" fill="#396168"/><path d="M101,265.94l-.8-.12c-.16-1.47-.33-2.94-.5-4.41l1.31.52c0,.72-.05,1.43-.07,2.15Z" fill="#a4c4c8"/><path d="M232.28,205.36l1-.45Z" fill="#aecfd2"/><path d="M43.85,236.85a13,13,0,0,0-1.12-3.16,28.62,28.62,0,0,0-3.19-3.61,10,10,0,0,1-2.7-9.46c.85-4.31,1.58-8.67,2-13.05A14.06,14.06,0,0,1,43.38,198l3.74-2.71,2.56-1.24c.85,3,2,5.74,5.38,7.12l1.35-2.2,2.35-2.11.9-.58.17,0-.06-.16L61.13,195c3,.47,4.29,2.49,4.77,5.22s.85,5.39,1.27,8.08l.87,6.52c-.54,2.46-.39,4.74,1.74,6.49.74,1,1.58,2,2.22,3.09.9,1.55,2,1.79,3.41.8l.3,2.53-7.48,1.8c.88-3.47-2.75-3.06-4.06-4.67l.74,4.76-.78,2.11c-1.34.62-2.72,1.16-4,1.9a11.81,11.81,0,0,0-1.94,1.75l-2.43.33c-6.85-3.74-10-9.74-10.26-17.57-2,3.16-2.22,5.93-.19,8.87s3.89,6.28,5.82,9.44l-2.61,2.06-.8-.24Z" fill="#deebef"/><path d="M43.31,182.33c0-1.51-.05-3-.08-4.53l3.27-.6,1.3-1.76c3.48-.36,6.7-1.19,8.36-4.76,4.54-.22,5.84-1.61,5.94-6,.11-4.81.54-9.62.52-14.42,0-2.07-.82-4.13-1.26-6.19l.06-1.31c2.39-1.15,5.35-1.52,6.38-4.58l1.33.77a4.7,4.7,0,0,0,0,.53c-.19.65-.76,1.61-.52,1.91a60.86,60.86,0,0,0,5.3,5.82c.42.41,1.56.06,2.37.07l.74,0,1.87,1.89-2,3c1.46.66,2.93,1.84,4.38,1.82s2.61-1.33,3.92-2.08l-2.31-2.89,1.78-1.78L92,142.68l6.35,3.12c2.47.54,2.85-1.17,3.1-2.94.35-2.61.65-5.24,1-7.86l1.9,1.85.54,6.55-5.13,7C89.51,156.21,79.27,162,69.1,167.88c-4.63,2.67-9.12,5.59-13.67,8.39L52,178.18Z" fill="#bbd8de"/><path d="M92,142.68l-7.27,4.66-7.68,0-.74,0-7.15-7.8a3.13,3.13,0,0,1,0-.53L68,137c-.68-.18-1.56-.72-2-.47-2.68,1.53-5.25,3.25-7.86,4.91l-3.63,1.72,1.8,2.27L56,148.05c-1.11-2.58-3.65-2.26-5.75-2.82-.1,0-.28.23-.61.51l1.83,1.67-.24.64-4.94-.56,1.42,3.1-1.26.65-.15.27.15-.27,1.25.64v11l-1,.8,1,.52-.42,7.21-.45.22.4.32c.18,1.16.37,2.32.56,3.47l-1.3,1.76c-.44-1.24-1.22-2.46-1.25-3.7-.13-6.31,0-12.62-.14-18.92,0-1.34-1.11-2.66-1.71-4q0-3.26-.11-6.51c4.73-2.65,9.48-5.26,14.17-8a47.2,47.2,0,0,0,4-2.89l0,0,14.84-8.44.52-.17L81,122.62l4.52,2.55c-1.32,1.36-4,1.73-3.3,4.57-1.56,1.45-.27,2.64.35,3.9l-.06,1.42-.09,1.18c.41.47.92,1.42,1.2,1.35,2.73-.66,3.85,1.28,5.51,3.17A12.47,12.47,0,0,0,90,136.1c0-2.39-.78-5,2.24-6.29a51.86,51.86,0,0,1,1,7.38C93.27,139,92.45,140.85,92,142.68Zm-19.56-2.37c1.64-3.09,3.93-4.89,2.72-8.43-1.89,1-4.42,1.51-4.88,2.78S71.43,137.94,72.43,140.31Zm7.62,5.17c2.29-4.4,2-5.37-2-5.69-.72-.06-1.48.49-2.22.76a6.11,6.11,0,0,0,.82,1.93C77.66,143.53,78.83,144.42,80.05,145.48Z" fill="#63a7b1"/><path d="M97,82.44l11.06-6.6,0,2.74v25.15l1.06.44,3.5-2.86c2.62-.7,5.82-.67,5.88-4.63a3.16,3.16,0,0,0,.52.17l1.31.44,4.8-3c.82-.71,1.63-1.43,2.44-2.15l3.92-1.9h.54c2.07.3,3.1-.72,3.37-2.69l1.19,0,3.2-1.92,5-1.61.57.72-3.69,3.4a5.51,5.51,0,0,0-1.55.39Q116.82,102,93.51,115.44a9.7,9.7,0,0,0-1.89,2l-.41,0-.11-3.1c3.34-.3,2.53-2.93,2.78-5l2.53,1.08c2.84.86,3.54-.81,3.83-3.14.64-5.07,1.36-10.13,2-15.19a20.54,20.54,0,0,1,.62,3.35c.08,3.74,0,7.48,0,11.3,2.66-.13,3.3-1.38,3.29-3.43,0-5.94-.1-11.89.17-17.82.15-3.19-.1-3.6-3.16-2.68l-.4,3.47-1.81.07Zm7.78-.52.7-1-1.9-1.05-.47.71Z" fill="#bbd8de"/><path d="M141.74,88.15l3.69-3.4-.57-.72-5,1.61q0-8.1,0-16.19c0-1.92,0-3.84,0-5.76.72-2.75-1.29-3.6-3.17-4.54l7-3.33h4V72.33l-.06.88c-.82.66-2.31,1.3-2.34,2a70.82,70.82,0,0,0,.36,8l.21,2L145.25,91Z" fill="#5ea5b0"/><path d="M77.51,270.06Q57.74,258.14,38,246.21c-2.18-1.31-3-3-1.73-5.37l4.36-2.39c1.57,2,3.1,4,4.71,6,1.09,1.33,2.06,2.9,3.46,3.78,4.34,2.74,8.81,5.3,13.33,7.76,5.87,3.21,11.66,6.5,15.17,12.54A4.33,4.33,0,0,1,77.51,270.06Z" fill="#dbe7eb"/><path d="M76.91,124.56l-.52.17-3.9.41v-3.75c.08-.06.23-.14.22-.18a2.67,2.67,0,0,0-.2-.46q-.27-7.48-.53-15l0-1.23-.09-3.27L68.56,100l-.25-1.34,3.48-2.55c1.87.39,3.72.83,5.59,1.15,1.13.19,2.37,0,3.4.34a37.66,37.66,0,0,1,4.51,2.32l4.63,2.84c0,.29.11.59.16.89l-3.37,1.47-9.12-5-.26.58q0,6.2,0,12.41l.23,7.08,0,.1Zm-2.68-24.37v.25h1v-.25Z" fill="#e4f0f3"/><path d="M118.55,96.68c-.06,4-3.26,3.93-5.88,4.63,0-6.82,0-13.64,0-20.45,0-1.12-.13-2.24-.22-3.83l-4.32,1.55,0-2.74c2.18-1.37,4.31-2.82,6.56-4.07a15.16,15.16,0,0,1,3.21-1c.29,1.32.59,2.65.89,4q0,7.71,0,15.42l0,5.32Z" fill="#deebef"/><path d="M125.19,94.33l-4.81,3a4,4,0,0,1-.47-1.19c0-7.75-.09-15.49,0-23.24,0-.58.63-1.16,1-1.79l-1.17-1.7,4.6-1.8,1.3.77a4.47,4.47,0,0,0-.57,1.47Q125.07,82.08,125.19,94.33Z" fill="#2f7383"/><path d="M51,109.14l5.63-4a23.57,23.57,0,0,1,.85,4.32c.09,7.44,0,14.88,0,22.33-.13,3-2.08,3.51-4.57,3.21,0-7.34.05-14.67,0-22,0-.67-.75-1.33-1.16-2l-.78-.62Z" fill="#2f7383"/><path d="M57.54,131.77c0-7.45,0-14.89,0-22.33a23.57,23.57,0,0,0-.85-4.32l4.12-1.26,5,4,.33,1.35-2.13.12-2.48-1.38v22.5a1,1,0,0,0,0,.54l0,2.19,0,0C59.91,133.47,58.18,134.12,57.54,131.77Z" fill="#dbe7eb"/><path d="M180.86,38.37c.89,5-1.35,8-5.93,9.75-2,.74-3.85,1.77-5.77,2.67,0-2.62.06-5.25,0-7.86,0-.48-.66-.93-1-1.4L170.19,40l3.33.36-.7-2.12,6.52-2.46,1.47.63Z" fill="#4a9aa5"/><path d="M45.2,111.66l4.55-1.9c.19.24.37.49.56.74,0,.45-.07.91-.1,1.36a8.24,8.24,0,0,0-.58,2.1c0,7.71,0,15.42,0,23.13l-4.09,3.13c0-5.25.16-10.51.1-15.76C45.62,120.19,45.36,115.93,45.2,111.66Z" fill="#deebef"/><path d="M77.51,270.06a4.33,4.33,0,0,0-.25-1.52c-3.51-6-9.3-9.33-15.17-12.54-4.52-2.46-9-5-13.33-7.76-1.4-.88-2.37-2.45-3.46-3.78-1.61-2-3.14-4-4.71-6l3.26-1.6,3.87,1.44H44.56c1.09,4.51,3.35,7.81,7.24,9.93C56,250.53,60.21,253,64.58,255c8.06,3.73,13.53,9.89,17.47,17.64Z" fill="#a4c4c8"/><path d="M96.41,110.54l-2.53-1.08c0-4.85-.2-9.7,0-14.54.13-3.9.44-7.65-5-8-.08,0-.15-.15-.22-.23l5.78-2.88L99.68,87a10.21,10.21,0,0,0-1.23,2.79C97.7,96.69,97.08,103.62,96.41,110.54Z" fill="#2f585f"/><path d="M88.65,86.66c.07.08.14.23.22.23,5.4.38,5.09,4.13,5,8-.15,4.84,0,9.69,0,14.54-.25,2,.56,4.66-2.78,5-.15-1.26-.34-2.53-.45-3.79-.21-2.33-.38-4.66-.57-7,0-.3-.11-.6-.16-.89,0-3.39.12-6.79,0-10.17,0-.78-.89-1.53-1.37-2.3l-2.49-1.43Z" fill="#5ea5b0"/><path d="M43.31,182.33,52,178.18c-.38,3.57-.77,7.14-1.15,10.72-2.75,1.25-4.25,3.23-3.72,6.4L43.38,198Q43.35,190.18,43.31,182.33Z" fill="#5ea5b0"/><path d="M65.79,107.85l-5-4,7.55-5.22c.08.45.17.89.25,1.34,0,8-.07,15.94,0,23.91,0,1.15.82,2.28,1.26,3.42l-3.88-.9a4.54,4.54,0,0,1-.43-1.52c.46-4.3,1-8.58,1.43-12.89C67.12,110.55,68.38,108.59,65.79,107.85Z" fill="#2f585f"/><path d="M168.1,41.53c.35.47,1,.92,1,1.4.11,2.61,0,5.24,0,7.86l-6.75,4.87c-.18-3.88-.32-7-.45-10.16Z" fill="#2f7383"/><path d="M45.2,111.66c.16,4.27.42,8.53.47,12.8.06,5.25-.06,10.51-.1,15.76l-2.25,1.35c0-9.06,0-18.11.17-27.16C43.51,113.48,44.6,112.58,45.2,111.66Z" fill="#427e8c"/><path d="M85.29,99.9a37.66,37.66,0,0,0-4.51-2.32c-1-.38-2.27-.15-3.4-.34-1.87-.32-3.72-.76-5.59-1.15l10.33-5.18,3.27,1.9C85.36,95.17,85.33,97.54,85.29,99.9Z" fill="#2f585f"/><path d="M43.4,150.58c.6,1.34,1.67,2.66,1.71,4,.19,6.3,0,12.61.14,18.92,0,1.24.81,2.46,1.25,3.7l-3.27.6Q43.32,164.2,43.4,150.58Z" fill="#56a0ac"/><path d="M191.14,38.38l-3.92,2c-.54-1.72,1.34-4-1.29-5.25l-2.11-2.8,7.32-4.77Z" fill="#a4c4c8"/><path d="M139.84,63.69c0,1.92,0,3.84,0,5.76-2.63.3-4,1.56-3.81,4.41.31,4.56.44,9.13.65,13.7l-1.19,0v0l-.26-1.23.06-22.07c.32-1.56.31-2.88-1.87-2.71l1.85-1.22,2.2,3.77Z" fill="#2f585f"/><path d="M43.32,141.57l2.25-1.35,4.09-3.13L53,135c2.49.3,4.44-.16,4.57-3.21.64,2.35,2.37,1.7,4,1.44a47.2,47.2,0,0,1-4,2.89c-4.69,2.71-9.44,5.32-14.17,8Z" fill="#aecfd2"/><path d="M147.7,72.33V55.82h-4l4-3,2,3V71.19c-.12.23-.24.47-.35.7Z" fill="#bbd8de"/><path d="M133.38,61.6c2.18-.17,2.19,1.15,1.87,2.71-2.51-1.42-3.18-.38-3.17,2.14.06,7.94,0,15.88,0,23.82h-.54c0-7.7,0-15.39-.09-23.09,0-1.26.55-3-1.85-2.8l-.28-.32Z" fill="#c8dade"/><path d="M119.69,69.37l1.17,1.7c-.37.63-1,1.21-1,1.79,0,7.75,0,15.49,0,23.24a4,4,0,0,0,.47,1.19l-1.31-.44c-.12-.45-.24-.9-.37-1.35l0-5.32q0-7.71,0-15.42c-.3-1.32-.6-2.65-.89-4Z" fill="#2f585f"/><path d="M183.82,32.33c.7.93,1.41,1.86,2.11,2.8l-5.12,1.28-1.47-.63Z" fill="#e4f0f3"/><path d="M99.68,87l-5.25-3.21L97,82.44l4,4Z" fill="#dbe7eb"/><path d="M85.39,92.81l-3.27-1.9,3.93-2.07,2.49,1.43C88.92,92.9,86.55,92.1,85.39,92.81Z" fill="#deebef"/><path d="M139.84,63.69l-2.41.46-2.2-3.77,1.44-1.23C138.55,60.09,140.56,60.94,139.84,63.69Z" fill="#2f7383"/><path d="M125.59,68.34l-1.3-.77,3.29-3.14.65,1.18-.78,2Z" fill="#bbd8de"/><path d="M172.82,38.24l.7,2.12L170.19,40Z" fill="#2f7383"/><path d="M128.23,65.61l-.65-1.18,1.74-.36.28.32Z" fill="#c8dade"/><path d="M50.31,110.5c-.19-.25-.37-.5-.56-.74l1.26-.62c0,.4,0,.81,0,1.21Z" fill="#5ea5b0"/><path d="M226,46.8l.12,20.37-31.1,17.72-35.05,20a26.27,26.27,0,0,1-.48-3.5c-.06-12.2,0-24.39-.12-36.58,0-2.35.78-3.55,2.89-4.75,15.17-8.61,30.24-17.43,45.35-26.17,1.11-.64,2.33-1.09,3.5-1.63V55.05ZM198.91,72.09h0l3.86-7.15a.41.41,0,0,0,.09-.37c1.91-3.33,1.65-6.85.68-10.33-.76-2.74-3-3.9-5.66-4-4.13-.18-9.94,4.14-11.33,8.25l0,0-1.25,1.5,0,.19-.69,1.59,0,0c-3.54,3.35-3.95,12.33-1.94,15,1.69,2.23,4,3.64,6.69,2.74,2.25-.75,4.2-2.36,6.28-3.6Z" fill="#fb8470"/><path d="M154.77,129.18v7.43l30.49-17.27A48.28,48.28,0,0,0,187,124c.3.63,1.14,1,1.74,1.46-.72.6-1.43,1.21-2.14,1.82l-11.73,7L161.79,142l-3.67,2-12.58,6.55v-15.5l.21-.7Z" fill="#256270"/><path d="M160,104.89l35.05-20,31.1-17.72c.95,5.07-.6,8.19-5.56,10.93-19.56,10.78-38.77,22.17-58.12,33.33-.72.42-1.5.75-3,1.49C159.68,109.89,159.84,107.39,160,104.89Zm63.33-31.63L222.52,72l-60,34.74.72,1.22Z" fill="#186171"/><path d="M154.74,85.06q0,16.88,0,33.76l-5.13,2.56c-2-1.08,0-2.15,0-3.23l1.22-1.08-.59-.49-.63,1.57-1.29-.64c.15-8.68.32-17.37.42-26.06,0-.49-.6-1-.91-1.46Z" fill="#427e8c"/><path d="M226,46.8l-14.89,8.25V32.26l.3-.91,3-.74v18l11.65-6.28c.1,1.1.19,2.19.29,3.28Z" fill="#bf7563"/><path d="M159.77,129.06c0-4.1-.08-7.52.06-10.93a3,3,0,0,1,1.35-2c2.82-1.74,5.73-3.32,9.17-5.28,0,4,0,7.52,0,11a2.13,2.13,0,0,1-.86,1.55C166.45,125.27,163.38,127,159.77,129.06Z" fill="#045367"/><path d="M197.11,107.71l-9.28,5.08c0-4.11,0-7.61,0-11.1a2.22,2.22,0,0,1,1-1.51c2.92-1.77,5.9-3.43,9.37-5.42v11Z" fill="#4a9aa5"/><path d="M154.74,85.06,147.85,90c.31.48.91,1,.91,1.46-.1,8.69-.27,17.38-.42,26.06l-2.62.69a19.15,19.15,0,0,0,.62-3.37q.1-9.08,0-18.16a43.85,43.85,0,0,0-.49-4.4,2.87,2.87,0,0,0-.5-.07L145.25,91c.21-2,.41-3.91.62-5.86l8.3-5.19.53,0C154.71,81.63,154.73,83.35,154.74,85.06Z" fill="#186171"/><path d="M202.06,104.37c0-4.2-1.23-8.45.32-11,1.75-2.86,6-4.16,9.18-6.14l.93.62c0,3.25,0,6.51,0,9.77a1.82,1.82,0,0,1-.74,1.32C208.79,100.67,205.81,102.29,202.06,104.37Z" fill="#b3d4d7"/><path d="M197.11,107.71l1.11-2,5.87,2c1.75,1.06,3.48,2.16,5.26,3.17,2.18,1.24,4.4,2.4,6.59,3.6q-.84,2.5-1.7,5c-2.71-1.85-5.32-3.87-8.15-5.51a39.73,39.73,0,0,0-6-2.34l-1.75-.25Z" fill="#edb6ab"/><path d="M149.63,121.38l5.13-2.56c0,3.45,0,6.91,0,10.36l-9,5.19c.06-3.68.11-7.35.17-11Z" fill="#186171"/><path d="M222.18,101.76l-2.37-2.45V94.86l-4,1.83c0-4,0-7.67,0-11.37a1.84,1.84,0,0,1,.86-1.27c3-1.83,6-3.58,9.79-5.78v6c-3.39.21-7,.21-7.78,4.6-.16.85.59,1.89,1,2.81.34.75,1,1.4,1.17,2.16C221.43,96.44,221.77,99.1,222.18,101.76Z" fill="#fb8470"/><path d="M198.32,111.45l1.75.25-.21,9a28.69,28.69,0,0,0-3.94,1c-1.62.63-3.14,1.5-4.7,2.27l-.06-2.59.57-.77-.72-4.57Z" fill="#05313a"/><path d="M154.7,79.91l-.53,0c-.17-.61-.35-1.21-.48-1.67l-3.24,1.47a34.6,34.6,0,0,1-.79-3.46c-.18-1.45-.18-2.92-.26-4.38.11-.23.23-.47.35-.7l4.95-2.37Z" fill="#427e8c"/><path d="M191,116.05l.72,4.57-.57.77.06,2.59c0,.22-.05.43-.07.65l-2.4.79c-.6-.48-1.44-.83-1.74-1.46a48.28,48.28,0,0,1-1.75-4.62Z" fill="#186171"/><path d="M180.81,36.41l5.12-1.28c2.63,1.21.75,3.53,1.29,5.25a21.43,21.43,0,0,1-3-.54,34.18,34.18,0,0,1-3.34-1.47C180.84,37.71,180.82,37.06,180.81,36.41Z" fill="#dbe7eb"/><path d="M82.05,272.68c-3.94-7.75-9.41-13.91-17.47-17.64-4.37-2-8.54-4.51-12.78-6.82-3.89-2.12-6.15-5.42-7.24-9.93h3.16l.8.24c2.1,2.92,5.21,3,8.37,2.94,0,4.78,3.22,8,7.69,9.92,5,2.13,10.19,4.32,13.24,9.45,2.5,4.22,5.45,8.17,7.9,12.42.67,1.17.25,3,.33,4.48Z" fill="#ed806f"/><path d="M239.06,22.36a17.77,17.77,0,0,1-2.54,2.32,3.22,3.22,0,0,0-1.83,4c.17.83-1.27,2.82-1.48,2.75-2.77-.89-3.07,1.07-3.66,2.84a21,21,0,0,1-1.16,2.4l-2.29-2.56-3.88,3.69c.16-2.16.26-3.43.39-5.21l-4,1.37a20.9,20.9,0,0,0,1.65-3.56c.22-.95.41-2.5-.1-2.91-2-1.57-1.11-2.55.49-3.26,1.87-.84,2.69-1.92,2.08-4-.5-1.74-.07-2.77,2.18-2.71.85,0,1.89-1.21,2.57-2.08a20.77,20.77,0,0,0,1.7-3.63c2.66,6.21,3.71-.16,6,0-.14,1.39-.26,2.56-.42,4.1l3.54-.52C239.14,17.69,233.39,20.08,239.06,22.36Zm-15,5c.3.57.6,2.14,1.48,2.58a4.29,4.29,0,0,0,3.47-.48,8.68,8.68,0,0,0,4.27-7.78c.07-2.94-2-4.16-4.45-2.67C226,20.68,224.53,23.37,224,27.34Z" fill="#4a9aa5"/><path d="M208,147.38l6-11.82,4.41,1.87-2.12,4.37-.55.38c-2.14,3.12-5.33,5.91-3.16,10.35l.14,1.33a1.31,1.31,0,0,0,0,.59c-1.31.31-3,1.25-3.84.75-1-.63-1.61-2.43-1.73-3.78S207.69,148.73,208,147.38Z" fill="#edb6ab"/><path d="M208,147.38c-.35,1.35-1.06,2.73-.94,4s.73,3.15,1.73,3.78c.81.5,2.53-.44,3.84-.74h1a34.69,34.69,0,0,0-.4,5.35c.08,1.05.91,2.05,1.4,3.07-.25,2.73-.53,5.44-.74,8.17-.1,1.4-.06,2.8-.08,4.21a4,4,0,0,0-.6,0L211.87,174l-2.56-.72c-.38-.6-.61-1.44-1.15-1.75-3-1.74-6.1-3.39-9.21-4.94-.5-.25-1.3.14-2,.23h-1.29a16.83,16.83,0,0,0-3.89,1,70.06,70.06,0,0,0-9.86,5.77c-2,1.48-5.47,1.31-5.74,4.81l-1.32.73c-1.69.43-3.57.54-5,1.37-4.46,2.51-8.69,5.41-13.12,8q-15,8.66-30.14,17.1a34.55,34.55,0,0,1-4.73,1.83l1.2-10.06a14.39,14.39,0,0,0,1.75-.75q26-15,52-30c4.15-2.39,8.28-4.81,13-7.54l-5.07-2.61c0-.21-.05-.56.05-.61q7.68-4.26,15.39-8.48Z" fill="#dbe7eb"/><path d="M212.57,152.53c-2.17-4.44,1-7.23,3.16-10.35l-1.92,10.35Z" fill="#e4f0f3"/><path d="M212.57,152.53h1.24l-.1,1.31-1,0Z" fill="#dbe7eb"/><path d="M212.71,153.86l1,0-.08.63h-1A1.34,1.34,0,0,1,212.71,153.86Z" fill="#e4f0f3"/><path d="M58.19,235.4l3.92.62,0,.56-4,1,4.47,3.86a1.37,1.37,0,0,0-.57,0H56.89c-3.16.07-6.27,0-8.37-2.94l2.61-2.06,4.63-.74Z" fill="#bf7563"/><path d="M84.11,254.39l-2.79-.61-9.07-8.43,2.22-1.87c-1.93,3.05,1.53,3,2.51,4.37l.7.68v-.1a11.18,11.18,0,0,0,1.54,2C80.8,251.83,82.48,253.09,84.11,254.39Z" fill="#79b5be"/><path d="M74.48,243.49l-2.23,1.86-7-2.53,1.43-.24.68-.24L71,242l3.39,1.37Z" fill="#bf7563"/><path d="M66.66,242.58l-1.43.24c-.41-.29-.82-.58-1.22-.88Z" fill="#e4f0f3"/><path d="M86.56,263.49l1.41,2Z" fill="#dbe7eb"/><path d="M62.06,241.46a1.37,1.37,0,0,1,.57,0,.84.84,0,0,1,.24.56Z" fill="#ed806f"/><path d="M95.56,283.85l-.81.74Z" fill="#44696f"/><path d="M37.51,79.39a1,1,0,0,1,.56-.14Z" fill="#dbe7eb"/><path d="M214.46,185.77c.16,2,.31,3.95.47,5.93-5.31,3-10.65,5.89-15.93,8.92-6.74,3.86-13.4,7.88-20.17,11.7-4.45,2.51-9.1,4.66-13.52,7.21s-8.6,5.89-13.25,8.06c-3.6,1.68-6.54,4.28-10.05,5.93-1.16.55-2.63.44-3.95.62l-1.7-.54-.13.46,1.49.49c.06.4.29,1.09.16,1.16-2.89,1.67-5.33,4.5-8.93,3.82-.16.61-.13,1.5-.5,1.75a37.74,37.74,0,0,1-5.59,3.18c-.61.27-1.64-.42-2.47-.68,0-2.13.09-4.26.14-6.4,2.34.28,3.78-1.16,5.46-2.51,2.93-2.34,6.68-3.32,9.74-5.6,2.65-2,5.74-3.36,8.6-5.07,6.26-3.73,12.79-7,18.95-10.9,4.49-2.87,9.4-5.09,14-7.77,7.22-4.19,14.34-8.53,21.53-12.78,3.8-2.25,7.58-4.55,11.5-6.57C211.47,185.59,213.07,185.88,214.46,185.77Z" fill="#2e4d52"/><path d="M120.39,243.78c.83.26,1.86.95,2.47.68a37.74,37.74,0,0,0,5.59-3.18c.37-.25.34-1.14.5-1.75,3.6.68,6-2.15,8.93-3.82.13-.07-.1-.76-.16-1.16l.34-.41c1.32-.18,2.79-.07,3.95-.62,3.51-1.65,6.45-4.25,10.05-5.93,4.65-2.17,8.77-5.48,13.25-8.06s9.07-4.7,13.52-7.21c6.77-3.82,13.43-7.84,20.17-11.7,5.28-3,10.62-6,15.93-8.92.06.55.11,1.1.17,1.65l-5.81,3.23c.56,1.11,1,1.9,1.35,2.69l-1.87-.1c-.74-.32-1.69-1.11-2.18-.88a50.89,50.89,0,0,0-5.85,3.37c-.23.15-.07.89-.09,1.35l-1.14.19-8.86,3.69,3.13,2.75c-3.36-1.63-6.28-.83-9.29,1.19s-6.61,3.63-9.84,5.57c-.56.33-.64,1.46-.94,2.21l-.5.53c-4.14-1.17-6.23,2.29-9.07,4l-.85.61c-3.31,1.07-6.63,2.12-8.29,5.7-2.71-.64-8,2.36-8.83,4.77a13.92,13.92,0,0,0-8.85,4.56l-.66.68a27,27,0,0,0-4.08,1.42c-3.87,2.07-7.66,4.28-11.48,6.44l-4.51.6,2.56-3.27Z" fill="#a4c4c8"/><path d="M214.46,185.77c-1.39.11-3-.18-4.13.41-3.92,2-7.7,4.32-11.5,6.57-7.19,4.25-14.31,8.59-21.53,12.78-4.62,2.68-9.53,4.9-14,7.77-6.16,3.93-12.69,7.17-18.95,10.9-2.86,1.71-6,3.09-8.6,5.07-3.06,2.28-6.81,3.26-9.74,5.6-1.68,1.35-3.12,2.79-5.46,2.51.36-.76.73-1.51,1.1-2.27L136.41,227l-.77-.94a41.7,41.7,0,0,0,6.55-2.56c4.2-2.46,8.11-5.41,12.31-7.85,3.77-2.18,7.84-3.82,11.63-6,2.28-1.28,4.15-3.29,6.43-4.55,5-2.77,10.17-5.22,15.23-7.9,3.11-1.65,6.17-3.4,9.15-5.27a9.91,9.91,0,0,0,2-2.46c2.6-1.07,5.63-1.62,7.67-3.34,2.59-2.18,5-2.73,8-1.67Z" fill="#a4c4c8"/><path d="M214.54,184.48c-3-1.06-5.37-.51-8,1.67-2,1.72-5.07,2.27-7.67,3.34l0,0-1.35-.68.05,0-1.33-1.35.05,0c-.75-.51-1.49-1-2.42-1.68l14.87-9.26a.64.64,0,0,0,.52-.24l4.42,1.67Z" fill="#2e4d52"/><path d="M221.25,199.3q.24-5.09.47-10.17l6.34-2.87,1.77,6.75L226,195.34l-.63.39L222.83,197l.78,1.1Z" fill="#2e4d52"/><path d="M221.77,180.34l.89-13.84,1.28,0q1.42,7.66,2.86,15.35c-1.21-.57-2.39-1.2-3.63-1.67C222.78,180,222.24,180.26,221.77,180.34Z" fill="#dbe7eb"/><path d="M210.64,199.27c-.39-.79-.79-1.58-1.35-2.69l5.81-3.23c.22,1.69.38,3.4.68,5.07.52,2.82-.5,4.28-3.46,4.16l-1.81-.66,1.94-.27Z" fill="#2f585f"/><path d="M210.51,201.92l1.81.66c2.06,2.91,5.12,2.55,8.09,2.47a.75.75,0,0,0,.45.14c-.17.61-.35,1.22-.52,1.83l-5.07.24L209,205.07C207.24,202.94,207.91,202,210.51,201.92Z" fill="#e4f0f3"/><path d="M225.39,195.72l.63-.38,1.95,2c1.63,3.37,4.83,3.51,7.92,3.86l-1.32,2.75c-1.51-.62-3-1.21-4.55-1.86-1.16-.49-2.29-1.05-3.44-1.58L224.81,198C225,197.26,225.2,196.49,225.39,195.72Z" fill="#e4f0f3"/><path d="M221.77,180.34c.47-.08,1-.35,1.4-.2,1.24.47,2.42,1.1,3.63,1.67l1.26,4.45-6.34,2.87-.09-1.86,4.35-2L221.76,183C221.76,182.13,221.76,181.24,221.77,180.34Z" fill="#aecfd2"/><path d="M235.94,195.51c2.54-1.25,5.11-3.22,7.74.57L236,200Z" fill="#2e4d52"/><path d="M224.81,198l1.77,2.45c-2,.46-3.51,2.79-5.91,1.32.2-.83.39-1.66.58-2.5l2.36-1.21Z" fill="#05313a"/><path d="M228,197.31l-1.95-2,3.81-2.33C231.37,196.62,231.2,197,228,197.31Z" fill="#aecfd2"/><path d="M221.76,183l4.22,2.25-4.35,2C221.67,185.85,221.72,184.44,221.76,183Z" fill="#396168"/><path d="M213.76,178.06l-4.42-1.67,3.87-1.16a4,4,0,0,1,.6,0C213.79,176.2,213.78,177.13,213.76,178.06Z" fill="#a4c4c8"/><path d="M207.45,216.76c-3.53,1.76-7.18,3.31-10.56,5.31-6.64,4-13.06,8.28-19.7,12.22-7.6,4.51-15.35,8.77-23,13.14l-.66.45a6.21,6.21,0,0,0-.62.14l-2-.8.05,0-3.29-2,.05,0-1.36-.68,0,0c-1.28-2.08.76-2.27,1.75-2.85Q170,229.08,192,216.44c2.84-1.63,5.93-2.82,8.9-4.22Z" fill="#2e4d52"/><path d="M121.1,247.36c3.82-2.16,7.61-4.37,11.48-6.44a27,27,0,0,1,4.08-1.42l5.3,3.16a12.87,12.87,0,0,1-9.63,4.75l.65.75-26.82,16.11L101,261.93l-1.31-.52v.1c.53-.87.86-2,1.61-2.55a59.17,59.17,0,0,1,5.24-3.21l-.63-1.16-7,3.35c-.45-1.68-.9-3.37-1.34-5.05l5.1,1,6-.24c.45.09,1,.42,1.32.24,2.22-1.3,4.38-2.7,6.56-4.06C118.4,249.56,121,250.76,121.1,247.36Z" fill="#2e4d52"/><path d="M106.16,264.27,133,248.16l-.65-.75a12.87,12.87,0,0,0,9.63-4.75l.54-.72a30.26,30.26,0,0,0,3.3-.72c3.18-1.05,5.3-3.78,8.5-5.07,4.67-1.88,8.88-4.89,13.25-7.47a7.35,7.35,0,0,0,1.45-1.54c.25-.19.49-.39.73-.59l8.91-3.87-5.43-3.54.5-.53c.87.42,1.75.81,2.59,1.27,2.9,1.6,8.68.24,10.43-2.53.14-.23-.27-.81-.47-1.34,3.94.29,8.9-2.51,9.41-5.13a12,12,0,0,0,9.11-4.52l.64-.71,2.6.41a.48.48,0,0,0,.07.46l-6.49,5-.71.66c-3,1.4-6.06,2.59-8.9,4.22Q170,229,148.16,241.81c-1,.58-3,.77-1.75,2.85-1.33.15-2.88-.1-3.95.51q-7.35,4.22-14.7,8.46c-.61.35-.85,1.32-1.27,2l-1.59.11a15.59,15.59,0,0,0-2.37.88c-3.36,1.89-6.73,3.76-10,5.81a43.71,43.71,0,0,0-4.37,3.6Z" fill="#a4c4c8"/><path d="M126.49,255.63c.42-.68.66-1.65,1.27-2q7.33-4.26,14.7-8.46c1.07-.61,2.62-.36,3.95-.51l0,0,1.36.68-.05,0,3.29,2-.05,0c.19.67.39,1.35.59,2-5.23,3-10.44,6-15.69,8.95a24.37,24.37,0,0,1-2.92,1.24Z" fill="#2e4d52"/><path d="M108.17,266a43.71,43.71,0,0,1,4.37-3.6c3.26-2.05,6.63-3.92,10-5.81a15.59,15.59,0,0,1,2.37-.88l6.6,3.81a40.16,40.16,0,0,1-4.1,3.42c-3,1.93-6.27,3.54-9.26,5.52-2,1.29-3.57,1.46-5.5,0A36.56,36.56,0,0,0,108.17,266Z" fill="#2e4d52"/><path d="M201.6,211.56l6.48-5,6.41,3.09,2,.68-.05,0c-1.28,3.66-4.81,4.09-7.73,5.39Z" fill="#2e4d52"/><path d="M215.27,207.26l5.07-.24,0,2.09-4,1.13.05,0L215.06,209Z" fill="#2e4d52"/><path d="M220.37,209.11l0-2.09c.17-.61.35-1.22.52-1.83,2-1.45,3.32,0,4.68,1.2Z" fill="#05313a"/><path d="M201.6,211.56l7.09,4.07-1.25,1.13-6.55-4.54Z" fill="#79b5be"/><path d="M131.5,259.55l-6.6-3.81,1.59-.11,6.4,3.8Z" fill="#79b5be"/><path d="M151.5,249.24c-.2-.67-.4-1.35-.59-2l2,.8Z" fill="#a4c4c8"/><path d="M153.5,247.88l.66-.45Z" fill="#a4c4c8"/><path d="M97.6,252.89,99,257.94c.26,1.19.51,2.38.77,3.57v-.1c.17,1.47.34,2.94.5,4.41l-5.86.82q-1.91-4.5-3.83-9l-1.23-3.42L88,249.3l-1.13-2.71-.6-.59-.08-1.37,1.09-.89a17.64,17.64,0,0,0,.43-4.07,3.49,3.49,0,0,0-1.57-2c-.48-.32-1.31-.1-2-.13l1.28-2h0l3.36-1.94c.22,0,.43,0,.64,0h1.65l1.14.86,1.14,2.79q.9,3,1.81,6l1.48,5.86Z" fill="#fb8470"/><path d="M86.23,246l.6.59-.21,1.08-5.15,2.94,7.84,3.63,1.23,3.42c-.19.42-.39.84-.59,1.26h0c-1-1.85-4.4-.92-4.54-3.83l-1.31-.71h0c-1.63-1.3-3.31-2.56-4.88-3.93a11.18,11.18,0,0,1-1.54-2C81.34,250.47,83.46,247.1,86.23,246Z" fill="#a4c4c8"/><path d="M84.1,254.38l1.31.71Z" fill="#79b5be"/><path d="M90,258.92l.27.14-.27-.14Z" fill="#a4c4c8"/><path d="M69.78,221.33c-2.13-1.75-2.28-4-1.74-6.49a24.61,24.61,0,0,0,3.22-1.3C79.19,209,86.92,204.14,95,200c4.52-2.29,6.11-5.2,5-9.9v-1.26l.06-1.24a.25.25,0,0,0,.2-.27l5.84,2.1L104,191.38c.16.52.76,1.69.56,1.86-2.84,2.3-.43,5.21-1,7.74-.53,2.36-1.38,4.81-1.12,7.11s-.67,2.58-2.26,2.89l-.07.1v-6.55c-5.72,3.28-10.67,6.2-15.7,9C79.6,216.19,74.67,218.73,69.78,221.33Z" fill="#04373e"/><path d="M100.09,190.12c1.06,4.7-.53,7.61-5,9.9-8.12,4.12-15.85,9-23.78,13.52a24.61,24.61,0,0,1-3.22,1.3l-.87-6.52c4.77-1.83,5.26-2.52,5.26-7.29s0-9.84,0-14.76h3.18q0,8.43,0,16.87c.27.33.54.66.8,1l.51-1c1.6-.86,3.22-1.67,4.77-2.61,4.5-2.73,9-5.51,13.43-8.27l.72-.76Z" fill="#56a0ac"/><path d="M75.71,227.75l-.3-2.53,24.74-14.14.07-.1c.06.41.12.82.17,1.23l0,7.8a.65.65,0,0,0,0,.62c-.24.92-.47,1.83-.71,2.74-4,2.25-7.94,4.46-11.86,6.76a8.71,8.71,0,0,0-1.65,1.67l-1.17.44Z" fill="#cbe1e6"/><path d="M72.45,186.27q0,7.38,0,14.76c0,4.77-.49,5.46-5.26,7.29-.42-2.69-.8-5.4-1.27-8.08s-1.79-4.75-4.77-5.22l.9-4.1,1.41-7,1.85-3.49,7.16-3.28Z" fill="#79b5be"/><path d="M100.15,211.08,75.41,225.22c-1.43,1-2.51.75-3.41-.8-.64-1.09-1.48-2.06-2.22-3.09,4.89-2.6,9.82-5.14,14.67-7.82,5-2.78,10-5.7,15.7-9Z" fill="#396168"/><path d="M62,190.92l-.9,4.1-1.36,1.12h-.14l0,.14-.9.58a15.6,15.6,0,0,1-3.43-2.34,10.09,10.09,0,0,1-1.85-3.79,15.63,15.63,0,0,1-.24-3.51l-.48.23c-.29,1-.59,1.94-.88,2.91l-1-1.47c.38-3.58.77-7.15,1.15-10.72l3.44-1.91a15.4,15.4,0,0,1,9.86,4.16l-1.85,3.49a41.27,41.27,0,0,0-5.4-.52c-.86,0-2.36.71-2.43,1.23a55.55,55.55,0,0,0-.12,6.71l1-.42Z" fill="#04373e"/><path d="M75.71,227.75,85,232.24l2.32,1.49-2,1.83h0l-3.31,2L73.8,241l-1.16.08-.27-.34,5.25-2.53-2.08-1,1.49-.51.13-.61a12.8,12.8,0,0,0-3.53-.68,5.31,5.31,0,0,1-5.76-4.28l0-1.33a.26.26,0,0,1,.33-.18Z" fill="#e4f0f3"/><path d="M55.76,235.73l-4.63.74c-1.93-3.16-3.72-6.41-5.82-9.44s-1.8-5.71.19-8.87C45.77,226,48.91,232,55.76,235.73Z" fill="#cbe1e6"/><path d="M51.88,190.37l.88-2.91.48-.23a15.63,15.63,0,0,0,.24,3.51,10.09,10.09,0,0,0,1.85,3.79,15.6,15.6,0,0,0,3.43,2.34c-.79.7-1.57,1.41-2.35,2.12-2-1.85-4.33-3.49-4.53-6.59Z" fill="#bf7563"/><path d="M51.88,192.4c.2,3.1,2.52,4.74,4.53,6.59l-1.35,2.19c-3.35-1.38-4.53-4.12-5.38-7.12Z" fill="#186171"/><path d="M68.23,229.55a.26.26,0,0,0-.33.18L67.16,231l-1.18.61c-.35-.66-.71-1.32-1.07-2l-.74-4.76C65.48,226.49,69.11,226.08,68.23,229.55Z" fill="#44696f"/><path d="M51.88,192.4l-2.2,1.66-2.56,1.24c-.53-3.17,1-5.15,3.72-6.4l1,1.47Z" fill="#79b5be"/><path d="M64.91,229.64c.36.66.72,1.32,1.07,2l-1.85.13Z" fill="#e4f0f3"/><polygon points="59.66 196.29 59.63 196.15 59.77 196.14 59.83 196.31 59.66 196.29" fill="#bf7563"/><path d="M106.19,189.45l-5.84-2.1v-12c-1.78,3.26-3.4,6.24-5,9.21l-2.85-.31a23.05,23.05,0,0,1,.47-3.46c1.73-6,3.53-11.92,5.31-17.88q.72-6.24,1.45-12.48l5.13-7,3.28-1.35c2.58,2.11,5.25,1.47,7.83.13,1.36-.71,2.22-1.83.48-3.17l.07-.71,1.26-.86,2.48.95c1.89,2.17,5.13,3.38,5,7l-1.32,10.49a1.17,1.17,0,0,0-.23.46l-.13,1.41-.08,1.2-.63,3.94c-.2.08-.52.11-.58.25-3,7.33-3.53,14.74-.54,22.22C116.9,188.11,111.85,189.92,106.19,189.45Z" fill="#fb8470"/><path d="M99.72,150.39q-.73,6.24-1.45,12.48c-.85.08-1.86-.12-2.52.27-6.42,3.76-12.81,7.57-19.1,11.54a4,4,0,0,0-1.29,3c-.08,2.88.15,5.76.27,8.64H72.45v-9.12l-7.16,3.28a15.4,15.4,0,0,0-9.86-4.16c4.55-2.8,9-5.72,13.67-8.39C79.27,162,89.51,156.21,99.72,150.39Z" fill="#5ea5b0"/><path d="M47.29,171.43l.42-7.21c0-.44,0-.88,0-1.32,0-3.67,0-7.34,0-11,0-.43,0-.86,0-1.29l-1.42-3.1,4.94.56.24-.64-1.83-1.67c.33-.28.51-.54.61-.51,2.1.56,4.64.24,5.75,2.82v3.8c-.07.07-.2.15-.19.21a3.09,3.09,0,0,0,.18.51c0,2.48-.15,5,0,7.45s-.61,4.16-3,4.92c-4.83,1.73-5,2.07-3.94,7.26l4.63-2.41,1.83-.71.62.45,0,1.15c-1.66,3.57-4.88,4.4-8.36,4.76-.19-1.15-.38-2.31-.56-3.47A3.29,3.29,0,0,1,47.29,171.43Z" fill="#2f7383"/><path d="M53,164.94c2.44-.76,3.21-2.45,3-4.92s0-5,0-7.45c0-.24,0-.48,0-.72v-3.8c.09-.89.17-1.78.25-2.67l5.07-1.27c.44,2.06,1.25,4.12,1.26,6.19,0,4.8-.41,9.61-.52,14.42-.1,4.35-1.4,5.74-5.94,6,0-.38,0-.77,0-1.15V165.6h-.46c0,1.16-.11,2.32-.16,3.48l-1.83.71Z" fill="#deebef"/><path d="M104.31,136.85l-1.9-1.85-2.48-2.1-8.7-8.14,2.23-2.22c1.37.76,2.7,1.61,4.12,2.26a29.05,29.05,0,0,0,3.49,1.14l3.6,2.89,2.73,2c-.19,2.34-1.13,4.78,1.21,6.74.26.21-.34,1.46-.54,2.22Z" fill="#ed806f"/><path d="M91.23,124.76l8.7,8.14c-.29.55-.79,1.08-.83,1.64-.31,3.75-.52,7.51-.76,11.26L92,142.68c.46-1.83,1.28-3.66,1.27-5.49a51.86,51.86,0,0,0-1-7.38l-3.58-4.59c0-.15,0-.3,0-.46Z" fill="#2f585f"/><path d="M98.34,145.8c.24-3.75.45-7.51.76-11.26,0-.56.54-1.09.83-1.64l2.48,2.1c-.32,2.62-.62,5.25-1,7.86C101.19,144.63,100.81,146.34,98.34,145.8Z" fill="#2f7383"/><path d="M58.12,141.39c2.61-1.66,5.18-3.38,7.86-4.91.43-.25,1.31.29,2,.47-.06.42-.11.85-.17,1.27-1,3.06-4,3.43-6.38,4.58l0,0-2-.66Z" fill="#e4f0f3"/><path d="M82.94,149.12,85.25,152c-1.31.75-2.6,2.07-3.92,2.08s-2.92-1.16-4.38-1.82l2-3c.65,1.07,1.18,2.95,2,3.07C83.14,152.64,82.71,150.53,82.94,149.12Z" fill="#2f7383"/><path d="M82.94,149.12c-.23,1.41.2,3.52-2.06,3.2-.79-.12-1.32-2-2-3.07L77,147.36l7.68,0Z" fill="#2f585f"/><path d="M69.15,139.52l7.15,7.8c-.81,0-2,.34-2.37-.07a60.86,60.86,0,0,1-5.3-5.82C68.39,141.13,69,140.17,69.15,139.52Z" fill="#79b5be"/><path d="M104.31,136.85l3.76,2.9.72.67-.66,1.63-3.28,1.35Z" fill="#dbe7eb"/><path d="M67.8,138.22c.06-.42.11-.85.17-1.27l1.17,2Z" fill="#79b5be"/><path d="M77.59,100.05l9.12,5-.66,15.58.06,1.34,0,3a1.15,1.15,0,0,1-.61.12L81,122.62l-3.46-2.4,0-.1c-.08-2.36-.15-4.72-.23-7.08q0-6.21,0-12.41A.84.84,0,0,0,77.59,100.05Z" fill="#bf7563"/><path d="M85.54,125.17a1.15,1.15,0,0,0,.61-.12l2.54.17,3.58,4.59c-3,1.3-2.25,3.9-2.24,6.29a12.47,12.47,0,0,1-.88,4.66c-1.66-1.89-2.78-3.83-5.51-3.17-.28.07-.79-.88-1.2-1.35l.09-1.18.06-1.42,4.51-1.11c-1.24-2.18-4.59.48-4.86-2.79C81.51,126.9,84.22,126.53,85.54,125.17Z" fill="#deebef"/><path d="M66,126.41l3.88.9c.64-1,1.78-2.07,1.82-3.13.25-6.13.23-12.27.3-18.41q.27,7.5.53,15a2,2,0,0,0,0,.64v3.75l3.9-.41-14.84,8.44c0-.73,0-1.46,0-2.19C65.3,131.71,64.53,128,66,126.41Z" fill="#aecfd2"/><path d="M72.43,140.31c-1-2.37-2.62-4.39-2.16-5.65s3-1.79,4.88-2.78C76.36,135.42,74.07,137.22,72.43,140.31Z" fill="#dbe7eb"/><path d="M80.05,145.48c-1.22-1.06-2.39-1.95-3.39-3a6.11,6.11,0,0,1-.82-1.93c.74-.27,1.5-.82,2.22-.76C82,140.11,82.34,141.08,80.05,145.48Z" fill="#dbe7eb"/><path d="M82.24,129.74c.27,3.27,3.62.61,4.86,2.79l-4.51,1.11C82,132.38,80.68,131.19,82.24,129.74Z" fill="#79b5be"/><path d="M77.56,120.22l3.46,2.4-4.11,1.94C77.12,123.11,77.34,121.66,77.56,120.22Z" fill="#aecfd2"/><path d="M47.73,162.9c0,.44,0,.88,0,1.32l-1-.52Z" fill="#56a0ac"/><path d="M47.75,150.59c0,.43,0,.86,0,1.29l-1.25-.64h0Z" fill="#56a0ac"/><path d="M82.53,135.06l-.09,1.18Z" fill="#79b5be"/><path d="M47.29,171.43a3.29,3.29,0,0,0,0,.54c-.14-.1-.27-.21-.4-.32Z" fill="#56a0ac"/><path d="M46.49,151.24l-.15.27.15-.27Z" fill="#56a0ac"/><path d="M145.25,91c0,.41.08.81.11,1.22l-4.16,1.37-1.38,1.29-5.23,2.39-1.26,1.12c-3.33.34-4.72,2-4.6,5.52.23,7.53.05,15.06.05,22.59-.58,1.92-1,4-3.71,3.88q0-8.57,0-17.13c0-1.94.44-4.06-.21-5.76-.46-1.21-2.39-1.87-3.66-2.78l-.78,2.47c-.53.31-1,.67-1.59.94-1.65.82-3.33,1.59-5,2.38l-2.36.1L106.83,113l-1.33,1.21L102,115.94l-5.63,3.46-2.38.77-1.35.12-1-2.82a9.7,9.7,0,0,1,1.89-2q23.31-13.51,46.68-26.9a5.51,5.51,0,0,1,1.55-.39Z" fill="#63a7b1"/><path d="M108.11,78.58,112.43,77c.09,1.59.21,2.71.22,3.83,0,6.81,0,13.63,0,20.45l-3.5,2.86-1.06-.44Z" fill="#e4f0f3"/><path d="M128.23,65.61l1.37-1.22c2.4-.25,1.84,1.54,1.85,2.8.06,7.7.06,15.39.09,23.09l-3.92,1.9q-.09-12.3-.17-24.6Z" fill="#e4f0f3"/><path d="M132.08,90.27c0-7.94.06-15.88,0-23.82,0-2.52.66-3.56,3.17-2.14l-.06,22.07c.08.41.17.82.26,1.23v0C135.18,89.55,134.15,90.57,132.08,90.27Z" fill="#e4f0f3"/><path d="M99.68,87l1.34-.52,1.81-.07L102.51,89l-.07.68-.16,2.58c-.68,5.06-1.4,10.12-2,15.19-.29,2.33-1,4-3.83,3.14.67-6.92,1.29-13.85,2-20.76A10.21,10.21,0,0,1,99.68,87Z" fill="#2f7383"/><path d="M102.51,89l.32-2.55c.12-1.11.25-2.21.4-3.47,3.06-.92,3.31-.51,3.16,2.68-.27,5.93-.2,11.88-.17,17.82,0,2-.63,3.3-3.29,3.43,0-3.82,0-7.56,0-11.3a20.54,20.54,0,0,0-.62-3.35c0-.86.11-1.72.16-2.58.07-.06.21-.13.21-.18A3.12,3.12,0,0,0,102.51,89Z" fill="#e4f0f3"/><path d="M86.05,120.68l.66-15.58,3.37-1.47c.19,2.33.36,4.66.57,7,.11,1.26.3,2.53.45,3.79,0,1,.07,2.08.11,3.11l-.72,3.79Z" fill="#fb8470"/><path d="M127.45,67.58q.09,12.3.17,24.6c-.81.72-1.62,1.44-2.44,2.15-.06-8.17-.13-16.34-.16-24.52a4.47,4.47,0,0,1,.57-1.47Z" fill="#63a7b1"/><path d="M136.64,87.56c-.21-4.57-.34-9.14-.65-13.7-.19-2.85,1.18-4.11,3.81-4.41q0,8.1,0,16.19Z" fill="#2f7383"/><path d="M86.05,120.68l4.44.63.72-3.79.41,0c.35.94.69,1.88,1,2.82l.81,2.25-2.23,2.22H88.7c-.87-.91-1.73-1.83-2.59-2.74Z" fill="#edb6ab"/><path d="M104.8,81.92l-1.67-1.39.47-.71,1.9,1.05Z" fill="#e4f0f3"/><path d="M118.7,95.5c.13.45.25.9.37,1.35a3.16,3.16,0,0,1-.52-.17Z" fill="#2f7383"/><path d="M149.4,71.89c.08,1.46.08,2.93.26,4.38a34.6,34.6,0,0,0,.79,3.46l3.24-1.47c.13.46.31,1.06.48,1.67l-8.3,5.19-.21-2c.82-1,2.22-2,2.34-3a40.47,40.47,0,0,0-.36-6.93l.06-.88Z" fill="#2f7383"/><path d="M147.64,73.21a40.47,40.47,0,0,1,.36,6.93c-.12,1.08-1.52,2-2.34,3a70.82,70.82,0,0,1-.36-8C145.33,74.51,146.82,73.87,147.64,73.21Z" fill="#256270"/><path d="M72,105.77c-.07,6.14,0,12.28-.3,18.41,0,1.06-1.18,2.09-1.82,3.13-.44-1.14-1.25-2.27-1.26-3.42-.11-8,0-15.94,0-23.91l3.35,1.29.09,3.27Z" fill="#2f7383"/><path d="M85.39,92.81c1.16-.71,3.53.09,3.15-2.54.48.77,1.34,1.52,1.37,2.3.13,3.38,0,6.78,0,10.17L85.29,99.9C85.33,97.54,85.36,95.17,85.39,92.81Z" fill="#2f7383"/><path d="M77.29,113c.08,2.36.15,4.72.23,7.08C77.44,117.76,77.37,115.4,77.29,113Z" fill="#aecfd2"/><path d="M72,104.54l-.09-3.27Z" fill="#aecfd2"/><path d="M74.23,100.19h1v.25h-1Z" fill="#dbe7eb"/><path d="M77.59,100.05a.84.84,0,0,1-.26.58C77.41,100.44,77.5,100.24,77.59,100.05Z" fill="#aecfd2"/><path d="M72.49,121.39a2,2,0,0,1,0-.64,2.67,2.67,0,0,1,.2.46S72.57,121.33,72.49,121.39Z" fill="#dbe7eb"/><path d="M118.74,74.76q0,7.71,0,15.42Q118.74,82.47,118.74,74.76Z" fill="#2f7383"/><path d="M53,135l-3.31,2.11c0-7.71,0-15.42,0-23.13a8.06,8.06,0,0,1,.58-2.09l1.57-.9c.41.67,1.15,1.33,1.16,2C53,120.31,53,127.64,53,135Z" fill="#5ea5b0"/><path d="M51.78,111l-1.57.9c0-.46.06-.92.1-1.37l.69-.15Z" fill="#aecfd2"/><path d="M66,126.41c-1.45,1.57-.68,5.3-4.47,4.57a1,1,0,0,1,0-.54q1.25-10.56,2.48-21.12l2.13-.12-.33-1.35c2.59.74,1.33,2.7,1.19,4.15-.39,4.31-1,8.59-1.43,12.89A4.54,4.54,0,0,0,66,126.41Z" fill="#2f7383"/><path d="M64,109.32q-1.23,10.56-2.48,21.12v-22.5Z" fill="#2f585f"/><path d="M135.45,87.61c-.09-.41-.18-.82-.26-1.23Z" fill="#c8dade"/><path d="M185.3,60.12l0-.2c.42-.49.83-1,1.25-1.49l0,0c1.5-1.37,3-2.77,4.52-4.12,2.38-2.12,7.12-3.28,9-1.93,2.7,1.92,3.59,4.62,2.8,8a18.4,18.4,0,0,0,0,4.2.41.41,0,0,1-.09.37l-3.86,7.15h0l-3.3,3.17a12,12,0,0,1-2.88,1.36c-2.33.41-5.22,1.49-6.89.54s-2.89-4-2.94-6.16c-.07-3.09,1.09-6.22,1.73-9.33l0,0ZM197.78,62h-7.66v8.46l.67.34Z" fill="#b3d4d7"/><path d="M202.88,64.56a18.4,18.4,0,0,1,0-4.2c.79-3.33-.1-6-2.8-8-1.9-1.35-6.64-.19-9,1.93-1.53,1.35-3,2.75-4.52,4.12,1.39-4.11,7.2-8.43,11.33-8.25,2.66.12,4.9,1.28,5.66,4C204.53,57.71,204.79,61.23,202.88,64.56Z" fill="#e4f0f3"/><path d="M184.63,61.67c-.64,3.11-1.8,6.24-1.73,9.33,0,2.16,1.27,5.23,2.94,6.16s4.56-.13,6.89-.54a12,12,0,0,0,2.88-1.36,2.47,2.47,0,0,1,0,.54c-2.08,1.24-4,2.85-6.28,3.6-2.71.9-5-.51-6.69-2.74C180.68,74,181.09,65,184.63,61.67Z" fill="#e4f0f3"/><path d="M198.93,72.08l3.86-7.15Z" fill="#dbe7eb"/><path d="M195.66,75.8a2.47,2.47,0,0,0,0-.54l3.3-3.17Z" fill="#dbe7eb"/><path d="M186.59,58.43c-.42.5-.83,1-1.25,1.49C185.76,59.43,186.17,58.93,186.59,58.43Z" fill="#e4f0f3"/><path d="M185.3,60.12l-.69,1.59Z" fill="#e4f0f3"/><path d="M158.12,144l3.67-2v12.2c2.92-1.58,5.06-2.71,7.17-3.89q7.86-4.38,15.69-8.79l1.31-.64,2.93,3.11,2.27-1.17c-.41.79-.61,1.93-1.25,2.31q-33.36,19.32-66.8,38.5l-.75-7.7c5.53-1,7.16-2.83,7.16-8.23l0-15.14h3.18l0,17.52.8,1,.51-1c7.24-4.07,14.53-8.06,21.67-12.3A5.56,5.56,0,0,0,158,154C158.29,150.72,158.1,147.36,158.12,144Z" fill="#56a0ac"/><path d="M158.12,144c0,3.34.17,6.7-.16,10a5.56,5.56,0,0,1-2.22,3.76c-7.14,4.24-14.43,8.23-21.67,12.3h-1.31l0-17.52c0-2.68-.09-5.37.08-8,.07-1.08.4-2.64,1.15-3.09,3.76-2.28,7.7-4.27,11.58-6.36v15.5Z" fill="#79b5be"/><path d="M145.54,135.07c-3.88,2.09-7.82,4.08-11.58,6.36-.75.45-1.08,2-1.15,3.09-.17,2.66-.07,5.35-.08,8h-3.18v-8.18l-4.33,1c.16-3.63-3.08-4.84-5-7,6.24-3.53,12.51-7,18.71-10.62,2.29-1.33,4.41-2.93,6.62-4.41l.17,0,.17,0c-.06,3.67-.11,7.34-.17,11Z" fill="#5ea5b0"/><path d="M184.65,141.5q-7.85,4.4-15.69,8.79c-2.11,1.18-4.25,2.31-7.17,3.89V142l13.09-7.78c1.18.86,2.38,1.7,3.55,2.58C180.51,138.34,182.57,139.92,184.65,141.5Z" fill="#79b5be"/><path d="M184.65,141.5c-2.08-1.58-4.14-3.16-6.22-4.72-1.17-.88-2.37-1.72-3.55-2.58l11.73-7c.91,4.59,1.47,9.17-.65,13.62Z" fill="#63a7b1"/><path d="M186,140.86c2.12-4.45,1.56-9,.65-13.62.71-.61,1.42-1.22,2.14-1.82l2.4-.79.18,1.25,0,.76q-.06,8.08-.14,16.16L188.89,144Z" fill="#4a9aa5"/><path d="M223.33,73.26,163.22,108l-.72-1.22,60-34.74Z" fill="#cbe1e6"/><path d="M141.2,93.57l4.16-1.37a2.85,2.85,0,0,1,.51.07c-.08.84-.16,1.68-.23,2.51-.07.07-.22.16-.2.21a2.81,2.81,0,0,0,.21.47l.07,22.74,2.62-.69,1.29.64h0c0,1.08-2,2.15,0,3.23l-3.71,2-.17,0-.17,0c.79-3-.23-3.92-3.12-2.65a4,4,0,0,1-1.26.07Z" fill="#2f7383"/><path d="M149.63,118.15l.63-1.57.59.49-1.22,1.08Z" fill="#2f7383"/><path d="M145.64,94.78c.07-.83.15-1.67.23-2.51a43.85,43.85,0,0,1,.49,4.4q.07,9.08,0,18.16a19.15,19.15,0,0,1-.62,3.37q0-11.37-.07-22.74C145.65,95.24,145.64,95,145.64,94.78Z" fill="#04373e"/><path d="M191.16,142.8q.08-8.07.14-16.16c.07-.08.19-.16.19-.23a2.67,2.67,0,0,0-.16-.53l-.18-1.25c0-.22,0-.43.07-.65,1.56-.77,3.08-1.64,4.7-2.27a28.69,28.69,0,0,1,3.94-1l.3,26.58q-7.71,4.23-15.39,8.48c-.1,0,0,.4-.05.61-1.7.82-3.45,1.55-5.08,2.48-13,7.46-26,15-39.08,22.42-5.77,3.29-11.64,6.41-17.46,9.61-.08-1.32-.15-2.65-.24-4.23l1.74-.3-1.67-1.46.18-1.32q33.42-19.23,66.8-38.5C190.55,144.73,190.75,143.59,191.16,142.8Z" fill="#04373e"/><path d="M191.16,121.39l.57-.77Z" fill="#04373e"/><path d="M224,27.34c.49-4,1.93-6.66,4.77-8.35,2.49-1.49,4.52-.27,4.45,2.67A8.68,8.68,0,0,1,229,29.44a4.29,4.29,0,0,1-3.47.48C224.64,29.48,224.34,27.91,224,27.34Z" fill="#cbe1e6"/><path d="M122.93,184.93l1.67,1.46-1.74.3c.09,1.58.16,2.91.24,4.23,0,2.13,0,4.27,0,6.4l-1.2,10.06.51,3.61-.64,4.44-.68,2.08c0,2.74,0,5.47,0,8.21.22.91.45,1.83.67,2.75-1.79,2.18-1,4.41-.09,6.64-.37.76-.74,1.51-1.1,2.27,0,2.14-.09,4.27-.14,6.4l-1.24.91c-4.13-.14-5.2-1-5.28-4.44,0-2.15.21-4.31,0-6.45-.29-3.35-.86-6.67-1.26-10-.28-2.39-.48-4.79-.72-7.19V204.78l-.8,0q-.51,6-1,11.94c-.24,4.95-.49,9.89-.72,14.84-.17,3.82-.31,7.64-.47,11.46l.49,3.64.6,1.85.73,2.85-1.35.51c-.62-2.65-2.21-.19-3.25-.62l-3.92-2.58L101,245.3q.21-3.08.43-6.16l-.42-1.72-.13-5.9c0-1,0-2,0-3l.15-.73h1.21l.11,1.43.45-.13-.55-1.3-1.39-2V224.6c.68-3.28,1.41-6.56,2-9.85.36-1.93-.57-2.79-2.52-2.54,0-.41-.11-.82-.17-1.23,1.59-.31,2.52-.65,2.26-2.89s.59-4.75,1.12-7.11c.56-2.53-1.85-5.44,1-7.74.2-.17-.4-1.34-.56-1.86l2.16-1.93c5.66.47,10.71-1.34,15.52-4.08Z" fill="#05313a"/><path d="M123.05,197.32c0-2.13,0-4.27,0-6.4,5.82-3.2,11.69-6.32,17.46-9.61,13.05-7.43,26-15,39.08-22.42,1.63-.93,3.38-1.66,5.08-2.48l5.07,2.61c-4.7,2.73-8.83,5.15-13,7.54q-26,15-52,30A14.39,14.39,0,0,1,123.05,197.32Z" fill="#396168"/><path d="M122.36,211l-.51-3.61a34.55,34.55,0,0,0,4.73-1.83q15.12-8.46,30.14-17.1c4.43-2.55,8.66-5.45,13.12-8,1.47-.83,3.35-.94,5-1.37l.05.66-2.14,1.54a40.92,40.92,0,0,1-4,2.78c-2.23,1.2-4.65,2-6.81,3.35-.69.42-.8,1.82-1.18,2.77-1.15,0-2.56-.51-3.43,0-7.71,4.28-15.33,8.71-22.94,13.16-.61.35-.95,1.17-1.41,1.77Z" fill="#aecfd2"/><path d="M176.2,178.39c.27-3.5,3.78-3.33,5.74-4.81a70.06,70.06,0,0,1,9.86-5.77,16.83,16.83,0,0,1,3.89-1l-.66,1.26-6.44,5-3.46,1.13a.58.58,0,0,0-.49.28l-1.5.86a.53.53,0,0,0-.47.34L180.6,177l-.08,0Z" fill="#aecfd2"/><path d="M213.21,175.23l-3.87,1.16a.64.64,0,0,1-.52.24l-.81-.75c-1.43-3-4.1-3.88-7.12-4.16l-1.18-1L197,168.15V166.8c.67-.09,1.47-.48,2-.23,3.11,1.55,6.19,3.2,9.21,4.94.54.31.77,1.15,1.15,1.75l2.56.72Z" fill="#aecfd2"/><path d="M176.2,178.39l4.32-1.45,1.62,3.15-1,.28-1-.58.13-.29-.17.26-5.17,0-.05-.66Z" fill="#2f585f"/><path d="M211.87,174l-2.56-.72Z" fill="#a4c4c8"/><path d="M197,166.8c0,.45,0,.9,0,1.35l-1.94-.09.66-1.26Z" fill="#a4c4c8"/><path d="M71,242l-3.69.35c.81-3.2,3.45-.83,5-1.65l.27.34-1.53,1Z" fill="#e4f0f3"/><path d="M67.16,231l.74-1.28,0,1.33Z" fill="#deebef"/><path d="M86.23,246c-2.77,1.1-4.89,4.47-8.54,2.43v.1l-.7-.68c-1-1.37-4.44-1.32-2.51-4.37l0-.12,10.33-.63,1.23,1,.17.88Z" fill="#2e4d52"/><path d="M77,247.85l.7.68Z" fill="#a4c4c8"/><path d="M86.15,244.63c-.06-.3-.11-.59-.17-.89l-1.23-1-10.33.63L71,242l.08,0L73.8,241l8.29-3.42h2c.67,0,1.5-.19,2,.13a3.49,3.49,0,0,1,1.57,2,17.64,17.64,0,0,1-.43,4.07Z" fill="#ed806f"/><path d="M137.72,234.55l-1.49-.49.13-.46,1.7.54Z" fill="#a4c4c8"/><path d="M169,227.14a7.35,7.35,0,0,1-1.45,1.54c-4.37,2.58-8.58,5.59-13.25,7.47-3.2,1.29-5.32,4-8.5,5.07a30.26,30.26,0,0,1-3.3.72l-5.18-3.12a13.92,13.92,0,0,1,8.85-4.56c.83-2.41,6.12-5.41,8.83-4.77,1.66-3.58,5-4.63,8.29-5.7l5.15,2.7h0Z" fill="#2e4d52"/><path d="M195.67,210.88c-.51,2.62-5.47,5.42-9.41,5.13.2.53.61,1.11.47,1.34-1.75,2.77-7.53,4.13-10.43,2.53-.84-.46-1.72-.85-2.59-1.27.3-.75.38-1.88.94-2.21,3.23-1.94,6.71-3.48,9.84-5.57s5.93-2.82,9.29-1.19l-.06,0,2,1.34Z" fill="#2e4d52"/><path d="M173.21,219.14l5.43,3.54-8.91,3.87-1.29-.07h0l-4.3-3.31C167,221.43,169.07,218,173.21,219.14Z" fill="#2e4d52"/><path d="M204.78,206.36a12,12,0,0,1-9.11,4.52l.05.05-2-1.34.06,0-3.13-2.75,8.86-3.69Z" fill="#2e4d52"/><path d="M109.41,246.62l-.49-3.64c.76-2.53,3.6-1.27,5-2.73.08,3.4,1.15,4.3,5.28,4.44L116.59,248Z" fill="#deebef"/><path d="M208,206.06l-2.6-.41-1.15-1.06c1-2.21,1.44-4.91,4.5-5.42l1.87.1,1.81,2.38-1.94.27c-2.6.05-3.27,1-1.49,3.15Z" fill="#05313a"/><path d="M208.77,199.17c-3.06.51-3.48,3.21-4.49,5.42L200.65,203c0-.46-.14-1.2.09-1.35a50.89,50.89,0,0,1,5.85-3.37C207.08,198.06,208,198.85,208.77,199.17Z" fill="#2e4d52"/><path d="M109.41,246.62l7.18,1.34,4.51-.6c-.06,3.4-2.7,2.2-4.49,2.5l-6.6-1.39Z" fill="#256270"/><path d="M200.65,203l3.63,1.58,1.14,1.06-.64.71-5.27-3.16Z" fill="#79b5be"/><path d="M137.32,238.82l5.18,3.12-.54.72-5.3-3.16Z" fill="#79b5be"/><path d="M164.14,223.18l4.3,3.31-5.15-2.7Z" fill="#79b5be"/><path d="M121.63,235.11c-.88-2.23-1.7-4.46.09-6.64.42-.1,1-.05,1.23-.3.44-.63.48-1.75,1-2.07,9-5.3,18.13-10.49,27.2-15.72,5.66-3.27,11.26-6.62,17-9.79,2.46-1.36,5.14-2.34,7.71-3.49l.91.46-.44-1c3.66-2.35,7.3-4.72,11-7,2.77-1.74,5.51-3.77,9.06-1.94l-.05,0,1.33,1.35-.05,0,1.35.68,0,0a9.91,9.91,0,0,1-2,2.46c-3,1.87-6,3.62-9.15,5.27-5.06,2.68-10.23,5.13-15.23,7.9-2.28,1.26-4.15,3.27-6.43,4.55-3.79,2.14-7.86,3.78-11.63,6-4.2,2.44-8.11,5.39-12.31,7.85a41.7,41.7,0,0,1-6.55,2.56l.77.94Z" fill="#2e4d52"/><path d="M175.86,197.1c-2.57,1.15-5.25,2.13-7.71,3.49-5.71,3.17-11.31,6.52-17,9.79C142.11,215.61,133,220.8,124,226.1c-.55.32-.59,1.44-1,2.07-.19.25-.81.2-1.23.3-.22-.92-.45-1.84-.67-2.75l2.5-2.19a17,17,0,0,0,3.5-1.11c4-2.19,7.85-4.49,11.71-6.84a12,12,0,0,0,2.05-2.09l1.85-.11c5.75-3.43,11.46-6.93,17.26-10.27,5.42-3.14,11-6.11,16.4-9.19.28-.16.33-.72.49-1.1a3.17,3.17,0,0,0,.34-.39,11.14,11.14,0,0,0,3-.68c3.35-1.81,6.61-3.79,9.92-5.68Q199,181,208,175.88l.81.75L194,185.89c.93.65,1.67,1.17,2.42,1.68-3.55-1.83-6.29.2-9.06,1.94-3.68,2.32-7.32,4.69-11,7Z" fill="#a4c4c8"/><path d="M197.65,188.89l-1.33-1.35Z" fill="#a4c4c8"/><path d="M199,189.53l-1.35-.68Z" fill="#a4c4c8"/><path d="M224.81,198l-1.2.06-.78-1.1,2.56-1.26C225.2,196.49,225,197.26,224.81,198Z" fill="#aecfd2"/><path d="M208,206.06l1-1,6.25,2.19-.21,1.75-.57.6-6.41-3.09A.5.5,0,0,1,208,206.06Z" fill="#79b5be"/><path d="M151,247.25l-3.29-2Z" fill="#a4c4c8"/><path d="M147.72,245.3l-1.36-.68Z" fill="#a4c4c8"/><path d="M102.22,248.63l3.92,2.58c.23,2.63-1.91,2.29-3.43,2.72l-5.1-1-1-3.81Z" fill="#e4f0f3"/><path d="M110,248.47l6.6,1.39c-2.18,1.37-4.34,2.77-6.56,4.07-.29.18-.87-.15-1.32-.24l.66-1.86,1.35-.51Z" fill="#427e8c"/><path d="M99.72,261.51c-.26-1.19-.51-2.38-.77-3.57l7-3.35.63,1.16a59.17,59.17,0,0,0-5.24,3.21C100.58,259.52,100.25,260.64,99.72,261.51Z" fill="#a4c4c8"/><path d="M109.39,251.83l-.66,1.86-6,.24c1.52-.43,3.66-.09,3.43-2.72C107.18,251.64,108.77,249.18,109.39,251.83Z" fill="#a4c4c8"/><path d="M168.44,226.48l1.29.07c-.24.2-.48.4-.73.59Z" fill="#79b5be"/><path d="M214.49,209.61l.57-.6,1.41,1.28Z" fill="#aecfd2"/><path d="M101.06,227.79l-.15.73c-.82,0-1.82-.22-2.45.16-2.53,1.52-4.95,3.24-7.41,4.89H89.4l-1.34-1.08-1.85-.7a8.71,8.71,0,0,1,1.65-1.67c3.92-2.3,7.9-4.51,11.86-6.76l1.16,1.23c0,.41,0,.81,0,1.21C101,226.47,101,227.13,101.06,227.79Z" fill="#2f585f"/><path d="M100.87,231.52c0,2,.08,3.93.13,5.9-1.81,1.42-3.62,2-5.64.28-.47-.4-1.34-.33-2-.48l-1.14-2.79a20.57,20.57,0,0,1,3.41-1.79A51.35,51.35,0,0,1,100.87,231.52Z" fill="#2e4d52"/><path d="M102.22,248.63l-5.6.45-1.48-5.86,2.59-1.83c-.25,2.42,1.33,3.31,3.26,3.91Zm-4.82-2.31.09.74,1.85-.17-.11-.81Z" fill="#396168"/><path d="M89.31,254.24l-7.84-3.63,5.15-2.94L88,249.3Z" fill="#2e4d52"/><path d="M97.73,241.39l-2.59,1.83q-.92-3-1.81-6c.69.15,1.56.08,2,.48,2,1.69,3.83,1.14,5.64-.28l.42,1.72Z" fill="#a4c4c8"/><path d="M100.87,231.52a51.35,51.35,0,0,0-5.27,1.12,20.57,20.57,0,0,0-3.41,1.79l-1.14-.86c2.46-1.65,4.88-3.37,7.41-4.89.63-.38,1.63-.13,2.45-.16C100.9,229.52,100.89,230.52,100.87,231.52Z" fill="#a4c4c8"/><path d="M86.21,231.8l1.85.7.7,1.12-3.36,1.94,2-1.83L85,232.24Z" fill="#bf7563"/><path d="M84.12,237.53h-2l3.31-2Z" fill="#bf7563"/><path d="M88,249.3l-1.34-1.63.21-1.08C87.2,247.49,87.58,248.4,88,249.3Z" fill="#ed806f"/><path d="M88.76,233.62l-.7-1.12,1.34,1.08C89.19,233.6,89,233.62,88.76,233.62Z" fill="#ed806f"/><path d="M95.34,184.52c1.61-3,3.23-6,5-9.21v12a.25.25,0,0,1-.2.27l-.06,1.24v1.26l-4.19,1.39C95.71,189.18,95.53,186.85,95.34,184.52Z" fill="#79b5be"/><path d="M100.09,188.86l.06-1.24Z" fill="#56a0ac"/><path d="M75.63,186.28c-.12-2.88-.35-5.76-.27-8.64a4,4,0,0,1,1.29-3c6.29-4,12.68-7.78,19.1-11.54.66-.39,1.67-.19,2.52-.27-1.78,6-3.58,11.91-5.31,17.88a23.05,23.05,0,0,0-.47,3.46,4.7,4.7,0,0,0-1.5,6.18c.57,1.07,2.74,1.28,4.19,1.88-4.47,2.76-8.93,5.54-13.43,8.27-1.55.94-3.17,1.75-4.77,2.61H75.67Q75.66,194.72,75.63,186.28Z" fill="#79b5be"/><path d="M95.18,192.27c-1.45-.6-3.62-.81-4.19-1.88a4.7,4.7,0,0,1,1.5-6.18l2.85.31c.19,2.33.37,4.66.56,7Z" fill="#edb6ab"/><path d="M75.67,203.15H77l-.51,1C76.21,203.81,75.94,203.48,75.67,203.15Z" fill="#5ea5b0"/><path d="M100.88,224.6l-1.16-1.23c.24-.91.47-1.82.71-2.74.07-.06.22-.15.2-.18a2.26,2.26,0,0,0-.22-.44l0-7.8c2-.25,2.88.61,2.52,2.54C102.29,218,101.56,221.32,100.88,224.6Z" fill="#04373e"/><path d="M100.41,220a2.26,2.26,0,0,1,.22.44s-.13.12-.2.18A.65.65,0,0,1,100.41,220Z" fill="#05313a"/><path d="M62,190.92H56.49l-1,.42a55.55,55.55,0,0,1,.12-6.71c.07-.52,1.57-1.21,2.43-1.23a41.27,41.27,0,0,1,5.4.52Z" fill="#bf7563"/><path d="M73.8,241,71.11,242l1.53-1Z" fill="#bf7563"/><path d="M125.22,145.4l4.33-1v8.18l0,15.14c0,5.4-1.63,7.27-7.16,8.23q.23-6.51.47-13l.63-3.94c0-.4.05-.8.08-1.2s.08-.94.13-1.41l.23-.46Z" fill="#79b5be"/><path d="M117.77,137.44l-1.26.86c-3.4.15-7.26-3.31-6-5.72,1.53-3-.35-4.55-1.6-6.53-1.64-3.38.93-4.07,3.16-5l.71-.27,1.19-.13h.62l5.78,2.08c2.88,3.27,1.35,6.8.61,10.28Z" fill="#04373e"/><path d="M117.77,137.44,121,133c2.08.2,3.7-.3,4.11-2.67,2.71.11,3.13-2,3.71-3.88.87.37,1.83,1.17,2.6,1,1.72-.34,3.08-1.36,2.68-3.51l1.27,0h2l1.31-.65,1.45-2.84,1.13.25a4,4,0,0,0,1.26-.07c2.89-1.27,3.91-.4,3.12,2.65-2.21,1.48-4.33,3.08-6.62,4.41-6.2,3.6-12.47,7.09-18.71,10.62Z" fill="#bbd8de"/><path d="M108.89,126.05c1.25,2,3.13,3.56,1.6,6.53-1.24,2.41,2.62,5.87,6,5.72,0,.24,0,.48-.07.71a7.64,7.64,0,0,1-7.65,1.41l-.72-.67c.2-.76.8-2,.54-2.22-2.34-2-1.4-4.4-1.21-6.74C107.9,129.21,108.39,127.63,108.89,126.05Z" fill="#edb6ab"/><path d="M122.83,162.9q-.24,6.49-.47,13l.75,7.7-.18,1.32-1.22.44c-3-7.48-2.51-14.89.54-22.22C122.31,163,122.63,163,122.83,162.9Z" fill="#ed806f"/><path d="M108.79,140.42a7.64,7.64,0,0,0,7.65-1.41c1.74,1.34.88,2.46-.48,3.17-2.58,1.34-5.25,2-7.83-.13Z" fill="#e4f0f3"/><path d="M123.54,157.76c0,.4-.06.8-.08,1.2C123.48,158.56,123.51,158.16,123.54,157.76Z" fill="#ed806f"/><path d="M123.9,155.89l-.23.46A1.17,1.17,0,0,1,123.9,155.89Z" fill="#ed806f"/><path d="M53,164.94l.69,4.85-4.63,2.41C48,167,48.17,166.67,53,164.94Z" fill="#bbd8de"/><path d="M55.52,169.08c0-1.16.11-2.32.16-3.48h.46v3.93Z" fill="#bbd8de"/><path d="M56,151.85c0,.24,0,.48,0,.72a3.09,3.09,0,0,1-.18-.51C55.84,152,56,151.92,56,151.85Z" fill="#63a7b1"/><path d="M108.89,126.05c-.5,1.58-1,3.16-1.49,4.74l-2.72-2c-1.05-4.27,2.14-9.41-2.67-12.89l3.49-1.73c.93,2.44,1.87,4.88,3,7.85.49-3.52.77-6.49-1.67-9.06l4.59-2.43,3.09,3.68v5.21l-.55,1.2-1.19.13-.71.27C109.82,122,107.25,122.67,108.89,126.05Zm4-8.17-.43-.14.06.24Z" fill="#e4f0f3"/><path d="M102,115.94c4.81,3.48,1.62,8.62,2.67,12.89l-3.61-2.89.06-.7c2.42-.49,2-1.67.52-2.74-1.66-1.17-3.5-2.08-5.27-3.1Z" fill="#bbd8de"/><path d="M101.13,125.24l-.06.7a29.05,29.05,0,0,1-3.49-1.14c-1.42-.65-2.75-1.5-4.12-2.26l-.81-2.25,1.35-.12Z" fill="#396168"/><path d="M86.11,122c.86.91,1.72,1.83,2.59,2.74,0,.16,0,.31,0,.46l-2.54-.17C86.14,124,86.12,123,86.11,122Z" fill="#fb8470"/><path d="M61.4,142.82l-2-.66Z" fill="#deebef"/><path d="M134.06,124c.4,2.15-1,3.17-2.68,3.51-.77.15-1.73-.65-2.6-1,0-7.53.18-15.06-.05-22.59-.12-3.54,1.27-5.18,4.6-5.52.24,2.86.64,5.72.69,8.59C134.13,112.63,134.06,118.31,134.06,124Z" fill="#e4f0f3"/><path d="M137.31,124h-2c0-7.17.07-14.33,0-21.49a38.15,38.15,0,0,0-.73-5.27l5.23-2.39c.09,1.17.25,2.33.25,3.5,0,7.39,0,14.78,0,22.17l-1.45,2.84Z" fill="#e4f0f3"/><path d="M125.07,130.36c-.41,2.37-2,2.87-4.11,2.67.74-3.48,2.27-7-.61-10.28q0-7.8,0-15.59l.78-2.47c1.27.91,3.2,1.57,3.66,2.78.65,1.7.2,3.82.21,5.76Q125.05,121.79,125.07,130.36Z" fill="#dbe7eb"/><path d="M120.37,107.16q0,7.78,0,15.59l-5.78-2.08c0-.4,0-.81-.07-1.21,0-1.74,0-3.48,0-5.21-.24-1.26-.48-2.51-.73-3.77,1.67-.79,3.35-1.56,5-2.38C119.34,107.83,119.84,107.47,120.37,107.16Z" fill="#2f7383"/><path d="M134.59,97.25a38.15,38.15,0,0,1,.73,5.27c.08,7.16,0,14.32,0,21.49l-1.27,0c0-5.68.07-11.36,0-17-.05-2.87-.45-5.73-.69-8.59Z" fill="#cbe1e6"/><path d="M140.07,120.53c0-7.39,0-14.78,0-22.17,0-1.17-.16-2.33-.25-3.5l1.38-1.29v27.21Z" fill="#44696f"/><path d="M101.13,125.24,94,120.17l2.38-.77c1.77,1,3.61,1.93,5.27,3.1C103.16,123.57,103.55,124.75,101.13,125.24Z" fill="#e4f0f3"/><path d="M106.83,113c2.44,2.57,2.16,5.54,1.67,9.06-1.13-3-2.07-5.41-3-7.85Z" fill="#dbe7eb"/><path d="M113.78,110.48c.25,1.26.49,2.51.73,3.77l-3.09-3.68Z" fill="#dbe7eb"/><path d="M102.51,89a3.12,3.12,0,0,1,.14.5s-.14.12-.21.18C102.46,89.4,102.49,89.18,102.51,89Z" fill="#bbd8de"/><path d="M132.76,170.07h1.31l-.51,1Z" fill="#5ea5b0"/><path d="M191.33,125.88a2.67,2.67,0,0,1,.16.53c0,.07-.12.15-.19.23Z" fill="#186171"/><path d="M145.64,94.78c0,.23,0,.46,0,.68a2.81,2.81,0,0,1-.21-.47S145.57,94.85,145.64,94.78Z" fill="#186171"/><path d="M181.12,180.37l1-.28,4.52-2.16,1.25-.72c1-.61,2.74-1,1.05-2.65l.88-.64c1.36,0,2.86.37,4.06-.08a47.2,47.2,0,0,0,5.81-3.12l1.18,1c-6.9,4.2-13.74,8.49-20.7,12.57-4.4,2.58-9,4.82-13.48,7.27-2.77,1.52-5.39,3.31-8.23,4.66s-4.87,3.5-7.79,4.7c-4.26,1.74-8.15,4.44-12.1,6.87-.78.47-1.15,1.6-1.71,2.43l-1,.17c-1,.23-2.24.16-3,.74-1.82,1.5-4.62,1.39-5.74,4.42-.46,1.24-4,1.34-6.13,2,.23-.69.45-1.39.68-2.08,3.93-2.18,7.9-4.28,11.75-6.6.68-.42.82-1.73,1.21-2.63,1.36-.16,2.9,0,4-.54,7-3.52,13.31-8.15,20.29-11.66a22.4,22.4,0,0,0,3.41-2.57l9.44-4.48-1.13-2.68C174,185.67,179.15,183.73,181.12,180.37Z" fill="#a4c4c8"/><path d="M121,217.51c2.13-.62,5.67-.72,6.13-2,1.12-3,3.92-2.92,5.74-4.42.71-.58,2-.51,3-.74l4.95,3.1a12,12,0,0,1-2.05,2.09c-3.86,2.35-7.75,4.65-11.71,6.84a17,17,0,0,1-3.5,1.11l-2.5,2.19C121.05,223,121,220.25,121,217.51Z" fill="#2e4d52"/><path d="M113.87,240.25c-1.35,1.46-4.19.2-5,2.73.16-3.82.3-7.64.47-11.46.23-5,.48-9.89.72-14.84l1.81-.08c.24,2.4.44,4.8.72,7.19.4,3.34,1,6.66,1.26,10C114.08,235.94,113.89,238.1,113.87,240.25Z" fill="#2e4d52"/><path d="M134.68,206.2c-.39.9-.53,2.21-1.21,2.63-3.85,2.32-7.82,4.42-11.75,6.6.22-1.48.43-3,.64-4.44L133,205.13Z" fill="#2f585f"/><path d="M111.92,216.6l-1.81.08q.49-6,1-11.94l.8,0Z" fill="#aecfd2"/><path d="M97.73,241.39l3.69-2.25q-.23,3.09-.43,6.16C99.06,244.7,97.48,243.81,97.73,241.39Z" fill="#2e4d52"/><path d="M101.06,227.79c-.06-.66-.11-1.32-.17-2l1.39,2h-1.22Z" fill="#04373e"/><path d="M102.28,227.78l.55,1.3-.45.13-.11-1.43Z" fill="#04373e"/><path d="M134.68,206.2,133,205.13c.46-.6.8-1.42,1.41-1.77,7.61-4.45,15.23-8.88,22.94-13.16.87-.49,2.28,0,3.43,0l1.68,1.21A22.4,22.4,0,0,1,159,194c-7,3.51-13.32,8.14-20.29,11.66C137.58,206.24,136,206,134.68,206.2Z" fill="#2e4d52"/><path d="M162.43,191.43l-1.68-1.21c.38-.95.49-2.35,1.18-2.77,2.16-1.31,4.58-2.15,6.81-3.35a40.92,40.92,0,0,0,4-2.78c-.42.56-.85,1.12-1.25,1.69-.28.41-.53.84-.8,1.26l1.13,2.68Z" fill="#2f585f"/><path d="M170.74,184.27c.27-.42.52-.85.8-1.26.4-.57.83-1.13,1.25-1.69l2.14-1.54,5.17,0,0,0,1,.58C179.15,183.73,174,185.67,170.74,184.27Z" fill="#2e4d52"/><path d="M199.71,170.72a47.2,47.2,0,0,1-5.81,3.12c-1.2.45-2.7.08-4.06.08l-1.26-.86,6.45-5,1.94.09Z" fill="#2e4d52"/><path d="M186.66,177.93l-4.52,2.16-1.62-3.15.09,0,2.06-1.29a.53.53,0,0,1,.47-.34l1.05.83.45-1.69a.55.55,0,0,1,.49-.27l3.83.36c1.69,1.69,0,2-1.05,2.65l-1.88-.65Z" fill="#2e4d52"/><path d="M189,174.56l-3.83-.36,3.46-1.14,1.25.86Z" fill="#2f585f"/><path d="M184.64,174.47l-.45,1.69-1.05-.83Z" fill="#2f585f"/><path d="M182.67,175.67,180.61,177Z" fill="#2f585f"/><path d="M136.88,210.22c.56-.83.93-2,1.71-2.43,3.95-2.43,7.84-5.13,12.1-6.87,2.92-1.2,5-3.38,7.79-4.7s5.46-3.14,8.23-4.66c4.48-2.45,9.08-4.69,13.48-7.27,7-4.08,13.8-8.37,20.7-12.57,3,.28,5.69,1.16,7.12,4.16q-9,5.09-17.94,10.19c-3.31,1.89-6.57,3.87-9.92,5.68a11.14,11.14,0,0,1-3,.68l-1.29-.33-.11.41,1.06.31c-.16.38-.21.94-.49,1.1-5.45,3.08-11,6.05-16.4,9.19-5.8,3.34-11.51,6.84-17.26,10.27Z" fill="#2e4d52"/><path d="M180.1,179.76l.17-.26-.13.29Z" fill="#2e4d52"/><path d="M84.75,242.73l1.23,1Z" fill="#fb8470"/><path d="M193.72,209.59l2,1.34Z" fill="#a4c4c8"/><path d="M176.33,196.55l.44,1-.91-.46Z" fill="#a4c4c8"/><path d="M136.88,210.22l5.78,3.16-1.85.11-4.95-3.1Z" fill="#79b5be"/><path d="M97.4,246.32l1.83-.24.11.81-1.85.17Z" fill="#2e4d52"/><path d="M114.5,119.46c0,.4,0,.81.07,1.21H114Z" fill="#dbe7eb"/><path d="M112.05,121.06l.71-.27Z" fill="#dbe7eb"/><path d="M137.31,124l1.31-.65Z" fill="#cbe1e6"/><path d="M112.91,117.88l-.37.1-.06-.24Z" fill="#dbe7eb"/><path d="M186.66,177.93l-.63-1.37,1.88.65Z" fill="#2f585f"/><path d="M176.81,192.82l-1.06-.31.11-.41,1.29.33A3.17,3.17,0,0,1,176.81,192.82Z" fill="#a4c4c8"/></g></g></svg>