<svg id="_лой_1" data-name="‘лой_1" xmlns="http://www.w3.org/2000/svg" viewBox="0 0 3200 2000"><rect width="3200" height="2000" fill="#fff"/><path d="M372.25,1818.62s-297.42-83.85-161-467.8S607,1132.51,532.06,796.72C433.21,353.94,851.8,52.83,1312,175.47s336.86,259,877.67,121.67c659.3-167.35,714.91,528.91,562,760.18s417.4,264.62,181.84,761.3Z" fill="#ebf3fa"/><path d="M2451.25,947.59s76.2-155.38,118.82-141.59S2451.25,947.59,2451.25,947.59Z" fill="#cde0fb"/><path d="M2396.44,1017.88S2579,839,2649.93,871.58s-43.24,67.63-86.79,77.16S2396.44,1017.88,2396.44,1017.88Z" fill="#cde0fb"/><path d="M2853.92,1692.36c65.21-42.84,3.27-156.28,3.27-156.28s-152.12-40.95-162.92-63.82,136.89,9.61,136.89,9.61c-10.68-47.68-105.94-146.89-105.94-146.89s-143.67,55.34-148.5,30.51S2706.43,1323,2706.43,1323c-28.08-40.32-93.95-65-93.95-65-102.09-24.32-128.05,108-128.05,108s-50.2,18.11-118.61,5.86h0s-13.05-3.55-33.66-4.75l4,12.2c3.6-.08,7.12,0,10.55.2a.07.07,0,0,1,.06,0h.15c2.16.22,5.23.54,9,1h0c8.52,1.33,14.73,2.08,19.14,2.4h0c26.55,3.66,61.65,10,71.42,18.64a25.2,25.2,0,0,1,4.74-4.45l-4.74,4.45c-37.88,35.53-11.13,142.34,19.86,196.57s39.08,23.52,55.43-16.51-12.16-103.34-8.08-126.14,23.81,2.1,33.53,41.84-22.68,71.83-8.12,136.41,148,73.67,148,73.67c-27.59-38.84-29.15-124.19-15.22-132.05s50.07,107.42,60.41,123.84S2788.71,1735.2,2853.92,1692.36Z" fill="#cde0fb"/><path d="M794.45,1121.63s-96.12-196-149.87-178.58S794.45,1121.63,794.45,1121.63Z" fill="#dfebfd"/><path d="M863.57,1210.3S633.33,984.62,543.86,1025.77s54.54,85.29,109.46,97.31S863.57,1210.3,863.57,1210.3Z" fill="#dfebfd"/><path d="M429.48,1339.86C430.66,1271.29,544,1264,544,1264s101.9,93.76,124,91-71.47-97.17-71.47-97.17c40.44-14.48,158.91,9.67,158.91,9.67s26.39,132.74,47.11,124.66-29.37-116.33-29.37-116.33c43.16,1.91,92.41,39.26,92.41,39.26,66,64.41-20.08,145.88-20.08,145.88s10.14,45.8,51.38,90.86h0s8.76,8,19.34,22.77l-10.94,2.76c-1.63-2.7-3.33-5.29-5.11-7.74l0,0a.76.76,0,0,1-.08-.11c-1.18-1.5-2.86-3.63-4.94-6.22h0c-5-5.7-8.47-10-10.78-13.09l0,0c-15.19-18-147.91,30.85-202.76,33.31s-35.83-18-13.78-48.94,82.48-39.51,97.5-53.26-12.74-16.7-46.84-5.25-42.7,50.61-97.51,70.13-124.26-75.32-124.26-75.32c41.81,2.25,106-36.69,105.25-50.74s-103.33,13.28-120.39,13.32S428.29,1408.43,429.48,1339.86Z" fill="#cde0fb"/><path d="M1582.19,1813.67H772.58a31.88,31.88,0,0,1-31.84-31.93V700.1a31.89,31.89,0,0,1,33-31.91L1614,706.94v1074.8A31.88,31.88,0,0,1,1582.19,1813.67Z" fill="#f99746"/><path d="M1645.88,1813.67h809.6a31.89,31.89,0,0,0,31.85-31.93V700.1a31.9,31.9,0,0,0-33-31.91L1614,706.94v1074.8A31.89,31.89,0,0,0,1645.88,1813.67Z" fill="#f99746"/><path d="M802,715.11l-26.25,21.33a16,16,0,0,0-5.87,12.44V1797.5a15.71,15.71,0,0,0,15.53,15.89H850.8a15.73,15.73,0,0,0,15.5-16.85Z" fill="#aec3ff"/><path d="M2427.62,715.11l26.25,21.33a16,16,0,0,1,5.88,12.44V1797.5a15.71,15.71,0,0,1-15.53,15.89h-65.36a15.74,15.74,0,0,1-15.5-16.85Z" fill="#aec3ff"/><path d="M1584.07,1813.67H822.33c-16.54,0-30-13.81-30-30.85V737.8c0-17.5,14.11-31.49,31.09-30.83l664.89,25.69C1558.51,735.37,1614,794.73,1614,867v915.8C1614,1799.86,1600.62,1813.67,1584.07,1813.67Z" fill="#fff7f0"/><path d="M1641.53,1813.67h766.66c15.19,0,27.5-12.67,27.5-28.31V735.16c0-16-13-28.89-28.53-28.29L1725.6,733.21c-62.28,2.41-111.57,55.1-111.57,119.27v932.88C1614,1801,1626.34,1813.67,1641.53,1813.67Z" fill="#fff7f0"/><rect x="1611.97" y="914.95" width="4.13" height="678.56" fill="#f9dec7"/><path d="M2012.69,847.21a5.45,5.45,0,0,1,.94,5.85s0,0,0,0c-1.44,3.89-6.12,8.2-11.57,12.51-.69.56-1.31,1.06-1.85,1.52l-.42.37-.32.29c-5.07,4.61-3.18,5.69-12.32,15.07-10.41,10.68-17.53,10.82-19.55,9.83-1.7-.85,1.82-6.53,5.72-12.91.19-.31.37-.62.57-.93.52-.85,1-1.71,1.55-2.57,4.57-7.68,3.44-11.31,2.45-22.8-.81-9.34-14.15-52.24-14.15-52.24l19.83-3.27s5.73,34.13,12.26,39.42c3.5,2.82,7.43,2.89,10.8,5l.69.45A25.89,25.89,0,0,1,2012.69,847.21Z" fill="#ffb27d"/><path d="M2012.69,847.21a5.45,5.45,0,0,1,.94,5.85s0,0,0,0c-1.75,3.88-6.32,8.18-11.58,12.47-.69.56-1.3,1.08-1.84,1.56l-.42.37-.32.29c-5.07,4.61-3.18,5.69-12.32,15.07-10.41,10.68-17.53,10.82-19.55,9.83-1.7-.85,1.82-6.53,5.72-12.91a44.05,44.05,0,0,0,18.52-13.45c6.28-7.9,10.51-18.07,14.79-24l.69.45A25.89,25.89,0,0,1,2012.69,847.21Z" fill="#233862"/><path d="M1853.05,833.71c-1.27,6.1-10,5-19.7,2.57s-7.43.4-21.27-1.23-18-6.83-18.42-8.89c-.37-1.83,6.48-2.43,13.84-3.23.92-.09,1.85-.2,2.78-.31,8.3-1,14.41-6.29,22-10.63,7.17-4.11,17.94-21,17.94-21l19,1.64s-10.08,15.08-14,21.64c-2.3,3.86-2.22,9-2,12.94A24.42,24.42,0,0,1,1853.05,833.71Z" fill="#ffb27d"/><path d="M1833.35,836.28c-9.72-2.44-7.43.4-21.27-1.23s-18-6.83-18.42-8.89c-.37-1.83,6.48-2.43,13.84-3.23l.06.15a39.1,39.1,0,0,0,19.81,6.31c9.4.29,19.38-2.33,25.87-2.18a24.42,24.42,0,0,1-.19,6.5C1851.78,839.81,1843.07,838.73,1833.35,836.28Z" fill="#233862"/><path d="M1991.22,816.46s-1.32.86-3.3,1.95a43.55,43.55,0,0,1-8.66,3.77,34.8,34.8,0,0,1-8.91,1.16,33.74,33.74,0,0,1-3.42-.12l-22.76-62.6-4.11-11.31-4.38-12-1.52-4.19-7.41-20.38s18.11-46.45,36.58-24.31a44.8,44.8,0,0,1,6.33,11.44c1.35,3.29,2.63,7,3.85,11,.91,3,1.8,6.2,2.65,9.51,2.3,9,4.34,19,6.12,29C1988.22,782.69,1991.22,816.46,1991.22,816.46Z" fill="#233862"/><path d="M2113.53,717.9l-92.29,3.88c-20.22-4.18-37.28-14.88-48.88-20.62l-2.7-1.34c-4-2-6.68-3.3-7.8-3.54-7-1.46-10.63,10-16.58,24.05-1.22,2.87-2.52,5.83-4,8.83a45.06,45.06,0,0,1-5.63,8.1c-.49.59-1,1.19-1.52,1.81-20.43,23.86-73,68.28-73,68.28l-1.62,0c-3.21-.06-10.38-.35-13.81-1.67a21.12,21.12,0,0,1-4.48-2.32,10.13,10.13,0,0,1-2.13-1.92s62.92-123,95.5-156.53h0c.47-.49.93-1,1.4-1.39,3.55-3.48,6.71-5.78,9.34-6.6,11.1-3.5,82.9.4,82.9.4l2.29-3.73,3.84-.27.66,0,3.19-.24h0l4.42-.31,6.56-.46L2067,631l2.85-.2,32.81-2.34s1.49,3.38,3.52,9c.79,2.19,1.65,4.7,2.54,7.49C2114.54,663.22,2122.12,696.17,2113.53,717.9Z" fill="#2b478b"/><path d="M2134.52,506.15c-16.4-14-28.09-17.46-29.72-39.62-.88-12-17-51.81-44.34-48.33a41.86,41.86,0,0,1-6.89.4,25.51,25.51,0,0,0-13.88,3.49c-13.15,7.69-37.37,78.89-21,103.9a18.15,18.15,0,0,0,13,8.38l2.1,1.18h0c2.94,1.65,6.17,3.46,9.58,5.4,19.3,10.88,44.57,25.27,57.52,32.54h0l2.21,1.25,3.77,2.09c1.51.83,2.4,1.29,2.47,1.29a56,56,0,0,0,8,2.26c6.51,1.35,15.63,2.11,22-2a34.87,34.87,0,0,0,7-6C2159.4,557.62,2162.86,530.33,2134.52,506.15Z" fill="#233862"/><path d="M2053.26,522.49c-.12.07,12.59,4.51,21.13.8,8-3.48,14.19-16.62,14.07-16.63-3.64-.19-7.62-3.41-10.55-24.33l-1.56.54-26.15,9.21s1.83,8.38,3,16.36C2054.18,515.14,2054.69,521.56,2053.26,522.49Z" fill="#ffb27d"/><path d="M2050.2,492.08s1.11,5.87,2.66,14.27c15-2.59,21.33-15.39,23.49-23.48Z" fill="#ed975d"/><path d="M2046.26,500.36s35.72-4.54,32.55-26.75-.69-37.74-23.63-35.78-26.16,11.06-26.91,18.73S2036.88,501,2046.26,500.36Z" fill="#ffb27d"/><path d="M2029.66,444.41s22.71,19.85,38.24,21.55,21.45-3.25,21.45-3.25a60.75,60.75,0,0,1-14.53-20,10.93,10.93,0,0,0-9-6.5C2054.76,435.18,2033.73,434.59,2029.66,444.41Z" fill="#233862"/><path d="M2044,442.75s-7.7,7.33-10.15,12.8c-2.36,5.27-3.14,17.92-1.33,23,0,0-11.75-23.24-4.92-34.45C2034.79,432.18,2044,442.75,2044,442.75Z" fill="#233862"/><path d="M2022.83,574.86c.57,72.26-.11,57.16,7.75,64.07,1.89,1.67,7.24,2.69,14.28,3.2,22.14,1.63,61.12-1.75,62.63-5.83,5.21-14.13,1.63-18.56,6.05-40.22.46-2.3,1-4.8,1.69-7.51,3.66-14.87,7.16-19.92-5.29-43.94-11.28-21.76-23-39.44-24.11-38.81-30.3,17.7-32.63,2.63-32.63,2.63S2022.55,539.61,2022.83,574.86Z" fill="#aec3ff"/><path d="M1991.22,816.46s-1.32.86-3.3,1.95a43.55,43.55,0,0,1-8.66,3.77,34.8,34.8,0,0,1-8.91,1.16,33.74,33.74,0,0,1-3.42-.12l-22.76-62.6,6.67-11.31,17.07-29,5.6-9.51c.91,3,1.8,6.2,2.65,9.51,2.3,9,4.34,19,6.12,29C1988.22,782.69,1991.22,816.46,1991.22,816.46Z" fill="#2b478b"/><path d="M2053.2,508.44s-31.09,5.05-34.83,18.39l-25.75,91.78s15.76,2.95,23.11-4.29,25.85-67.48,25.85-67.48Z" fill="#aec3ff"/><path d="M2044.86,642.13c22.14,1.63,61.12-1.75,62.63-5.83,5.21-14.13,1.63-18.56,6.05-40.22l-10.48-30.17s1.53,33.53-8.41,42.27-40.58,16.73-45.44,24.06A26.92,26.92,0,0,0,2044.86,642.13Z" fill="#95b3ef"/><path d="M2070.34,628.22s-21.82-5-25.36-3.11-12.21,8.92-13.31,11.37,7.87-1.81,10.78-2.57c1.88-.49,6.82,1.27,9.27,2.1,10.29,3.51,16.62,1.79,16.62,1.79Z" fill="#ffb27d"/><path d="M2085.85,505.8s29.33,2,39.39,16.26c14.16,20.05,41.94,105.26,25.6,116.49-18.41,12.64-83.37,2.75-83.37,2.75s-2.09-10.13,1-15,52-12.43,54.31-14.68-27.92-44.23-27.87-51S2085.85,505.8,2085.85,505.8Z" fill="#aec3ff"/><path d="M2043.88,631.19s-4.62,5.87-6.13,6.57a4.54,4.54,0,0,1-2.48.51l3.13-5.53Z" fill="#ffb27d"/><path d="M2045,625.11l-13.36,6.37a2.38,2.38,0,0,0,2.2.87,31.5,31.5,0,0,0,5.78-1.54Z" fill="#ffb27d"/><polygon points="2040.6 644 1935.27 643.25 1904.14 564.24 2009.31 564.98 2040.6 644" fill="#f99746"/><polygon points="1934.06 640.18 2073.15 641.16 2073.12 644.23 1935.27 643.25 1934.06 640.18" fill="#ed7d2b"/><path d="M1962.13,604.05c-.77-2.78.85-5,3.62-5a7.19,7.19,0,0,1,6.42,5.06c.77,2.77-.85,5-3.62,5A7.2,7.2,0,0,1,1962.13,604.05Z" fill="#fff"/><rect x="830.12" y="1668.4" width="703.87" height="144.58" rx="70.81" transform="translate(2364.12 3481.38) rotate(-180)" fill="#2b478b"/><path d="M1219.58,1721.46l-.5,31.59a50.61,50.61,0,0,0,49.8,51.42l373.68,6,.11-6.29a64.41,64.41,0,0,1-34.72-58.21l.18-11.12a64.4,64.4,0,0,1,36.55-57.07v-.13l-373.69-6A50.63,50.63,0,0,0,1219.58,1721.46Z" fill="#f9dec7"/><path d="M1652.35,1813H1258.67c-25.39,0-45.28-31.78-45.28-72.34s19.89-72.33,45.28-72.33h393.68a5.92,5.92,0,0,1,0,11.84H1258.67c-18.13,0-33.45,27.7-33.45,60.49s15.32,60.5,33.45,60.5h393.68a5.92,5.92,0,1,1,0,11.84Z" fill="#1b3770"/><rect x="1276.24" y="1706.82" width="338.55" height="0.93" fill="#e8c2a3"/><rect x="1481.46" y="1720.03" width="128.52" height="0.85" fill="#e8c2a3"/><rect x="1385.77" y="1764.92" width="224.2" height="0.85" fill="#e8c2a3"/><path d="M1318.28,1707.29s17.37,7.27,19.44,31.81,0,37.61,0,37.61l-21-10-21.17,10v-38.36s-.78-31.06-29.67-31.06Z" fill="#f78248"/><rect x="809.51" y="1559.58" width="525.3" height="108.83" rx="46.35" transform="translate(2144.31 3227.98) rotate(180)" fill="#699dee"/><path d="M1100.16,1599.46l-.38,23.75a37.94,37.94,0,0,0,37.17,38.65l278.88,4.48.08-4.73a48.45,48.45,0,0,1-25.91-43.75l.13-8.36a48.45,48.45,0,0,1,27.28-42.9v-.09L1138.54,1562A37.91,37.91,0,0,0,1100.16,1599.46Z" fill="#f9dec7"/><path d="M1423.13,1668.25h-293.8c-18.95,0-33.8-23.88-33.8-54.37s14.85-54.38,33.8-54.38h293.8a4.45,4.45,0,0,1,0,8.9h-293.8c-13.53,0-25,20.83-25,45.48s11.43,45.47,25,45.47h293.8a4.45,4.45,0,0,1,0,8.9Z" fill="#4b87dd"/><rect x="1182.96" y="1588.49" width="212.14" height="0.64" fill="#e8c2a3"/><rect x="1295.6" y="1598.38" width="95.92" height="0.64" fill="#e8c2a3"/><rect x="1224.19" y="1632.13" width="167.32" height="0.64" fill="#e8c2a3"/><path d="M2338.5,1469.35s5.41,16.64,4.94,20.45-3.86,16.82-6.28,20.15-3.62-13.57-5.54-16.11-.39,6.36-1.74,7.19-4.18-6.55-5.39-9.15,3-12.19,3-18.88S2338.5,1469.35,2338.5,1469.35Z" fill="#ffb27d"/><path d="M2211.38,1337.11c-1.5-19.09,19.24-32.17,35.61-22.24.34.2.67.41,1,.62,24.51,15.78,77.4,89.4,81,96.77s14.38,66,14.38,66-13.27,4.86-19.48-.18c0,0-21.53-55.65-24.72-58.43s-86.12-49.32-86.83-66.76C2212.19,1348.32,2211.82,1342.78,2211.38,1337.11Z" fill="#233862"/><rect x="2042.61" y="1279.66" width="21.93" height="110.31" transform="translate(1468.2 3713.09) rotate(-109.2)" fill="#f99746"/><polygon points="1977.27 1361.38 2005.1 1363.3 1997.89 1342.59 1977.27 1361.38" fill="#f9ddbf"/><path d="M2100.75,1308.15h21.93a0,0,0,0,1,0,0v5.55a7.27,7.27,0,0,1-7.27,7.27h-6.93a7.72,7.72,0,0,1-7.72-7.72v-5.1A0,0,0,0,1,2100.75,1308.15Z" transform="translate(1564.57 3741.1) rotate(-109.2)" fill="#f9ddbf"/><path d="M2359.39,1768s9.88,9,8,15.43-10.85,10.68-12.05,18.51-6,12.1-10.37,12.1h-20.68s-3.2-5.51,4.52-7.17,10.62-10.86,10.14-19.41a149.47,149.47,0,0,1,.72-19.94l16.39-3.79Z" fill="#1f4075"/><path d="M2238.14,1791.36s1.77,20.52-2.57,22.66l-55.53-.12s0-6.4,8.92-7.83,24.59-6.64,27.24-18.27S2238.14,1791.36,2238.14,1791.36Z" fill="#1f4075"/><path d="M2191.26,1501.41s2.93,36,6.37,79.23c4.68,58.75,10.3,130.91,10.86,144.59,1,23.74,4.82,61.71,4.82,61.71s9.16,9,27.48,5.22c0,0,16.33-54.21,21-111.57l.21-2.83c4.34-58.39,11.09-181.34,11.09-181.34Z" fill="#f99746"/><path d="M2191.26,1501.41s2.93,36,6.37,79.23l64.16,99.95.21-2.83c4.34-58.39,11.09-181.34,11.09-181.34Z" fill="#ef7e29"/><path d="M2204.63,1505.68s52.79,130.3,87.5,191.54,45.56,78.33,45.56,78.33,19.89-7.84,21.7-13.18c0,0-13.28-118.22-36.52-147-13.14-16.28-28.57-65.15-29.29-82.24s-4.7-50.91-4.7-50.91Z" fill="#f99746"/><path d="M2250.15,1310.21s-35.37,17.94-56.08,12a48.51,48.51,0,0,1,13.71-11.43c-.79-4.12-1.42-7.69-1.8-10.73a97.63,97.63,0,0,1-1.08-11l13.56-11.11,12.86-10.63C2230.87,1296.48,2250.15,1310.21,2250.15,1310.21Z" fill="#ffb27d"/><path d="M2285.28,1492.49c-14.28,8.65-27.8,15.14-43.62,18.79-18.66,4.43-41.6,3.12-49.27,4.29a3.2,3.2,0,0,1-2.24-.56c-.6-.31-4-23.08-7.38-51.81-.15-1.15-.31-2.32-.37-3.49l-.05-.39c-1.32-11.23-2.48-23-3.48-34.86-.82-9.2-1.49-18.3-2-26.85-.59-10.69-.83-20.52-.59-28.6.11-3.69.32-7,.65-9.9,2-16.78,10-28.77,17.57-37.7l6.25-7.12a34.29,34.29,0,0,0,21.64-5.52c7.64-5,15.91-11,17.47-10.08,11.71,6.4,21.2,23.55,28,45.47a250.63,250.63,0,0,1,8.82,42.09c.61,4.71,1.14,9.53,1.54,14.34.08.89.14,1.78.21,2.65.92,13.14,2.42,25.46,4.08,36.45,2.24,14.83,4.79,27.26,6.59,36,.9,4.45,1.59,7.89,2,10.36C2291.51,1488.21,2287.2,1491.29,2285.28,1492.49Z" fill="#2b478b"/><path d="M2231.78,1278.44s-8.7,16.63-25.8,21.57a97.63,97.63,0,0,1-1.08-11l13.56-11.11Z" fill="#ed985f"/><path d="M2198.6,1288.69s34.18,4.89,37-16.11,9.07-34.52-12.63-38.54-27,3.46-29.68,10.25S2189.79,1286.87,2198.6,1288.69Z" fill="#ffb27d"/><path d="M2247.13,1231.05c.3-.36,1-.66,2.59-.78a6.34,6.34,0,0,0-3-.77c-.38-2.2-1.63-6.09-5.45-7a4.76,4.76,0,0,1,2.38,3.39c-4.49-4.43-14-7.54-40.05-5-34.35,3.4-22.58,25.21-18.07,27.74s15.58-4.88,23.89-4.39,10.13,12.46,13,14,1.68-1.3,5.45-3.1,4.27,4.51,3.25,8.64,4.32,9.43,4.32,9.43l5.18-5.8c5.17-5.8,9.68-30,7.17-35.12Z" fill="#2c3a64"/><path d="M2236.27,1370.88s-28.81,21.93-59.36,26.73c-.59-10.69-.83-20.52-.59-28.6Z" fill="#233862"/><path d="M2059.3,1342.59c-.45-.49-6.33-20.13-16.49-18.7-6.63.93-17.46,4.77-14.59,13.51,1.14,3.43,21.34,15.26,21.34,15.26Z" fill="#ffb27d"/><path d="M2239.84,1328.52c16.43,9.83,15.1,34.31-2.48,41.91l-1.08.45c-27.06,10.86-107.56,12.06-125.83,10.06-19.81-2.17-62.18-26.51-62.18-26.51s3.73-13.64,11.43-15.78c0,0,44.76,12.68,62,13.67,10.88.62,90.07-41.67,104.71-32.15C2230.23,1322.69,2235,1325.6,2239.84,1328.52Z" fill="#2b478b"/><polygon points="1846.19 1717.53 1663.05 1726.54 1663.05 1543.4 1846.19 1534.4 1846.19 1717.53" fill="#f9dec7"/><polygon points="1676.81 1704.94 1730.9 1604.75 1770.68 1657.05 1790.54 1634.36 1832.63 1697.28 1676.81 1704.94" fill="#fff7f0"/><path d="M1756.68,1589.49a14.86,14.86,0,0,1,14-14.69,13.2,13.2,0,0,1,14,13.31,14.87,14.87,0,0,1-14,14.69A13.2,13.2,0,0,1,1756.68,1589.49Z" fill="#fff7f0"/><polygon points="2390.41 1017.27 2126.57 1030.23 2126.57 766.39 2390.41 753.43 2390.41 1017.27" fill="#f9dec7"/><polygon points="2146.38 999.12 2224.32 854.79 2281.62 930.13 2310.23 897.45 2370.87 988.09 2146.38 999.12" fill="#fff7f0"/><path d="M2261.45,832.79a21.42,21.42,0,0,1,20.17-21.16,19,19,0,0,1,20.17,19.18A21.41,21.41,0,0,1,2281.62,852,19,19,0,0,1,2261.45,832.79Z" fill="#fff7f0"/><polygon points="1921.05 1216.33 1663.05 1229.01 1663.05 1213.98 1921.05 1201.3 1921.05 1216.33" fill="#f99746"/><polygon points="1801.37 1252.63 1663.05 1259.43 1663.05 1251.91 1801.37 1245.12 1801.37 1252.63" fill="#f9dec7"/><polygon points="1760.83 1279.62 1663.05 1284.43 1663.05 1276.91 1760.83 1272.11 1760.83 1279.62" fill="#f9dec7"/><polygon points="1877.58 1273.88 1779.81 1278.69 1779.81 1271.18 1877.58 1266.37 1877.58 1273.88" fill="#f9dec7"/><polygon points="2010.65 1267.35 1891.52 1273.2 1891.52 1265.69 2010.65 1259.83 2010.65 1267.35" fill="#f9dec7"/><polygon points="1747.93 1304.74 1663.05 1308.92 1663.05 1301.4 1747.93 1297.23 1747.93 1304.74" fill="#f9dec7"/><polygon points="1849.3 1299.76 1764.41 1303.93 1764.41 1296.42 1849.3 1292.25 1849.3 1299.76" fill="#f9dec7"/><polygon points="1964.82 1294.09 1861.39 1299.17 1861.39 1291.65 1964.82 1286.57 1964.82 1294.09" fill="#f9dec7"/><polygon points="1921.05 1046.75 1663.05 1059.43 1663.05 1044.4 1921.05 1031.72 1921.05 1046.75" fill="#f99746"/><polygon points="1801.37 1083.05 1663.05 1089.85 1663.05 1082.33 1801.37 1075.53 1801.37 1083.05" fill="#f9dec7"/><polygon points="1966.53 1074.93 1828.22 1081.73 1828.22 1074.21 1966.53 1067.42 1966.53 1074.93" fill="#f9dec7"/><polygon points="1760.83 1110.04 1663.05 1114.85 1663.05 1107.33 1760.83 1102.53 1760.83 1110.04" fill="#f9dec7"/><polygon points="1877.58 1104.3 1779.81 1109.11 1779.81 1101.59 1877.58 1096.79 1877.58 1104.3" fill="#f9dec7"/><polygon points="2010.65 1097.76 1891.52 1103.62 1891.52 1096.1 2010.65 1090.25 2010.65 1097.76" fill="#f9dec7"/><polygon points="1747.93 1135.16 1663.05 1139.33 1663.05 1131.82 1747.93 1127.65 1747.93 1135.16" fill="#f9dec7"/><polygon points="1849.3 1130.18 1764.41 1134.35 1764.41 1126.84 1849.3 1122.67 1849.3 1130.18" fill="#f9dec7"/><polygon points="1964.82 1124.5 1861.39 1129.59 1861.39 1122.07 1964.82 1116.99 1964.82 1124.5" fill="#f9dec7"/><polygon points="2306.57 1067.66 2125.08 1076.58 2125.08 1066.01 2306.57 1057.09 2306.57 1067.66" fill="#f99746"/><polygon points="2222.38 1093.2 2125.08 1097.98 2125.08 1092.69 2222.38 1087.91 2222.38 1093.2" fill="#f9dec7"/><polygon points="2338.57 1087.49 2241.27 1092.27 2241.27 1086.98 2338.57 1082.2 2338.57 1087.49" fill="#f9dec7"/><polygon points="2193.86 1112.18 2125.08 1115.57 2125.08 1110.28 2193.86 1106.9 2193.86 1112.18" fill="#f9dec7"/><polygon points="2276 1108.15 2207.22 1111.53 2207.22 1106.24 2276 1102.86 2276 1108.15" fill="#f9dec7"/><polygon points="2369.61 1103.55 2285.8 1107.67 2285.8 1102.38 2369.61 1098.26 2369.61 1103.55" fill="#f9dec7"/><polygon points="2184.8 1129.86 2125.08 1132.79 2125.08 1127.51 2184.8 1124.57 2184.8 1129.86" fill="#f9dec7"/><polygon points="2256.1 1126.35 2196.39 1129.29 2196.39 1124 2256.1 1121.07 2256.1 1126.35" fill="#f9dec7"/><polygon points="2337.37 1122.36 2264.61 1125.93 2264.61 1120.65 2337.37 1117.07 2337.37 1122.36" fill="#f9dec7"/><polygon points="1921.05 1393.23 1663.05 1405.91 1663.05 1390.88 1921.05 1378.2 1921.05 1393.23" fill="#f99746"/><polygon points="1801.37 1429.53 1663.05 1436.33 1663.05 1428.82 1801.37 1422.02 1801.37 1429.53" fill="#f9dec7"/><polygon points="1966.53 1421.41 1828.22 1428.21 1828.22 1420.7 1966.53 1413.9 1966.53 1421.41" fill="#f9dec7"/><polygon points="1760.83 1456.52 1663.05 1461.33 1663.05 1453.82 1760.83 1449.01 1760.83 1456.52" fill="#f9dec7"/><polygon points="1877.58 1450.79 1779.81 1455.59 1779.81 1448.08 1877.58 1443.27 1877.58 1450.79" fill="#f9dec7"/><polygon points="2010.65 1444.25 1891.52 1450.1 1891.52 1442.59 2010.65 1436.73 2010.65 1444.25" fill="#f9dec7"/><polygon points="1747.93 1481.65 1663.05 1485.82 1663.05 1478.3 1747.93 1474.13 1747.93 1481.65" fill="#f9dec7"/><polygon points="1849.3 1476.66 1764.41 1480.84 1764.41 1473.32 1849.3 1469.15 1849.3 1476.66" fill="#f9dec7"/><polygon points="1964.82 1470.99 1861.39 1476.07 1861.39 1468.56 1964.82 1463.47 1964.82 1470.99" fill="#f9dec7"/><polygon points="2092.7 1628.88 1893.42 1638.67 1893.42 1623.64 2092.7 1613.85 2092.7 1628.88" fill="#f99746"/><polygon points="2000.25 1663.84 1893.42 1669.09 1893.42 1661.58 2000.25 1656.33 2000.25 1663.84" fill="#f9dec7"/><polygon points="2127.83 1657.57 2021 1662.82 2021 1655.31 2127.83 1650.06 2127.83 1657.57" fill="#f9dec7"/><polygon points="1968.94 1690.38 1893.42 1694.09 1893.42 1686.58 1968.94 1682.87 1968.94 1690.38" fill="#f9dec7"/><polygon points="2059.13 1685.95 1983.6 1689.66 1983.6 1682.15 2059.13 1678.43 2059.13 1685.95" fill="#f9dec7"/><polygon points="2161.91 1680.9 2069.89 1685.42 2069.89 1677.9 2161.91 1673.38 2161.91 1680.9" fill="#f9dec7"/><polygon points="1958.98 1715.36 1893.42 1718.58 1893.42 1711.07 1958.98 1707.84 1958.98 1715.36" fill="#f9dec7"/><polygon points="2037.28 1711.51 1971.71 1714.73 1971.71 1707.22 2037.28 1703.99 2037.28 1711.51" fill="#f9dec7"/><polygon points="2126.51 1707.12 2046.62 1711.05 2046.62 1703.54 2126.51 1699.61 2126.51 1707.12" fill="#f9dec7"/><polygon points="1519.46 1107.47 1231.95 1097.03 1231.95 809.52 1519.46 819.96 1519.46 1107.47" fill="#f9dec7"/><polygon points="1253.55 1064.97 1338.47 914.95 1400.92 1002.39 1432.1 969.44 1498.17 1073.85 1253.55 1064.97" fill="#fff7f0"/><path d="M1378.94,894.44a21,21,0,0,1,22-21.18,23,23,0,0,1,22,22.78,21,21,0,0,1-22,21.18A23,23,0,0,1,1378.94,894.44Z" fill="#fff7f0"/><polygon points="1485.11 1220.85 1227.12 1211.48 1227.12 1196.45 1485.11 1205.82 1485.11 1220.85" fill="#f99746"/><polygon points="1365.43 1246.92 1227.12 1241.9 1227.12 1234.39 1365.43 1239.41 1365.43 1246.92" fill="#f9dec7"/><polygon points="1324.89 1270.45 1227.12 1266.9 1227.12 1259.39 1324.89 1262.93 1324.89 1270.45" fill="#f9dec7"/><polygon points="1441.65 1274.69 1343.87 1271.14 1343.87 1263.63 1441.65 1267.17 1441.65 1274.69" fill="#f9dec7"/><polygon points="1574.71 1279.52 1455.58 1275.19 1455.58 1267.68 1574.71 1272.01 1574.71 1279.52" fill="#f9dec7"/><polygon points="1312 1294.47 1227.12 1291.39 1227.12 1283.87 1312 1286.95 1312 1294.47" fill="#f9dec7"/><polygon points="1413.36 1298.15 1328.48 1295.07 1328.48 1287.55 1413.36 1290.63 1413.36 1298.15" fill="#f9dec7"/><polygon points="1528.89 1302.34 1425.46 1298.59 1425.46 1291.07 1528.89 1294.83 1528.89 1302.34" fill="#f9dec7"/><polygon points="1485.11 1397.75 1227.12 1388.38 1227.12 1373.35 1485.11 1382.72 1485.11 1397.75" fill="#f99746"/><polygon points="1365.43 1423.82 1227.12 1418.8 1227.12 1411.29 1365.43 1416.31 1365.43 1423.82" fill="#f9dec7"/><polygon points="1530.6 1429.82 1392.28 1424.8 1392.28 1417.28 1530.6 1422.31 1530.6 1429.82" fill="#f9dec7"/><polygon points="1324.89 1447.35 1227.12 1443.8 1227.12 1436.29 1324.89 1439.84 1324.89 1447.35" fill="#f9dec7"/><polygon points="1441.65 1451.59 1343.87 1448.04 1343.87 1440.53 1441.65 1444.08 1441.65 1451.59" fill="#f9dec7"/><polygon points="1574.71 1456.42 1455.58 1452.1 1455.58 1444.58 1574.71 1448.91 1574.71 1456.42" fill="#f9dec7"/><polygon points="1312 1471.37 1227.12 1468.29 1227.12 1460.77 1312 1463.86 1312 1471.37" fill="#f9dec7"/><polygon points="1413.36 1475.05 1328.48 1471.97 1328.48 1464.45 1413.36 1467.54 1413.36 1475.05" fill="#f9dec7"/><polygon points="1528.89 1479.24 1425.46 1475.49 1425.46 1467.97 1528.89 1471.73 1528.89 1479.24" fill="#f9dec7"/><polygon points="1118.53 781.68 860.53 772.31 860.53 757.29 1118.53 766.65 1118.53 781.68" fill="#f99746"/><polygon points="998.84 807.75 860.53 802.73 860.53 795.22 998.84 800.24 998.84 807.75" fill="#f9dec7"/><polygon points="1164.01 813.75 1025.7 808.73 1025.7 801.22 1164.01 806.24 1164.01 813.75" fill="#f9dec7"/><polygon points="958.3 831.28 860.53 827.73 860.53 820.22 958.3 823.77 958.3 831.28" fill="#f9dec7"/><polygon points="1075.06 835.52 977.29 831.97 977.29 824.46 1075.06 828.01 1075.06 835.52" fill="#f9dec7"/><polygon points="1208.13 840.35 1088.99 836.03 1088.99 828.51 1208.13 832.84 1208.13 840.35" fill="#f9dec7"/><polygon points="945.41 855.3 860.53 852.22 860.53 844.71 945.41 847.79 945.41 855.3" fill="#f9dec7"/><polygon points="1046.78 858.98 961.89 855.9 961.89 848.39 1046.78 851.47 1046.78 858.98" fill="#f9dec7"/><polygon points="1162.3 863.18 1058.87 859.42 1058.87 851.91 1162.3 855.66 1162.3 863.18" fill="#f9dec7"/><path d="M985.6,477.62l22.64-5.38,74.53,101-25.67,6.1L1041,556.77,993.76,568l-4.26,27.45-25,6ZM1027,537.16l-23.42-32.66-6.23,39.71Z" fill="#afcdfb"/><path d="M1112.57,411.48c3.23-32.45,30.33-56.6,65.39-53.12,21.52,2.14,32.78,11.49,42.34,23l-16.72,15.79c-8-8.86-15-14.34-28.09-15.63-19.24-1.91-34.69,12.69-36.66,32.58-1.95,19.57,10,37.22,29.54,39.17,13,1.29,21.55-3.13,31.33-10.4L1214,461.56c-13,11.39-26.71,16.95-48.73,14.76C1131.66,473,1109.29,444.58,1112.57,411.48Z" fill="#afcdfb"/><path d="M1458.34,380.5l52.57-8.49c12.95-2.08,23.71-.17,31.23,5.26,6,4.34,9.62,10.23,10.93,18.32,2.06,12.78-3.59,21-10.94,26.83,13.91,2.9,23.23,9.19,25.73,24.72,3.35,20.71-11.81,33.78-37.37,37.91l-53.87,8.7ZM1513,418.66c11-1.78,17.38-6.46,16-15.2-1.2-7.44-7.7-10.7-18.22-9l-24.59,4,3.87,23.94Zm14,44.55c11-1.78,17-6.73,15.59-15.47-1.22-7.6-7.64-11.38-20.42-9.31l-28.8,4.65,4,24.91Z" fill="#afcdfb"/><path d="M1261.06,569.72c2.77-32.49,30.34-57,65-54,20.58,1.75,32.51,8.35,43.57,19.49L1352.12,553c-8.19-8.1-15.67-13-28.9-14.13-18.28-1.56-34.19,13.37-35.87,33.13-1.78,20.9,11.29,37.47,31.53,39.19,9.15.78,17.51-.82,24.26-4.85l1.39-16.32-25.31-2.16,1.85-21.71,49.64,4.22L1366.49,620a74.53,74.53,0,0,1-50.37,14C1280.53,630.91,1258.16,603.85,1261.06,569.72Z" fill="#afcdfb"/><path d="M2654.62,692.44a62.6,62.6,0,0,1-35.39,2.57c-34.63-7.33-54-38.4-47.2-70.62,6.75-31.91,37.45-52.71,72.08-45.39s54,38.4,47.2,70.62a58,58,0,0,1-16.76,30.12L2684,692l-19.41,14.15Zm-14.86-20.06-15-19.41,19.44-14.31,14.91,20.57a38.56,38.56,0,0,0,6.37-15.07c4.07-19.24-6.65-38.25-26.53-42.46s-37,8.59-41.13,28.15c-4.07,19.24,6.65,38.25,26.53,42.46A37,37,0,0,0,2639.76,672.38Z" fill="#afcdfb"/><path d="M2396.44,450.15,2419.5,447l62.75,62.77-9.48-70,24.68-3.34,15.4,113.67L2491.58,553l-64.84-64.8,9.79,72.26-24.68,3.34Z" fill="#afcdfb"/><path d="M1648.38,510.42l26.89,2.8,15.61,79.71L1724.53,518l21.51,2.24,17.53,80.24,31.67-74.8,26.24,2.73-50.9,110.86L1748.74,637l-18-77.33-33.51,72-21.84-2.27Z" fill="#afcdfb"/><path d="M469.59,1780a32.55,32.55,0,0,0,.25,4.09,33.52,33.52,0,0,0,33.3,29.46H975a33.56,33.56,0,1,0,0-67.11H503.14A33.55,33.55,0,0,0,469.59,1780Z" fill="#f78248"/><path d="M505.58,1740.33H667.37a5.17,5.17,0,0,0,5.15-5.15h0a5.17,5.17,0,0,0-5.15-5.15H505.58a5.17,5.17,0,0,0-5.15,5.15h0A5.17,5.17,0,0,0,505.58,1740.33Z" fill="#f78248"/><rect x="514.52" y="1740.33" width="17.54" height="6.07" transform="translate(1046.57 3486.73) rotate(180)" fill="#ea642f"/><path d="M473.66,1796a33.58,33.58,0,0,0,29.48,17.5h100V1796Z" fill="#ea642f"/><path d="M1071,1770.13v19.66a23.72,23.72,0,0,1-23.72,23.72H555.78a23.72,23.72,0,0,1-22.9-17.5,24.06,24.06,0,0,1-.82-6.22v-19.66a23.72,23.72,0,0,1,23.72-23.73h491.54A23.72,23.72,0,0,1,1071,1770.13Z" fill="#f99746"/><path d="M1070.21,1796a23.7,23.7,0,0,1-22.89,17.5H555.78a23.72,23.72,0,0,1-22.9-17.5Z" fill="#ef873a"/><path d="M1022.22,1780.08c0,10.42,3.79,19.74,9.76,25.91.14.13.27.27.4.41a23.81,23.81,0,0,0,16.84,7.35c10,0,34.62-15,49.9-25,7.62-5,12.91-8.69,12.91-8.69s-5.29-3.72-12.91-8.69c-15.28-10-39.95-25-49.9-25a22.2,22.2,0,0,0-8.26,1.6,27,27,0,0,0-11.38,9,37,37,0,0,0-6.83,16.42,1.66,1.66,0,0,0,0,.22A41.24,41.24,0,0,0,1022.22,1780.08Z" fill="#cde0fb"/><path d="M1022.22,1780.08c0,10.42,3.79,19.74,9.76,25.91l75.66-26-84.92-6.34A41.24,41.24,0,0,0,1022.22,1780.08Z" fill="#a6c7ed"/><path d="M1029.58,1757l75.48,20.61L1041,1748A27,27,0,0,0,1029.58,1757Z" fill="#e3f0ff"/><path d="M1094.2,1780.08c0,4,2,7.42,4.92,8.69,7.62-5,12.91-8.69,12.91-8.69s-5.29-3.72-12.91-8.69C1096.25,1772.65,1094.2,1776.06,1094.2,1780.08Z" fill="#f99746"/><path d="M875,1815.73h0a8.72,8.72,0,0,0,7.92-5.5l203.37-624.82c1-3.06-.93-5.56-4.31-5.58h0a8.7,8.7,0,0,0-7.91,5.5L870.69,1810.16C869.7,1813.21,871.63,1815.71,875,1815.73Z" fill="#233862"/><path d="M711.09,1814.77h0a8.7,8.7,0,0,0,7.92-5.5l203.37-624.82c1-3.06-.93-5.55-4.31-5.57h0a8.69,8.69,0,0,0-7.91,5.5L706.78,1809.2C705.79,1812.25,707.72,1814.75,711.09,1814.77Z" fill="#233862"/><path d="M887.58,1271.51l164.59,1a8.22,8.22,0,0,0,7.47-5.19h0c.94-2.87-.89-5.24-4.07-5.26l-164.59-1a8.24,8.24,0,0,0-7.47,5.19h0C882.57,1269.13,884.4,1271.49,887.58,1271.51Z" fill="#233862"/><path d="M852.07,1380.6l164.59,1a8.21,8.21,0,0,0,7.47-5.19h0c.94-2.87-.89-5.24-4.07-5.26l-164.59-1a8.25,8.25,0,0,0-7.47,5.19h0C847.06,1378.22,848.9,1380.58,852.07,1380.6Z" fill="#233862"/><path d="M817.87,1485.67l164.59,1a8.23,8.23,0,0,0,7.47-5.19h0c.94-2.87-.89-5.24-4.06-5.26l-164.6-1a8.25,8.25,0,0,0-7.47,5.19h0C812.87,1483.29,814.7,1485.65,817.87,1485.67Z" fill="#233862"/><path d="M779.37,1604l164.59,1a8.22,8.22,0,0,0,7.47-5.2h0c.94-2.87-.89-5.24-4.07-5.26l-164.59-1a8.26,8.26,0,0,0-7.47,5.2h0C774.37,1601.57,776.2,1603.94,779.37,1604Z" fill="#233862"/><path d="M739.07,1727.76l164.59,1a8.25,8.25,0,0,0,7.48-5.19h0c.93-2.88-.9-5.24-4.07-5.26l-164.6-1a8.23,8.23,0,0,0-7.47,5.19h0C734.07,1725.37,735.9,1727.74,739.07,1727.76Z" fill="#233862"/><path d="M1043.49,1043.93s1.94-4.38,3.2-6.45,6.65-8.15,7.57-6.77,4.58,10.63,2.63,13.22.13,7.1-9.56,9.83Z" fill="#ffb27d"/><path d="M935.84,1016.29s49.58,41.39,68.92,37.56c15.12-3,38.33-10.95,38.33-10.95l4.64,11.87s-20.82,28.23-42.51,28.41c-33.91.29-59-14.68-59-14.68Z" fill="#ef7e29"/><path d="M848.87,1452.9s1.44,23.22,5.93,23.55c.6,0,22.79,0,22.79,0l28.32-.17s-.18-6.82-8.46-8.26-22.14-7.27-27.16-18.21C865,1438.35,848.87,1452.9,848.87,1452.9Z" fill="#1c3d72"/><path d="M847.24,1454.51s8.61,2.88,15.33,2.88a56.3,56.3,0,0,0,14.31-2s1.63-15.68,10.55-50.22c4.67-18.11,11.35-41.38,20.86-70.31,26.27-80,34.26-126.71,35-131.14,0-.24.05-.35.05-.35l-.08,0-80.78-35.47s10,110.19-2.75,152.48a176.83,176.83,0,0,0-4.62,20.26C847.05,1386.5,847.24,1454.51,847.24,1454.51Z" fill="#2b478b"/><path d="M887.43,1405.13c4.67-18.11,11.35-41.38,20.86-70.31,26.27-80,34.26-126.71,35-131.14l0-.39-80.78-35.47s10,110.19-2.75,152.48C857.93,1326.21,887.43,1405.13,887.43,1405.13Z" fill="#233862"/><path d="M912,1452.9s1.44,23.22,5.93,23.55c.6,0,22.79,0,22.79,0l28.32-.17s-.18-6.82-8.46-8.26-22.14-7.27-27.16-18.21C928.11,1438.35,912,1452.9,912,1452.9Z" fill="#1c3d72"/><path d="M957.76,1170.42s1,71.4-11.31,159.06-8.16,124.88-8.16,124.88-8.49,2.75-11.92,3a54.16,54.16,0,0,1-17.67-2s-17.68-87.7-12.61-131.58-24.22-150.57-24.22-150.57Z" fill="#2b478b"/><path d="M900.48,1003.34l15.77,10.34,14.36-4.07c2.62-3.74,3.32-11,3.36-17.21a105.65,105.65,0,0,0-.57-11.47l-21.27-9.39-7.94-3.5c0,.12.62,6.52.71,7.45C906.38,992.07,900.48,1003.34,900.48,1003.34Z" fill="#ffb27d"/><path d="M958.12,1190.27c-19.63,19-93.9,15.76-98.48-5.12s5-177.72,38.52-187.57c7-2,44.14,10,44.14,10a235.41,235.41,0,0,1,9.67,34.7c.74,3.78,2.91,43.86,4.53,81.36.76,17.54,1.4,34.51,1.73,46.94C958.52,1182.21,958.54,1189.85,958.12,1190.27Z" fill="#f99746"/><path d="M906.49,975.79C910.8,983.08,926,989.47,934,992.4a105.65,105.65,0,0,0-.57-11.47l-21.27-9.39C907.43,971.48,904.56,972.53,906.49,975.79Z" fill="#fca56b"/><path d="M941.43,979.63s-34.28,10.7-40.61-10.75-15-34.51,6.6-42.25,28.31-.81,32.16,5.84S950.18,976.3,941.43,979.63Z" fill="#ffb27d"/><path d="M938.23,930.4s-2.18,25-7.34,23.87-10.85-3.4-10.09,4.13-5,20.42-12.46,20.39c-16-.07-33.31-41-28.94-48.8C892,907.58,956.46,903.06,938.23,930.4Z" fill="#163560"/><path d="M933.19,998.12c-.44-.18-25.52-11.43-28.45-10.46s-6.58,9.92-6.58,9.92l44.15,10S938.83,1000.5,933.19,998.12Z" fill="#ef7e29"/><path d="M1089.29,1119.59,948.74,1251.92c-2.76,2.6-6.23,3.42-7.72,1.84l-4.75-5c-1.49-1.58-.45-5,2.3-7.6l140.56-132.33c2.75-2.59,6.22-3.42,7.72-1.83l4.74,5C1093.08,1113.58,1092.05,1117,1089.29,1119.59Z" fill="#1f4d84"/><path d="M1010.42,1193.85l-61.68,58.07c-2.76,2.6-6.23,3.42-7.72,1.84l-4.75-5c-1.49-1.58-.45-5,2.3-7.6l61.68-58.07Z" fill="#f78248"/><path d="M1057,1069.62a110.17,110.17,0,1,0,182.59-110.71c-.56-.56-1.14-1.12-1.73-1.66A110.17,110.17,0,0,0,1057,1069.62ZM1088.47,968a101.48,101.48,0,1,1,4.37,143.43A101.37,101.37,0,0,1,1088.47,968Z" fill="#1f4d84"/><g opacity="0.5"><path d="M1236.27,1107a101.47,101.47,0,1,1-4.37-143.42A101,101,0,0,1,1236.27,1107Z" fill="#b3cff9"/></g><path d="M958.23,1170.56c-77.45-55.18-71-128.82-71-128.82,28.31,16,56.39,51.26,69.28,81.88C957.26,1141.16,957.9,1158.13,958.23,1170.56Z" fill="#ef7e29"/><path d="M1034.66,1145.43c5.46-1.26,9.13-5.39,9.9-6.11,0,0,2.32.16-.39,5.13-.22.42-.73,1.48-1.11,2.24a.48.48,0,0,0,.41.69c3.15.24,6.32-1,12.39.26.84.17,1.08,2.18,1.05,3a7.76,7.76,0,0,1-1.63,5.28c-1,1.3-3.71,2.68-9.79,5.13-2.31.93-8.94.23-15.14-1.9l-5-2.3,1.54-9.21,1.24.26C1030.15,1148.35,1032.6,1145.94,1034.66,1145.43Z" fill="#f99746"/><path d="M911.25,1007.56s-69.58,13.25,20.48,114c14.4,16.12,92.22,37.1,92.22,37.1s7.89-6.71,3.92-12.15c0,0-53.59-38.91-65.37-45.09-5.31-2.79-20.59-62.11-29.23-76.39S911.25,1007.56,911.25,1007.56Z" fill="#f99746"/><path d="M1045.37,1045.15a35.21,35.21,0,0,0,2.72-6.64c.45-2.3,3.31-9,4.5-10.17.47-.47,2,.14,2.21,2.17a11.7,11.7,0,0,1-1.12,4.4c-1.24,3.11-1,7.34-1.47,8.74C1051.13,1047.16,1045.37,1045.15,1045.37,1045.15Z" fill="#ffb27d"/><path d="M2987.54,1824.1l-2792.63-1a3.79,3.79,0,0,1-3.77-3.78v-3a3.79,3.79,0,0,1,3.78-3.78l2792.62,1a3.79,3.79,0,0,1,3.78,3.78v3A3.79,3.79,0,0,1,2987.54,1824.1Z" fill="#2e3552"/></svg>