<svg xmlns="http://www.w3.org/2000/svg" viewBox="0 0 413.76 265.02"><g id="Layer_2" data-name="Layer 2"><g id="Layer_1-2" data-name="Layer 1"><path d="M323,71l1.39,1.54q1,2.22,1.94,4.44l.05,38.84v36.55l0,5.88,0,56.54v5.38h10.51l-2.2,9.86-.79.88-.65.62-.65.54-.91.34c-.33.42-.66.83-1,1.24l-1.44,0a19.62,19.62,0,0,0-3.27-.56q-91.62,0-183.24,0,4.17-10.34,8.36-20.67,79.74,0,159.5,0a17.33,17.33,0,0,0,3.55-.76c4.8,0,5.06-.22,5.18-5.13,0-.63,0-1.26,0-1.9,0-41.59-.05-83.18.09-124.77,0-3.76-1.14-4.56-4.71-4.55q-111.27.15-222.53,0c-3.35,0-4.28.82-4.26,4.21.13,28.28.07,56.55.07,84.83l-6.21-1.53c.36-.87.52-2.28,1.12-2.5,3.89-1.47,3.62-4.42,3.12-7.61-.69-4.3-1.28-8.62-1.92-12.92.21-2.66.55-5.31.57-8,0-.81-.82-1.62-1.27-2.43a13.2,13.2,0,0,1-.76-3.25q.52-26.67,1.17-53.34l0,0L85.3,71.3l0,0,1.85-1.1h0q57.24,0,114.48.07c1.71,0,3.4.79,5.11,1.18a1.6,1.6,0,0,0,.77-.1c1.47-.37,2.94-1.08,4.42-1.08q51.53-.09,103.07-.07a30,30,0,0,0,4.38-.62ZM180.51,218.83c1.17,3.87,3.21,5.29,7.05,5.22,12.78-.25,25.57-.22,38.36,0,3.79.06,5.09-1.75,5.74-5.2Z" transform="translate(0)" fill="#3a5b65"/><path d="M151.13,212.51q-4.19,10.34-8.36,20.67c0,.24,0,.49.06.73h0l-.69.3-1,2.68c-2.08,2-1.27,6.27-5.23,6.88-4.66-1.1-9.43-3.91-13.74.84a13.71,13.71,0,0,1-13-.3c-6.33,8.53-15.19,11.23-25,11.92l-1.48,0-.77,0c-6.48-.37-12.09-2.5-16-8a28.31,28.31,0,0,1,2.26-2.83q14.16-13.74,28.36-27.42l8.26-6.05a51,51,0,0,0,4.88-1.84c8.57-4.29,16.94-9,25.73-12.81,3.21-1.38,7.42-1,11.08-.55,3.44.41,5.53,3.08,5.54,6.68,0,2.76-.46,5.51-.72,8.27ZM129,215.67l.09-.9-14,.67,0,.91Zm-22.34,4c.38.22.61.46.74.41s.26-.35.39-.54Zm6-2.14-.58-.05c.09.08.18.2.27.21S112.52,217.58,112.63,217.52Z" transform="translate(0)" fill="#1e3037"/><path d="M17,146.16c-3-4.57-5.62-8.5-8.24-12.43-.56-.84-1.51-1.58-1.67-2.48a49.66,49.66,0,0,1-.41-6c1.88-.08,3.85-.55,5.64-.16,3.47.75,4.31,0,4-3.36-.63-6.52-1-13.06-1.36-19.59a4.75,4.75,0,0,1,.65-2.9c1-1.43,2.38-3.57,3.68-3.64s3.63,1.77,4,3.17a79.62,79.62,0,0,1,2.19,13A87.93,87.93,0,0,1,25.51,122c-.05,2.94.82,3.56,3.65,2.23,1.67-.79,4.42-1.32,5.71-.47,2.2,1.45,1.21,4,.05,6.12-2.67,5-5.21,10-8.36,16.09,2.92-.7,4.77-1.42,6.65-1.51,2.14-.1,5.14-.39,6.22.81s.53,4.29-.24,6.16c-1.15,2.75-3.15,5.15-4.77,7.7-.49.78-.93,1.6-1.39,2.39l.61.81A49,49,0,0,1,40.07,160c1.44-.33,3.88-.45,4.42.34a5.76,5.76,0,0,1,.31,4.87c-4.3,8.88-11.7,14.72-20.09,19.46a2.73,2.73,0,0,1-2.1,0A56.79,56.79,0,0,1,1.8,169.28a8.4,8.4,0,0,1-1.35-2.69c-1.32-3.66.31-5.68,4.16-4.94,2.53.48,5,1.39,8.1,1.37-.78-1.1-1.54-2.22-2.34-3.3-2.09-2.83-4.54-5.45-6.23-8.5-1.85-3.35-.23-5.64,3.64-5.64C10.51,145.59,13.23,145.91,17,146.16Z" transform="translate(0)" fill="#ececec"/><path d="M225.78,41.4l-1.8-.31a27,27,0,0,0-3.22-1.81c-7.25-2.86-14.53-5.66-21.81-8.47-4.87-1.88-4.88-2.06-2.93-7,2.25-5.73,4.32-11.53,6.47-17.3l-.09-.11L205.89,0c3.05.88,5.6,1.45,8,2.35C221.47,5.16,229,8,236.49,11c4.39,1.77,8.63,3.89,12.93,5.85l-.21,1.46q-1.11,3-2.23,6.08h0a27.5,27.5,0,0,0-1.4,2.62q-3.5,8.59-6.93,17.22c-.85-1.86-1.71-3.72-3-6.48.31,3.1.53,5.18.74,7.27ZM213.6,13.07a1.73,1.73,0,0,0-.14-.31s-.14,0-.22-.06l.36.36,1.52,3.06.3,2.15,1-.3-1.27-1.86Zm26.65,6.85-19.53,5.7.39,1.27a53.47,53.47,0,0,1,6.51-2.08c1.34-.26,2.83.26,4.26.44.67,3.17,1.33,6.34,2,9.51l1.47-.41-3.48-9.1c.77-.9,1.38-2.1,2.35-2.65a60.36,60.36,0,0,1,6-2.68l1.67-.14-.11-.53Zm-28.63-.56.83.84,1-1.05-.58-.65Zm23.92,17.52-.22-.59c-.09.07-.26.16-.25.22a4.76,4.76,0,0,0,.21.6Z" transform="translate(0)" fill="#e85560"/><path d="M25,39.63q.06-4.5.14-9l2.37,1.72c2.37-1.14,3.89-2.41,5.51-2.56,5.23-.47,10.51-.46,15.76-.81,1.15-.08,2.25-.9,3.37-1.38l3-.06.76,0,3-.07a20.39,20.39,0,0,0,3.89.65c3.65-.09,7.29-.42,10.93-.51.41,0,.85.92,1.27,1.42l-.12.09-1.41,1.41-.11.12L72,32.1h0a58.85,58.85,0,0,0-6.76,4.57C60.35,41,56.4,46.46,49.64,48.43c2.86,2.59,3.84,2.61,6.11.39,1.08-1.06,2.31-2,3.32-3.08,1.5-1.64,2.9-1.89,4.39-.07,2.16,2.65,4.34,5.28,6.46,7.95,1.31,1.66,2.44,3.47,3.83,5,.47.53,1.51.55,2.29.8.19-.79.39-1.58.58-2.37l.25,0h.26l.87.12c.35,2.56-.45,4-3.35,3.91-.87,0-1.77.78-2.65,1.21l-4.75.17-28,.08c-1,0-2.4-.24-.78,1.31l-7.54.21c-3.4-.18-4.74-1.82-4.63-5.35.23-7.55.07-15.12.07-22.68h-.5Zm9.66-3L34,35.54l-.44.43,1.11.71,2.22,1.59,2.32,1.49.76.76,2.34,3-.16.26.14-.28,3.84,2.23,2.24,1.47-.56-1.33-7.75-5.46-.76-.74L37,38.1Zm-3.57-3.52c-.26.36-.62.65-.59.9s.43.49.66.73a5.08,5.08,0,0,0,.72-1C31.94,33.71,31.45,33.4,31.12,33.13Z" transform="translate(0)" fill="#e9535f"/><path d="M408.44,14.8c.09,1.2.17,2.4.26,3.6s.21,2.5.28,3.75c.32,5.65.62,11.3.93,17L407,37.42c-.24-.26-.49-.52-.74-.77l-1.47-1.6-.75-.77-.75-.77-.79-.73-.77-.73-.81-.73-.75-.78-.42-.33.35.41.77.75.73.81.72.78.7.82.76.77.78.74,1.63,1.42.78.74,3,2.87-4.49,2.39-1.52.12-26.66,2.9-4.6.3c-3.92.52-6-.88-5.5-5.14a8.27,8.27,0,0,0-.35-1.84c-.77-7.14-1.51-14.27-2.3-21.72l4-.49,23.28-3v0c4.24-.11,8.47-.31,12.71-.26A15.11,15.11,0,0,1,408.44,14.8Zm-3.74,1.3-.75.77-6.14,6.81-.77.74-2.35,2.24-.28.51.5-.29c.74-.78,1.49-1.56,2.23-2.35l.75-.76L404,16.88l.78-.75.31-.34Z" transform="translate(0)" fill="#e85560"/><path d="M57.51,169.2,59.7,168c2.06.84-.45,4.47,2.81,4.61,1.65.06,3.3.19,4.94.29L72,175.36c1.32,2.25,2.59,2.29,3.8-.1l.32-.07h.33l1.6-.79,0,0,.81-.76c.24-.28.49-.55.73-.82l.81.12.73.74,3,1.49.94,1.19.25-.25-1.19-.94c2.07-1.21,2.83-4.56,6.13-3.77h0l.76.85c-.19,2.13,0,4.42-.7,6.33-.81,2.1-.39,3.23,1.34,4.24,0,.5,0,1,0,1.52-2.5,2.58-5,.73-7.48,0-.51-.76-1-1.53-1.52-2.3-1.79-2.56-3.57-1.5-5.35,0-1.66,1.28-3.62,2.32-4.93,3.91-1.71,2.08-3.06,4.16-6.14,1.5-1.11,4.12-2.12,7.89-3.18,11.85l4.32-1.27,6.1,0,5.34,1.54.78.78.75.74h0l.74.08,1.62-.74,1.43-.13,7.62,5.36,0,1.52-3.05.75-1.62-2.11-.37-1.18c-.19.11-.55.26-.53.32a4.43,4.43,0,0,0,.38.83l-.82.67q-2.73,3.83-5.48,7.64l-3.75-.87-.63-1.15-.87,1.24c-.27.49-.53,1-.79,1.48h0l-1.48,0-1.53,2.28.78,3.75c-2.87-.19-5.37,0-4.71,4,.14.91-.43,1.92-.67,2.89l-.77,3.81c.58.48,1.09,1.16,1.75,1.36.26.08.85-.9,1.28-1.39h0l3.65.57-4,5.1c-2.82-2.62-5.82-3.05-9-1.12-.28.17-.74,0-1.12,0-.1-.4-.19-.8-.29-1.19,0-1.05,0-2.1.08-3.16.52-3.14,1.05-6.29,1.57-9.43.74-2.27,1.49-4.54,2.23-6.81l4.69-.74c5.1-1,6.7-3.27,5.3-7.6l-1.53-1.52-3.8,0v-.72l.18-.32-.18.32-.76.75-5.35-1.57a5.55,5.55,0,0,0-1.38-.81,7.08,7.08,0,0,0-1.72,0l.92-6c2.27-2,6.58-3.21,3-8.19l-3.82,5.93h0l-.74.89a1.91,1.91,0,0,1-.13.63l-1.4,1.6a2.52,2.52,0,0,1-.16.71l-.64.72h0l-.7.89-1.89,2.22-1.21.13a.48.48,0,0,0,0-.39l-2.48-1.26a1,1,0,0,1-.6-.08l-3.08-1.47h0l-3.8-1.56A1.39,1.39,0,0,1,40,198l3.12-2.78-4.65-.82v-3.07l0-.06c.49-.77,1-1.54,1.46-2.3h0l3.82,0,.09,1.5-2.05.59.13,1h7.18l4.63-1.55,3-2.26h0c1.57-1,2.46-2,0-3.06v-1.51c.91-1.29,1.81-2.59,2.82-4C58,176.43,53.37,173.66,57.51,169.2Z" transform="translate(0)" fill="#e9535f"/><path d="M84.12,256.23c9.8-.69,18.66-3.39,25-11.92a13.71,13.71,0,0,0,13,.3,26,26,0,0,0-1.27,4.72c-.09,1,.33,2.88,1,3.11,6.56,2.36,13.22,4.46,20.22,6.75-.13-4-3.17-5.24-5.38-6.58-3-1.83-2.45-4-1.65-6.43.27-.81.56-1.61.84-2.41,4-.61,3.15-4.84,5.23-6.88,8.1,3.78,12.64,10.61,15.19,18.76,1.24,4-1.13,6.55-5,8-8.27,3-16.19.56-24.15-1.11s-16.09-4-24.24-5.36c-3.59-.61-7.47.71-11.2.64C89.16,257.73,86.65,256.78,84.12,256.23Z" transform="translate(0)" fill="#e3dede"/><path d="M79.55,172.85l-.73.83-.81.76,0,0-1.6.79h-.33l-.32.07-3.8.1-4.54-2.42-3.18-7c-.51-3.94-.86-7.92-1.65-11.8-.22-1.09-2.26-1.78-2.53-2.89-.32-1.28.4-2.81.67-4.23l4.61,2.77c.14-2.75.37-5.43.39-8.11,0-5.11,1.78-6.44,6.78-5.43,3,.61,6.19.75,9.29,1.1l.25-1,2,3.54c.64,4.3,1.23,8.62,1.92,12.92.5,3.19.77,6.14-3.12,7.61-.6.22-.76,1.63-1.12,2.5l-1.41,8.58Z" transform="translate(0)" fill="#f5bd9e"/><path d="M40,198a1.39,1.39,0,0,0,.72.14l3.8,1.56h0l3.08,1.47a1,1,0,0,0,.61.08l2.47,1.26a.48.48,0,0,1,0,.39Q41.93,218,33.18,233.08l-.71.72c-2.1,4-4.11,8-6.37,11.88a7,7,0,0,1-2.9,2.17A40.11,40.11,0,0,1,18,250c-.74.25-2.08.41-2.36,0-2.26-3.11-4.84-1.72-7.41-.73s-4.6.95-6.5-2.23c3.3-1.21,6.28-2.39,9.33-3.39,4-1.31,7.89-2.66,8.87-7.53a5.62,5.62,0,0,1,1-1.59l.65-1.44A26.78,26.78,0,0,1,22.66,230c2.44-5.09,4.94-10.14,7.42-15.2l7.59-17.35Z" transform="translate(0)" fill="#f5bd9e"/><path d="M30.08,214.83c-2.48,5.06-5,10.11-7.42,15.2a26.78,26.78,0,0,0-1.06,3.09l-1.45-.06c-1.07-8.47-2.11-16.94-3.21-25.4-.85-6.58-1.76-13.15-2.69-20H32.89c-1.11,8-2.23,15.83-3.23,23.64A14.42,14.42,0,0,0,30.08,214.83Z" transform="translate(0)" fill="#e3dede"/><path d="M367.4,210.16l7.6,0,1.55,0,6.08,0h7.57c-.24,2.74-.43,4.84-.61,7-.08.49-.16,1-.25,1.47l-1.86,6.91-.38.71-.57,1.63a.83.83,0,0,0,0,.69.62.62,0,0,0-.15.66l-.48.9-.25,0c-1.32,1.06-2.54,2.87-4,3.05a62.61,62.61,0,0,1-10.61.11c-3.35-.14-5.14-3.87-3.54-7.11H385v-.46h-17.4l-2.44-.92a23.52,23.52,0,0,1,4-.76c4.69-.09,9.38,0,14.08-.05a32.79,32.79,0,0,0,3.38-.41l-.09-1c-6.52,0-13-.06-19.56.1-.62,0-1.21,1.43-1.81,2.19a1.68,1.68,0,0,0-.59-.07q-1.11-3.81-2.21-7.63l-.42-3v-3.63Z" transform="translate(0)" fill="#3a5b65"/><path d="M58.4,236.15c.38,0,.84.14,1.12,0,3.2-1.93,6.2-1.5,9,1.12l4-5.1-3.65-.57L72,229.46l6.86-3.17h0l1.54-.77h0l.78-.77h0L85,223.24h0l1.62-.77L91,217l.75-2.13h0l.92-1.54.88-.16,2.91,4.76Q82.3,231.6,68.13,245.32a28.31,28.31,0,0,0-2.26,2.83c-1.7-1.26-4-2.18-5-3.86C59.56,241.87,59.19,238.89,58.4,236.15Z" transform="translate(0)" fill="#e85560"/><path d="M84.13,139.9l-2-3.54-.25,1c-3.1-.35-6.24-.49-9.29-1.1-5-1-6.76.32-6.78,5.43,0,2.68-.25,5.36-.39,8.11L60.76,147a16.19,16.19,0,0,0-.25-1.87c-2.17-8.59,1.39-15.33,9.95-17.87,2.74-.81,5.86-.54,8.8-.48.63,0,1.24,1.3,1.86,2l2.31.72c.45.81,1.28,1.62,1.27,2.43C84.68,134.59,84.34,137.24,84.13,139.9Z" transform="translate(0)" fill="#25363c"/><path d="M142.83,233.91c0-.24-.05-.49-.06-.73q91.62,0,183.24,0a19.62,19.62,0,0,1,3.27.56c-1.64.14-3.28.39-4.92.39q-89.07,0-178.13,0C145.1,234.13,144,234,142.83,233.91Z" transform="translate(0)" fill="#25363c"/><path d="M77.94,39.72l.09.88c-.06.49-.13,1-.19,1.47-.06.07-.19.15-.18.19a2.86,2.86,0,0,0,.2.44l.07,6.19c-.08.07-.24.16-.22.2a3.71,3.71,0,0,0,.23.5L78,56.47l-.88.12a3,3,0,0,0-.42,0c-2.08-1.71-4.45-3.19-6.19-5.21-2.57-3-4.71-6.36-7.4-10.08,2.51-2,5.24-4,7.76-6.28.69-.6.75-1.9,1.11-2.88h0l1.46-1.46.11-.12L75,29.11l.12-.09c.48,1.47,1,2.91,1.44,4.41C77.07,35.51,77.47,37.62,77.94,39.72Z" transform="translate(0)" fill="#e9535f"/><path d="M57.51,169.2c-4.14,4.46.48,7.23,2.06,10.39-1,1.44-1.91,2.74-2.82,4l-.72,0v-6.05l-1.33.14c.42,2,.83,4,1.24,6l.82,1.49v3h0l-6.86,1.53h0l-.77,1.53H45.34c-.34-2.25-.68-4.49-1-6.74l-.54.06V189l-3.82,0c3.38-5.21,6.45-10.66,10.27-15.52C51.85,171.36,55,170.56,57.51,169.2Z" transform="translate(0)" fill="#e85560"/><path d="M319.41,69.53a30,30,0,0,1-4.38.62q-51.54,0-103.07.07c-1.48,0-3,.71-4.42,1.08a1.6,1.6,0,0,1-.77.1c-1.71-.39-3.4-1.17-5.11-1.18q-57.24-.1-114.48-.07a33.49,33.49,0,0,1,5.45-1c8.1-.11,16.19,0,24.29-.06,1.49,0,3-.28,4.48-.42a28.13,28.13,0,0,0,4.31.67q61,.06,122,0,35.53,0,71.07-.12A1.43,1.43,0,0,1,319.41,69.53Z" transform="translate(0)" fill="#324a54"/><path d="M318.78,69.29q-35.53.06-71.07.12-61,0-122,0a28.13,28.13,0,0,1-4.31-.67q57.75,0,115.49-.13c2.89,0,5.79-.94,8.68-1.45-.76,3,1.47,1,2.29,1.4l50.25,0,.72-1.38c1.31.5,2.61,1.4,3.94,1.44,5.28.18,10.56.1,15.85.11C318.68,68.88,318.73,69.08,318.78,69.29Z" transform="translate(0)" fill="#99b0ba"/><path d="M399.29,183c.76.72,1.52,1.44,2.29,2.15-.06.43-.12.86-.17,1.29l-7.83,5.59,6.12,1.08c.05.33.1.65.14,1L393,196.74h-7.33c1-2.39,1.65-3.93,2.3-5.47l8.18-5.92-5.48-4Z" transform="translate(0)" fill="#e26269"/><path d="M347.58,160.78,350,158.5h-7.81c.14-.44.28-.88.43-1.32,1.83-1.23,3.68-2.41,5.47-3.69.54-.39.83-1.1,1.33-1.55.89-.82,1.85-1.55,2.78-2.31-.38.79-.77,1.57-1.25,2.54,2.54.34,4.72.75,4.29-2.71l4.68,1.37c-2.12-.17-3.56.38-3.14,2.93l-1.52.63.12.94,6.52-.48c.14.36.28.73.43,1.09l-10.13,5.6Z" transform="translate(0)" fill="#e26970"/><path d="M374.34,165.25c.17-6.38.36-12.76.44-19.15,0-.42-.83-.86-1.27-1.3l0-.09c-.27-.47-.53-.94-.79-1.41.05-.23.09-.46.12-.7l1.45-.16c2.27-.13,2.25,1.41,2.25,3,0,5.64,0,11.28,0,17.72l3.7-3.49.86.52c-.56.91-.9,2.21-1.71,2.65-2.33,1.28-2.91,3.08-2.86,5.61.15,7.32.07,14.65.08,22,.24,1,.48,2.05.73,3.07-.26,2.29-.53,4.57-.79,6.86-.26.75-.53,1.49-.79,2.24a5.8,5.8,0,0,1-.6-.06,5,5,0,0,0-.08-.66c0-.76,0-1.52,0-2.28,0-2,0-4.06,0-6.09,0-7.64.08-15.28,0-22.92a30.38,30.38,0,0,0-.92-5.1Z" transform="translate(0)" fill="#cdcecf"/><path d="M52.18,27.62c-1.12.48-2.22,1.3-3.37,1.38-5.25.35-10.53.34-15.76.81-1.62.15-3.14,1.42-5.51,2.56l-2.37-1.72c.59-.69,1.16-1.93,1.79-2C35.36,28.23,43.77,28,52.18,27.62Z" transform="translate(0)" fill="#e85560"/><path d="M83.43,129.5l-2.31-.72a16.3,16.3,0,0,0,.71-3.38c0-15.27,0-30.54.12-45.8,0-2.24,1.23-4.46,1.89-6.69q-.6,26.67-1.17,53.34A13.2,13.2,0,0,0,83.43,129.5Z" transform="translate(0)" fill="#324a54"/><path d="M359.45,201.61l-2.88-.25c1.69-5,5.59-7.61,11.47-7.65l-5.3,5.86-2.18,1.51-.95.67Z" transform="translate(0)" fill="#e26970"/><path d="M77.94,39.72c-.47-2.1-.87-4.21-1.41-6.29-.39-1.5-1-2.94-1.44-4.41-.42-.5-.86-1.43-1.27-1.42-3.64.09-7.28.42-10.93.51A20.39,20.39,0,0,1,59,27.46L77.94,25.9Z" transform="translate(0)" fill="#e85560"/><path d="M364.54,224.68a1.68,1.68,0,0,1,.59.07l0,0,2.44.92a1,1,0,0,0,0,.46c-1.6,3.24.19,7,3.54,7.11a62.61,62.61,0,0,0,10.61-.11c1.43-.18,2.65-2,4-3.05l-1.58,4.38-3.73.23c-3.23-.06-6.46,0-9.67-.23a17.2,17.2,0,0,1-4-1.25l.1-1.24c-.12-.38-.23-.77-.34-1.16l-.49-.91c-.53-1.46-1.07-2.92-1.6-4.39C364.41,225.22,364.47,225,364.54,224.68Z" transform="translate(0)" fill="#5d7d87"/><path d="M376.27,121.11q1-3.35,2-6.7l.62-.75,3.79-2a.43.43,0,0,0,.21.5.75.75,0,0,0,0,.57.65.65,0,0,0-.18.65l-3.86,9.26-.69,1.61Z" transform="translate(0)" fill="#e26970"/><path d="M355.26,188.29l5.39-2.68.6.84L355,194.71l0,.11-5,1.28,4.4-7.14Z" transform="translate(0)" fill="#e26970"/><path d="M64.27,165.92l3.18,7c-1.64-.1-3.29-.23-4.94-.29-3.26-.14-.75-3.77-2.81-4.61Z" transform="translate(0)" fill="#e26970"/><path d="M25,39.63l.81-3.53h.5c0,7.56.16,15.13-.07,22.68-.11,3.53,1.23,5.17,4.63,5.35-4.89,1-5,.95-5.17-3.77C25.45,53.44,25.26,46.53,25,39.63Z" transform="translate(0)" fill="#d5787f"/><path d="M38.44,63.91c-1.62-1.55-.22-1.3.78-1.31l28-.08Z" transform="translate(0)" fill="#d5787f"/><path d="M78,56.47l-.06-6.88a1.65,1.65,0,0,0,0-.7q0-3.11-.07-6.19a1,1,0,0,0,0-.63c.06-.49.13-1,.19-1.47.5,7.08,1,14.15,1.54,21.75H72c.88-.43,1.78-1.23,2.65-1.21,2.9.09,3.7-1.35,3.35-3.91Z" transform="translate(0)" fill="#d5787f"/><path d="M393,196.74l-8.11.69-2.31,0c.13-2.33.27-4.65.4-7,.74,2.59,1.84,3.37,3.62.72l1.37.08c-.65,1.54-1.3,3.08-2.3,5.47Z" transform="translate(0)" fill="#c4c2c4"/><path d="M40,198l-2.34-.48-2.4-1.71,3.22-4.48c0,1,0,2,0,3.07l4.65.82Z" transform="translate(0)" fill="#e85560"/><path d="M32.47,233.8l.71-.72c7.21,0,14.42.1,21.63,0,.9,0,1.78-.82,2.67-1.26l.35-.11.36.06c0,1.06,0,2.11-.08,3.16a14.37,14.37,0,0,0-3.75-1.09C47.06,233.76,39.77,233.8,32.47,233.8Z" transform="translate(0)" fill="#a5a6a6"/><path d="M330.72,233.69c.34-.41.67-.82,1-1.24l2.14.5h22.27v.74Z" transform="translate(0)" fill="#a5a6a6"/><path d="M375.13,202.55a5.8,5.8,0,0,0,.6.06l2.79.37c-.58,2.11-1.28,4.62-2,7.14l-1.55,0Z" transform="translate(0)" fill="#f1ecf0"/><path d="M20.15,233.06l1.45.06L21,234.56c-3.48-.23-7-.53-10.44-.67-2.84-.11-5.68,0-8.52-.83Z" transform="translate(0)" fill="#cdcecf"/><path d="M413.75,233.74H394.89v-.39h18.88Z" transform="translate(0)" fill="#cdcecf"/><path d="M379.56,200.37l2.31-.76Z" transform="translate(0)" fill="#f1ecf0"/><path d="M40,188.93c-.49.76-1,1.53-1.46,2.3C39,190.46,39.48,189.69,40,188.93Z" transform="translate(0)" fill="#e85560"/><path d="M87.19,70.15l-1.85,1.1Z" transform="translate(0)" fill="#324a54"/><path d="M85.3,71.3,83.79,73Z" transform="translate(0)" fill="#324a54"/><path d="M386.53,227.84l.57-1.63c0,.48,0,1,0,1.44Z" transform="translate(0)" fill="#a5a6a6"/><path d="M56,27.53l-.76,0Z" transform="translate(0)" fill="#e85560"/><path d="M142.12,234.21l.69-.3Z" transform="translate(0)" fill="#25363c"/><path d="M81.87,256.16l.77,0Z" transform="translate(0)" fill="#e3dede"/><path d="M88,164.46c0-28.28.06-56.55-.07-84.83,0-3.39.91-4.22,4.26-4.21q111.25.14,222.53,0c3.57,0,4.72.79,4.71,4.55-.14,41.59-.09,83.18-.09,124.77,0,.64,0,1.27,0,1.9-.12,4.91-.38,5.17-5.17,5.13h-.09c.06-.59.13-1.17.19-1.75a42.18,42.18,0,0,0,.45-4.45q0-60.13,0-120.26c0-5.26,0-5.26-5.29-5.26h-207c-9.76,0-9.76,0-9.1,9.93-.06,1.26-.16,2.52-.17,3.79q-.14,36.92-.24,73.84Z" transform="translate(0)" fill="#1e3037"/><path d="M180.51,218.83h51.15c-.65,3.45-1.95,5.26-5.74,5.2-12.79-.2-25.58-.23-38.36,0C183.72,224.12,181.68,222.7,180.51,218.83Z" transform="translate(0)" fill="#1e3037"/><path d="M151.13,212.51c0-.3.09-.6.13-.91l130.5.07c10.78,0,21.56.06,32.34.1h.09a17.56,17.56,0,0,1-3.56.76Q230.87,212.55,151.13,212.51Z" transform="translate(0)" fill="#324a54"/><path d="M88,164.46l4.9,3.15.63,3-3.3.84h0c-1.45-2.14-2.75-1.95-4.56-.18-1.19,1.17-3,1.66-4.61,2.46l-.73-.74c0-.49,0-1,0-1.47l1.41-8.58Z" transform="translate(0)" fill="#e85560"/><path d="M135.9,243.77c-.28.8-.57,1.6-.84,2.41-.8,2.47-1.36,4.6,1.65,6.43,2.21,1.34,5.25,2.54,5.38,6.58-7-2.29-13.66-4.39-20.22-6.75-.65-.23-1.07-2.07-1-3.11a26,26,0,0,1,1.27-4.72C126.47,239.86,131.24,242.67,135.9,243.77Z" transform="translate(0)" fill="#e85560"/><path d="M93.57,211.68l11.18.17-8.26,6.05-2.91-4.76C93.58,212.65,93.57,212.17,93.57,211.68Z" transform="translate(0)" fill="#3a5b65"/><path d="M129,215.67l-13.86.68,0-.91,14-.67Z" transform="translate(0)" fill="#25363c"/><path d="M106.61,219.66l1.13-.13c-.13.19-.22.48-.39.54S107,219.88,106.61,219.66Z" transform="translate(0)" fill="#25363c"/><path d="M112.63,217.52c-.11.06-.21.17-.31.16s-.18-.13-.27-.21Z" transform="translate(0)" fill="#25363c"/><path d="M373.51,144.8c-.51,1,1.56,3.27-1.48,3l-.84-.72,0-.06-.55-1.23L369,147q-.06,5.72-.14,11.43l-6.82-4.53a2.66,2.66,0,0,0,.12-.56c.75-2.09,2.33-4.29,2.08-6.25-.43-3.36-2-6.58-3.1-9.86l2.4.59c1.56,3.78,4.79,5.32,8.42,6.34l1.5.53Z" transform="translate(0)" fill="#f6e9eb"/><path d="M365.88,112.82l2.49.15c.6,2.69,1.09,5.4,1.83,8A25.84,25.84,0,0,0,372,125l.72.35,1.49.5,1.74,2.35,2,.51c-1.65,2.35-2.85,4.69.06,7l-.07,1.42-1.73,2.34c-.59-2.72-1-5.49-1.81-8.16-.47-1.61-1.49-2-2.42-.16-1.54-3.31-3.33-6.54-4.53-10C366.57,118.49,366.39,115.6,365.88,112.82Z" transform="translate(0)" fill="#f6e9eb"/><path d="M372,131.09c.93-1.83,2-1.45,2.42.16.77,2.67,1.22,5.44,1.81,8.16l1.73-2.34c.27,1.06.55,2.11.82,3.16l-4.54,2.21-1.45.16L369,138.82l3.08.83Z" transform="translate(0)" fill="#d5787f"/><path d="M361.17,137.25c1.1,3.28,2.67,6.5,3.1,9.86.25,2-1.33,4.16-2.08,6.25L360.58,151a40.89,40.89,0,0,0-.12-4.43C360.05,143.42,358.5,140.19,361.17,137.25Z" transform="translate(0)" fill="#e26970"/><path d="M369,138.82l3.87,3.78c0,.24-.07.47-.12.7l-.71.88c-3.63-1-6.86-2.56-8.42-6.34Z" transform="translate(0)" fill="#e26269"/><path d="M360.58,151l1.61,2.34a2.66,2.66,0,0,1-.12.56l-5.32-.16c-.42-2.55,1-3.1,3.14-2.93A.94.94,0,0,1,360.58,151Z" transform="translate(0)" fill="#e26269"/><path d="M355.21,149.46c.43,3.46-1.75,3-4.29,2.71.48-1,.87-1.75,1.25-2.54Z" transform="translate(0)" fill="#e26269"/><path d="M231.88,25.25c-1.43-.18-2.92-.7-4.26-.44a53.47,53.47,0,0,0-6.51,2.08l-.39-1.27,19.53-5.7h0a60.36,60.36,0,0,0-6,2.68c-1,.55-1.58,1.75-2.35,2.65Z" transform="translate(0)" fill="#bc3740"/><path d="M231.87,25.25l3.48,9.1-1.47.41c-.67-3.17-1.33-6.34-2-9.51Z" transform="translate(0)" fill="#bc3740"/><path d="M238.69,44.25l-2.24.79c-.21-2.09-.43-4.17-.74-7.27C237,40.53,237.84,42.39,238.69,44.25Z" transform="translate(0)" fill="#bc3740"/><path d="M215.13,16.11,216.4,18l-1,.3-.3-2.15Z" transform="translate(0)" fill="#bc3740"/><path d="M213.6,13.07l1.53,3h0l-1.52-3.06Z" transform="translate(0)" fill="#bc3740"/><path d="M211.62,19.36l1.28-.86.58.65-1,1.05Z" transform="translate(0)" fill="#bc3740"/><path d="M240.25,19.92l1.56-.67.11.53-1.67.14Z" transform="translate(0)" fill="#bc3740"/><path d="M235.54,36.88l-.26.23a4.76,4.76,0,0,1-.21-.6c0-.06.16-.15.25-.22C235.39,36.49,235.47,36.69,235.54,36.88Z" transform="translate(0)" fill="#bc3740"/><path d="M213.6,13.06l-.36-.36c.08,0,.19,0,.22.06a1.73,1.73,0,0,1,.14.31Z" transform="translate(0)" fill="#bc3740"/><path d="M72,32.11c-.36,1-.42,2.28-1.11,2.88-2.52,2.25-5.25,4.28-7.76,6.28,2.69,3.72,4.83,7.09,7.4,10.08,1.74,2,4.11,3.5,6.19,5.21a1.89,1.89,0,0,0-.08.53L76,59.46c-.78-.25-1.82-.27-2.29-.8-1.39-1.57-2.52-3.38-3.83-5-2.12-2.67-4.3-5.3-6.46-7.95-1.49-1.82-2.89-1.57-4.39.07-1,1.12-2.24,2-3.32,3.08C53.48,51,52.5,51,49.64,48.43c6.76-2,10.71-7.42,15.58-11.75A58.85,58.85,0,0,1,72,32.11Z" transform="translate(0)" fill="#e85560"/><path d="M40.06,40.42l7.73,5.46-1.67-.14-3.84-2.23,0,0-2.34-3Z" transform="translate(0)" fill="#bc3740"/><path d="M46.12,45.74l1.67.14.57,1.33Z" transform="translate(0)" fill="#e85560"/><path d="M31.12,33.13c.33.27.82.58.79.66a5.08,5.08,0,0,1-.72,1c-.23-.24-.63-.46-.66-.73S30.86,33.49,31.12,33.13Z" transform="translate(0)" fill="#e85560"/><path d="M73.45,30.64,72,32.1Z" transform="translate(0)" fill="#e85560"/><path d="M75,29.11l-1.41,1.41Z" transform="translate(0)" fill="#e85560"/><path d="M39.2,39.76l-2.32-1.49.16-.18,2.24,1.59Z" transform="translate(0)" fill="#bc3740"/><path d="M36.88,38.27l-2.22-1.59,0,0L37,38.09Z" transform="translate(0)" fill="#bc3740"/><path d="M34.66,36.68,33.55,36l.44-.43c.24.37.47.74.7,1.11Z" transform="translate(0)" fill="#bc3740"/><path d="M78,56.47v.76l-.87-.12a.77.77,0,0,0,0-.52Z" transform="translate(0)" fill="#e85560"/><path d="M77.12,56.59a.77.77,0,0,1,0,.52h-.26l-.25,0a1.89,1.89,0,0,1,.08-.53A3,3,0,0,1,77.12,56.59Z" transform="translate(0)" fill="#d5787f"/><path d="M42.28,43.51l-.14.28.16-.26Z" transform="translate(0)" fill="#bc3740"/><path d="M40,40.52l-.76-.76.08-.08.77.74Z" transform="translate(0)" fill="#bc3740"/><path d="M388,191.27l-1.37-.08c.24-2.85.49-5.69.73-8.54l-.74-.2c-.78.9-1.55,1.81-2.33,2.72-2.53-.83-3.5-2.27-3-5.14.4-2.26.5-5.09-.53-7-2-3.54.3-5.4,1.9-7.71-1.69,8.06-1.47,10.74,1.14,13.89q.9-2.83,1.79-5.66.81,2.34,1.61,4.68l3.5,3.07,5.48,4Z" transform="translate(0)" fill="#f1ecf0"/><path d="M397.93,173.78a7.29,7.29,0,0,0,2,1.48c2.16.69,4.6.79,6.51,1.86,1.31.74,1.93,2.71,2.86,4.13a42.61,42.61,0,0,1-5.09,1c-.78.06-1.62-.59-2.43-.92L391.26,176l2.89-2.24Z" transform="translate(0)" fill="#e26970"/><path d="M386.39,160.05c-.14-.2-.44-.52-.4-.56,3.57-4.32,15.38-6.61,20-3.9.07,0,.05.24.17,1-2.49.84-5.13,1.71-7.75,2.63-1,.36-3,.26-1.21,2.21Z" transform="translate(0)" fill="#e26970"/><path d="M386.54,149.29c-2.07-7.92-2.07-8.1.43-12.73v8.33c2.51-3.55,3.55-8.16,9.24-8.94v3.29Z" transform="translate(0)" fill="#e26970"/><path d="M397.93,173.78l-3.78-.07c3-5.71,8.18-8.05,14.33-9.57C407.34,169.29,402.42,173.57,397.93,173.78Z" transform="translate(0)" fill="#e26269"/><path d="M407.07,147.7c-.74,1-1.36,2.71-2.26,2.88a116.07,116.07,0,0,1-12.89,1.61c-.7.06-1.51-1.26-2.27-1.95a1.33,1.33,0,0,0,.65-.1l4.54-1.37,3-1.05Z" transform="translate(0)" fill="#e26269"/><path d="M397.87,141.76c6.13-4.27,7.54-4.83,12.54-4.7-.78,1.2-1.38,2.14-2,3.07h0l-8.24,4.78-3.9-.12C396.82,143.77,397.34,142.76,397.87,141.76Z" transform="translate(0)" fill="#e26269"/><path d="M391.26,176l10.48,5.34L399.29,183l-8.6-1.69-3.5-3.07Z" transform="translate(0)" fill="#f6e9eb"/><path d="M378,128.66l-2-.51,2.18-3.91.69-1.61c2-.77,4-1.65,6.13-2.26a7.94,7.94,0,0,1,2.79.23c-.22.88-.45,1.77-.68,2.66L384.9,125h0l-2.32,1.5Z" transform="translate(0)" fill="#e26269"/><path d="M385.58,173.59q-.88,2.82-1.79,5.66c-2.61-3.15-2.83-5.83-1.14-13.89a10.35,10.35,0,0,1,2.17.16C385.17,168.2,385.36,170.89,385.58,173.59Z" transform="translate(0)" fill="#e26269"/><path d="M378.81,140.23c-.27-1-.55-2.1-.82-3.16,0-.47,0-.94.07-1.42a.53.53,0,0,0,.12-.54l1.41-2.49h0c.46-.53.93-1.05,1.39-1.57l.08-.08.63-.67,1-.66,2.91-.58C385,133.82,382.43,137.33,378.81,140.23Z" transform="translate(0)" fill="#e26269"/><path d="M397.87,141.76c-.53,1-1.05,2-1.58,3l-2.85,1.53h5.94l-1.56,1.42-3,1.05c-2.16-1.68-3.37-.24-4.54,1.37a1.33,1.33,0,0,1-.65.1l-3.95,1.6c.34-1,.59-1.79.84-2.55l9.67-10C396.76,140.08,397.31,140.92,397.87,141.76Z" transform="translate(0)" fill="#f6e9eb"/><path d="M386.39,160.05l10.85,1.43,3.47,2.39C394.52,165.47,389.23,163.9,386.39,160.05Z" transform="translate(0)" fill="#e26269"/><path d="M384.28,185.17c.78-.91,1.55-1.82,2.33-2.72l.74.2c-.24,2.85-.49,5.69-.73,8.54-1.78,2.65-2.88,1.87-3.62-.72.05-.78.11-1.56.16-2.34l.86-2.22Z" transform="translate(0)" fill="#e26269"/><path d="M397.82,147.72l1.56-1.42,7.69,1.4Z" transform="translate(0)" fill="#f1c0c5"/><path d="M377.31,193.51c-.25-1-.49-2-.73-3.07l2.61-2.31.89.55Z" transform="translate(0)" fill="#f1ecf0"/><path d="M399.39,146.31h-5.95l2.85-1.53,3.9.12Z" transform="translate(0)" fill="#f1c0c5"/><path d="M385.58,129.05l-2.91.58C383.24,127.43,384.25,127.46,385.58,129.05Z" transform="translate(0)" fill="#f6e9eb"/><path d="M384,185.91l-.86,2.22Z" transform="translate(0)" fill="#f1ecf0"/><path d="M379.59,132.62l-1.41,2.49Z" transform="translate(0)" fill="#f6e9eb"/><path d="M384.9,125l2.19-1.7Z" transform="translate(0)" fill="#f6e9eb"/><path d="M383.75,155.63l1.08-.84.38.38-.91,1Z" transform="translate(0)" fill="#cdcecf"/><path d="M382.57,126.47l2.32-1.5Z" transform="translate(0)" fill="#f6e9eb"/><path d="M381,131c-.46.52-.93,1-1.39,1.57C380.06,132.08,380.53,131.56,381,131Z" transform="translate(0)" fill="#f6e9eb"/><path d="M381.66,158.2c0-.09.06-.25.1-.26a1,1,0,0,1,.32.09c0,.09-.06.25-.11.25A.89.89,0,0,1,381.66,158.2Z" transform="translate(0)" fill="#cdcecf"/><path d="M380.62,186.45c.08,0,.2,0,.23,0a.64.64,0,0,1,.06.28l-.39,0Z" transform="translate(0)" fill="#f1ecf0"/><path d="M381.7,130.29l-.63.67Z" transform="translate(0)" fill="#f6e9eb"/><path d="M404,16.88l-6.06,6.89-.09-.09L404,16.87Z" transform="translate(0)" fill="#cc3c47"/><path d="M409.91,39.1c0,.41,0,.82,0,1.22l-3-2.87,0,0Z" transform="translate(0)" fill="#bc3740"/><path d="M397.15,24.53l-2.24,2.35-.23-.22L397,24.42Z" transform="translate(0)" fill="#cc3c47"/><path d="M406.19,36.72c-.54-.48-1.08-1-1.63-1.43l.23-.24,1.47,1.6Z" transform="translate(0)" fill="#bc3740"/><path d="M400.92,31.32c.27.24.54.48.8.73l-.12.13-.73-.81Z" transform="translate(0)" fill="#bc3740"/><path d="M400.17,30.54l.75.78-.05.05-.77-.75Z" transform="translate(0)" fill="#bc3740"/><path d="M400.1,30.62l-.35-.41.42.33Z" transform="translate(0)" fill="#bc3740"/><path d="M394.91,26.88l-.5.29.27-.51Z" transform="translate(0)" fill="#cc3c47"/><path d="M397,24.42l.76-.74.09.09-.75.76Z" transform="translate(0)" fill="#cc3c47"/><path d="M404,16.87l.75-.77,0,0-.78.75Z" transform="translate(0)" fill="#cc3c47"/><path d="M404.7,16.1l.34-.31-.31.34Z" transform="translate(0)" fill="#cc3c47"/><path d="M406.26,36.65c.25.25.5.51.74.77l0,0-.78-.74Z" transform="translate(0)" fill="#bc3740"/><path d="M404,34.28l.75.77-.23.24-.77-.75Z" transform="translate(0)" fill="#bc3740"/><path d="M403.29,33.51l.75.77-.25.26c-.26-.25-.52-.5-.77-.76Z" transform="translate(0)" fill="#bc3740"/><path d="M403,33.78l-.7-.82.18-.18.79.73Z" transform="translate(0)" fill="#bc3740"/><path d="M402.32,33l-.72-.78.12-.13.78.73Z" transform="translate(0)" fill="#bc3740"/><path d="M88.74,208l3.05-.75c0,.77,0,1.54,0,2.31-.27.46-.79.94-.75,1.37.14,1.33.49,2.63.76,3.94h0l-6.09,2.31,0,0-.12,1.44c-1.21,1-2.26,2.41-3.65,3-5,2.21-10.19,4.15-15.29,6.2.24-1,.81-2,.67-2.89-.66-4.06,1.84-4.2,4.71-4q1.11-3,2.23-6.06h0l6-.7q2.74-3.82,5.48-7.64C85.77,209,86.8,209.39,88.74,208Z" transform="translate(0)" fill="#e85560"/><path d="M94.14,171.19A36.32,36.32,0,0,1,97,174c2,2.42,4,4.83,5.84,7.41.69,1,.74,2.47,1.08,3.73l-4.65,9.08-3-.7,0,0-1.16-5.89-1.26,1.42c-.63-2.56-1.25-5.11-2-8.1l-.31,1.9c-1.73-1-2.15-2.14-1.34-4.24.74-1.91.51-4.2.7-6.33Zm3,15c-.19.12-.48.2-.54.37s.12.39.19.6l.75-.49Z" transform="translate(0)" fill="#e85560"/><path d="M91.77,205.7l-7.62-5.36,1.53-7.59h0l1.54-.77h0l2.25-1.31-.39-.53-1.85,1c-.17-1.63.78-3.94-2.31-3.79l-.72-3c2.49.73,5,2.58,7.48,0l.15,9.89C91.8,198.08,91.78,201.89,91.77,205.7Z" transform="translate(0)" fill="#e85560"/><path d="M66.66,227.79c5.1-2,10.25-4,15.29-6.2,1.39-.61,2.44-2,3.65-3l.12-1.44,0,0L91,217l-4.48,5.51-1.62.77h0l-3.82,1.53h0l-.78.77h0l-1.54.77h0L72,229.46l-3.08,2.11h0l-3,0C66.15,230.33,66.4,229.06,66.66,227.79Z" transform="translate(0)" fill="#cc3c47"/><path d="M67.38,198.09l-4.32,1.27c1.06-4,2.07-7.73,3.18-11.85,3.08,2.66,4.43.58,6.14-1.5,1.31-1.59,3.27-2.63,4.93-3.91,0,.25,0,.49,0,.74A74.2,74.2,0,0,1,72.83,189c-1.09,1.22-2.6,2.63-4.07,2.84-2.65.36-3,1.79-2.89,3.85l.79.87h0Z" transform="translate(0)" fill="#e85560"/><path d="M54.55,211.64c-.89-3-1.79-5.94-2.68-8.92l1.89-2.22.7-.89h0l.64-.72a2.52,2.52,0,0,0,.16-.71c.46-.54.93-1.07,1.4-1.6a1.91,1.91,0,0,0,.13-.63c.24-.3.49-.59.74-.89h0L59.09,194l-.73,3.33c-.31,2-.61,4-.92,6l-.63,2.38Q55.67,208.67,54.55,211.64Z" transform="translate(0)" fill="#bc3740"/><path d="M56.61,225.61l-1.23-6.22,2.73,2.19a17.47,17.47,0,0,0,1.64-2.78c.29-.8,0-1.79.26-2.61.75-2.39,2.11-4,5-3.53,5.05.77,6.16-.24,6.22-5.44H72c1.4,4.33-.2,6.63-5.3,7.6-1.76-1-3.48-1.73-4.69.74-.74,2.27-1.49,4.54-2.23,6.81C57.22,222,56.52,223.43,56.61,225.61Z" transform="translate(0)" fill="#ee7a84"/><path d="M91.77,205.7c0-3.81,0-7.62,0-11.43l1.74,1.51.77,2.36c-.37.63-1,1.26-1,1.88,0,3.89.18,7.78.3,11.66,0,.49,0,1,0,1.46l-.88.16-.93-3.77c0-.77,0-1.54,0-2.31C91.78,206.71,91.78,206.21,91.77,205.7Z" transform="translate(0)" fill="#d05d64"/><path d="M58.36,197.32l.73-3.33-1.56,1.07,3.82-5.93C64.94,194.11,60.63,195.27,58.36,197.32Z" transform="translate(0)" fill="#e85560"/><path d="M93.56,195.78l-1.75-1.51-.15-9.89c0-.51,0-1,0-1.52s.16-1,.31-1.9c.73,3,1.35,5.54,2,8.1,0,.46,0,.92,0,1.38L94,192Z" transform="translate(0)" fill="#bc3740"/><path d="M56.61,225.61c-.09-2.18.61-3.6,3.15-3.24-.52,3.14-1,6.29-1.57,9.43l-.36-.06-.35.11Z" transform="translate(0)" fill="#e85560"/><path d="M81.09,173.72c1.56-.8,3.42-1.29,4.61-2.46,1.81-1.77,3.11-2,4.56.18-3.3-.79-4.06,2.56-6.13,3.77h0Z" transform="translate(0)" fill="#ee7a84"/><path d="M67.38,198.09l-.73-1.53,1.49,0,4.6,0L75,195.7l2.29.86-3.83,1.51Z" transform="translate(0)" fill="#ee7a84"/><path d="M60.54,204.12l5.35,1.57h.38l.38,0,3.8,0c0,.26,0,.51,0,.77-3,.09-6.24,1.73-9.06-.8C61.11,205.15,60.83,204.63,60.54,204.12Z" transform="translate(0)" fill="#ee7a84"/><path d="M49.9,189.71l6.86-1.53-3,2.26Z" transform="translate(0)" fill="#ee7a84"/><path d="M73.48,198.07l3.83-1.51h0l.76.76h0l.75.75h0l0,1.52Z" transform="translate(0)" fill="#e85560"/><path d="M60.54,204.12c.29.51.57,1,.86,1.55l-4.59,0,.63-2.38a7.08,7.08,0,0,1,1.72,0A5.55,5.55,0,0,1,60.54,204.12Z" transform="translate(0)" fill="#e85560"/><path d="M85.68,192.75l-1.53,7.59-1.43.13-.15-.18.09-1.4.81-5.36Z" transform="translate(0)" fill="#ee7a84"/><path d="M80.3,214.14l-6,.7.78-1.48,1.51-.09Z" transform="translate(0)" fill="#ee7a84"/><path d="M43.79,189v-4.39l.54-.06c.33,2.25.67,4.49,1,6.74l-1.46-.79Z" transform="translate(0)" fill="#ee7a84"/><path d="M77.32,182.84c0-.25,0-.49,0-.74,1.78-1.52,3.56-2.58,5.35,0l0,0Z" transform="translate(0)" fill="#e26970"/><path d="M84.18,184.38l.72,3-2.28-5.29,0,0C83.17,182.85,83.67,183.62,84.18,184.38Z" transform="translate(0)" fill="#e26970"/><path d="M74.27,214.83q-1.12,3-2.23,6.06l-.78-3.75,1.53-2.28Z" transform="translate(0)" fill="#ee7a84"/><path d="M49.9,189.71l3.87.73L49.14,192v-.76h0l.77-1.53Z" transform="translate(0)" fill="#e85560"/><path d="M72,175.36l3.8-.1C74.58,177.65,73.31,177.61,72,175.36Z" transform="translate(0)" fill="#e85560"/><path d="M43.88,190.45l1.46.79h0V192H42l-.13-1Z" transform="translate(0)" fill="#e85560"/><path d="M88.74,208c-1.94,1.42-3,1-3-1.47l.82-.67h.26l.26,0Z" transform="translate(0)" fill="#ee7a84"/><path d="M44.53,199.66l-3.8-1.56Z" transform="translate(0)" fill="#e85560"/><path d="M45.33,192v-.76h3.81V192Z" transform="translate(0)" fill="#ee7a84"/><path d="M65.89,231.6l3,0c-.43.49-1,1.47-1.28,1.39C67,232.76,66.47,232.08,65.89,231.6Z" transform="translate(0)" fill="#e85560"/><path d="M94.14,171.19,91,172.29l-.76-.85,3.3-.84C93.75,170.79,93.94,171,94.14,171.19Z" transform="translate(0)" fill="#ee7a84"/><path d="M56.75,188.19v-3.06C59.21,186.15,58.32,187.17,56.75,188.19Z" transform="translate(0)" fill="#ee7a84"/><path d="M62,215.56c1.21-2.47,2.93-1.71,4.69-.74Z" transform="translate(0)" fill="#e85560"/><path d="M47.62,201.12l-3.08-1.47Z" transform="translate(0)" fill="#e85560"/><path d="M72.79,214.86l-1.53,2.28Z" transform="translate(0)" fill="#e85560"/><path d="M78.82,199.61l0-1.52.38,0h.38l.88,2.17-.21.22a5.26,5.26,0,0,0-.67-.07Z" transform="translate(0)" fill="#ee7a84"/><path d="M50.7,202.46l-2.47-1.26Z" transform="translate(0)" fill="#e85560"/><path d="M76.55,213.27l-1.51.09c.3-.41.59-.83.88-1.24Z" transform="translate(0)" fill="#e85560"/><path d="M84.13,175.21l1.19.94-.25.25-.94-1.19Z" transform="translate(0)" fill="#e85560"/><path d="M82.72,200.47l-1.62.74a6.2,6.2,0,0,0-.74-.08h0c0-.23,0-.45-.08-.67l.21-.22,2.09,0Z" transform="translate(0)" fill="#ee7a84"/><path d="M56.67,196.57c-.47.53-.94,1.06-1.4,1.6Z" transform="translate(0)" fill="#e85560"/><path d="M87.12,205.86l-.26,0H86.6a4.43,4.43,0,0,1-.38-.83c0-.06.34-.21.53-.32Z" transform="translate(0)" fill="#e85560"/><path d="M70.46,206.47c0-.26,0-.51,0-.77L72,207.22h-.76l-.77-.77Z" transform="translate(0)" fill="#e85560"/><path d="M80.4,171.51c0,.49,0,1,0,1.47l-.81-.12Z" transform="translate(0)" fill="#ee7a84"/><path d="M76.44,175.2l1.6-.79Z" transform="translate(0)" fill="#e85560"/><path d="M56,183.58l.71,0c0,.51,0,1,0,1.53l-.82-1.49Z" transform="translate(0)" fill="#ee7a84"/><path d="M66.65,205.66l-.38,0h-.38l.76-.75h0Z" transform="translate(0)" fill="#e85560"/><path d="M57.54,195.05c-.25.3-.5.59-.74.89C57,195.64,57.29,195.35,57.54,195.05Z" transform="translate(0)" fill="#e85560"/><path d="M78,174.44l.81-.76Z" transform="translate(0)" fill="#e85560"/><path d="M55.11,198.88l-.64.72Z" transform="translate(0)" fill="#e85560"/><path d="M54.46,199.61l-.7.89Z" transform="translate(0)" fill="#e85560"/><path d="M80.27,200.46c0,.22.06.44.08.67l-.75-.74A5.26,5.26,0,0,1,80.27,200.46Z" transform="translate(0)" fill="#e85560"/><path d="M80.36,201.13a6.2,6.2,0,0,1,.74.08Z" transform="translate(0)" fill="#e85560"/><path d="M66.65,204.94l.18-.32-.18.32Z" transform="translate(0)" fill="#e85560"/><path d="M356,173.73c1.11-2.46,2.2-4.92,3.32-7.37.32-.69.74-1.33,1.27-2.27,2.73,5.48-1,13.46-6.08,14.75-.28-.81-.34-1.9-.92-2.37a9.52,9.52,0,0,0-2.91-1.15l2.78-.76,2.4,1.05C355.9,174.86,356,174.3,356,173.73Z" transform="translate(0)" fill="#e26970"/><path d="M371.58,177.14c.74,6-.12,10.86-3.52,15.79C366,185.72,367.26,179.72,371.58,177.14Z" transform="translate(0)" fill="#e26970"/><path d="M364.6,171.48c1.73,5.42,1.45,8-1.44,14.86C360.14,183.36,360.75,175.93,364.6,171.48Z" transform="translate(0)" fill="#e26970"/><path d="M356,173.73l-.14,1.88-2.4-1.05-2.75-2.41-1.55-2.25-.93-2.29.93-3.09Z" transform="translate(0)" fill="#e26269"/><path d="M350.67,175.32a9.52,9.52,0,0,1,2.91,1.15c.58.47.64,1.56.92,2.37-3.85,1.19-7.12.16-10.05-2.13l.1-1.39Z" transform="translate(0)" fill="#e26269"/><path d="M368.89,158.45q.08-5.72.14-11.43l2.13,0,0,.06-.12,9.67c-.13.58-.27,1.17-.4,1.76l-1.59,0Z" transform="translate(0)" fill="#d05d64"/><path d="M349.15,164.52l-.93,3.09c-.21-2.28-.43-4.56-.64-6.83l4.59.76Z" transform="translate(0)" fill="#f6e9eb"/><path d="M371.07,156.8l.12-9.67.84.72Z" transform="translate(0)" fill="#f1c0c5"/><path d="M369.08,158.6l1.59,0c0,.4,0,.81,0,1.21Z" transform="translate(0)" fill="#f1c0c5"/><path d="M349.15,169.9l1.55,2.25Z" transform="translate(0)" fill="#f6e9eb"/><path d="M373.48,164.6l-.56-.85.58.83Z" transform="translate(0)" fill="#cdcecf"/><path d="M373.5,164.58l.84.67-.25.25-.61-.9Z" transform="translate(0)" fill="#cdcecf"/><path d="M365.13,224.75c.6-.76,1.19-2.18,1.81-2.19,6.52-.16,13-.1,19.56-.1l.09,1a32.79,32.79,0,0,1-3.38.41c-4.7,0-9.39,0-14.08.05a23.52,23.52,0,0,0-4,.76Z" transform="translate(0)" fill="#5d7d87"/><path d="M367.54,226.11a1,1,0,0,1,0-.46H385v.46Z" transform="translate(0)" fill="#a5a6a6"/><path d="M72,229.46l6.86-3.17Z" transform="translate(0)" fill="#bc3740"/><path d="M91,217l-5.34.18,6.09-2.31Z" transform="translate(0)" fill="#ee7a84"/><path d="M91.77,209.53l.93,3.77-.92,1.54c-.27-1.31-.62-2.61-.76-3.94C91,210.47,91.5,210,91.77,209.53Z" transform="translate(0)" fill="#ee7a84"/><path d="M81.14,224.77,85,223.24Z" transform="translate(0)" fill="#bc3740"/><path d="M84.93,223.25l1.62-.77Z" transform="translate(0)" fill="#bc3740"/><path d="M78.85,226.29l1.54-.77Z" transform="translate(0)" fill="#bc3740"/><path d="M80.37,225.53l.78-.77Z" transform="translate(0)" fill="#bc3740"/><path d="M77.93,48.89a1.65,1.65,0,0,1,0,.7,3.71,3.71,0,0,1-.23-.5S77.85,49,77.93,48.89Z" transform="translate(0)" fill="#e85560"/><path d="M77.84,42.07a1,1,0,0,1,0,.63,2.86,2.86,0,0,1-.2-.44S77.78,42.14,77.84,42.07Z" transform="translate(0)" fill="#e85560"/><path d="M55.94,183.66c-.41-2-.82-4-1.24-6l1.33-.14v6.05Z" transform="translate(0)" fill="#ee7a84"/><path d="M49.9,189.71l-.77,1.53C49.39,190.73,49.65,190.22,49.9,189.71Z" transform="translate(0)" fill="#ee7a84"/><path d="M374.24,125.8l-1.49-.51L372,125A25.84,25.84,0,0,1,370.2,121c-.74-2.65-1.23-5.36-1.83-8q3.22,4.57,6.43,9.16C374.62,123.36,374.43,124.58,374.24,125.8Z" transform="translate(0)" fill="#e26269"/><path d="M374.24,125.8c.19-1.22.38-2.44.56-3.67l1.48-1,1.88,3.13L376,128.15Z" transform="translate(0)" fill="#f1c0c5"/><path d="M372,144.18l.71-.88c.26.47.52.94.79,1.41Z" transform="translate(0)" fill="#f1c0c5"/><path d="M314.29,210c-.07-1.65-.21-3.29-.21-4.93q0-55,0-109.91V90H93.33c-.66-10-.66-9.93,9.1-9.93h207c5.28,0,5.29,0,5.29,5.26q0,60.13,0,120.26A42.18,42.18,0,0,1,314.29,210ZM116.68,81.17v.76H310.52v-.76Z" transform="translate(0)" fill="#e6e9e9"/><path d="M253.92,137.93a4.65,4.65,0,0,1,.54,1.35q.91,23,1.78,45.93c0,.38-.07.76-.07,1.14-.14,10.26-.14,10.27-10.29,10.26l-77.45-.07c-2.17,0-4.59.34-4.3-3.09a15.83,15.83,0,0,0,.7-3.17c0-12.63,0-25.27,0-37.9q0-7.5.08-15l1.56-.15,3,3.82,8.33,6,2.34,2a2.15,2.15,0,0,0,.7.24c2.42,2.27,4.69,4.72,7.28,6.77,5.34,4.21,10.86,8.2,16.3,12.28a31.89,31.89,0,0,0,3.83,3.17c.37.23,1.39-.58,2.12-.91l1.06-.38.58-.43.06,0,4.67-3.69,7.45-6.12,1.41-1,10.23-8.13,12.09-10a35.51,35.51,0,0,0,4.31-2.53C252.81,137.94,254.11,140.42,253.92,137.93ZM243.17,183l.74.75c1.23,1.3,2.45,2.6,3.68,3.89l3.12,4.08,1.72-1.62L248,187.32l-3.71-3.91-.74-.79-.8-.73-3.4-4.84-1,.84,4.16,4.29ZM180,179l-4.57,4.59.85.76q2-2.49,4-5l1.4-1.71,4.36-3.63-1-1-3.48,4.48Zm7.38-6.7-.09-.25-.09.24Z" transform="translate(0)" fill="#e9535f"/><path d="M99.29,194.2l4.65-9.07c.54-.56,1.5-1.09,1.55-1.68.61-7.81,1.41-15.64,1.42-23.46,0-2.32-2.31-4.65-3.67-7.18l1.92-.44,7.59,4.43c-2.45-3-1.78-6-.37-8.93,2.59,1.7,7.53,2.26,6.78,6-2.77,13.65-.69,27.36-1.46,41-.2,3.73-2.8,6.2-5.82,7.33a10.69,10.69,0,0,1-10.49-1.37c-1.21-.91-2.37-1.88-3.55-2.82.27-1,.55-2,.82-2.95Z" transform="translate(0)" fill="#f5bd9e"/><path d="M107,134.07c1.39-.65,3.25-.94,4.09-2,4.08-5.3,7.9-10.81,11.8-16.25l3.47,9.16c2.25,0,4.24-.61,5.16.12,2,1.64,3.07,4,1.18,6.64-.5.7-1.14,2-.84,2.47,1.65,2.61,3.13,5.67,7.07,5.24,0,2.88-2,1.94-3.42,1.68-8.18-1.47-15.93-.51-23.15,3.8Q109.7,139.5,107,134.07Z" transform="translate(0)" fill="#3a5b65"/><path d="M107,134.07q2.68,5.43,5.36,10.84c-2.44,1-.76,2,0,3-1.41,3-2.08,5.91.37,8.93l-7.59-4.43c-.52-3.67-4.22-3.78-6.43-5a4.57,4.57,0,0,1-1.84-6.93C99.69,137.76,103.57,136.14,107,134.07Z" transform="translate(0)" fill="#25363c"/><path d="M164.13,193.45c-.29,3.43,2.13,3.08,4.3,3.09l77.45.07c10.15,0,10.15,0,10.29-10.26,0-.38.05-.76.07-1.14q.42,6.18.82,12.31H163.61c-.1-1.59-.24-2.7-.24-3.8.06-17.63.12-35.25.27-52.87,0-1.15.84-2.31,1.28-3.46q0,7.5-.08,15a20.51,20.51,0,0,0-.64,3.59C164.14,168.46,164.14,181,164.13,193.45Z" transform="translate(0)" fill="#d5787f"/><path d="M196.13,111.25c3.14-2.52,6.32-5,9.4-7.56,2.79-2.36,5.37-2.82,8.31-.12s6.19,5.14,9.31,7.7a1.6,1.6,0,0,1,0,.72c-7.78.07-15.56.19-23.34.18A15.56,15.56,0,0,1,196.13,111.25Z" transform="translate(0)" fill="#bc3740"/><path d="M139,139.43c-3.94.43-5.42-2.63-7.07-5.24-.3-.47.34-1.77.84-2.47,1.89-2.67.86-5-1.18-6.64-.92-.73-2.91-.12-5.16-.12l-3.47-9.16.28-.68.58-.52,1.48,0,.81.44c6.39,5.13,9.64,12.21,12.21,19.7.17.56.35,1.11.53,1.67Z" transform="translate(0)" fill="#25363c"/><path d="M196.13,111.25a15.56,15.56,0,0,0,3.64.92c7.78,0,15.56-.11,23.34-.18l1.94.71c-15.71,0-31.42.07-47.12.17a23.19,23.19,0,0,0-6.73.75,4.29,4.29,0,0,0-2.29,3.2c-.12,5.93.1,11.87.24,17.8,0,2.15.19,4.29.29,6.44l-3-3.82c2.82-6.57,1.09-13.48,1.4-20.23.23-4.91,0-4.92,4.92-5,6.68,0,13.36,0,20-.12A17.53,17.53,0,0,0,196.13,111.25Z" transform="translate(0)" fill="#c4c2c4"/><path d="M225.77,143.44,209,144h-1.52l-24.28,0-.71-1.4,44.81-.23.35.06.36-.05,5.88.27.06.3-2.11.36Z" transform="translate(0)" fill="#c4c2c4"/><path d="M253.92,137.93c.19,2.49-1.11,0-1.72.49a35.51,35.51,0,0,1-4.31,2.53q.38-3.8.76-7.59l.82-.11Z" transform="translate(0)" fill="#a73036"/><path d="M233.21,134H197.55v-.39h35.66Z" transform="translate(0)" fill="#a5a6a6"/><path d="M215,125.33h18.35v1.09H215.07C215.05,126.06,215,125.7,215,125.33Z" transform="translate(0)" fill="#c4c2c4"/><path d="M98.66,195.05c-.27,1-.55,2-.82,2.95l-1.79,2.34-1.73-2.2-.77-2.36L94,192c0-.29.08-.58.11-.87l2.25,2.4,0,0Z" transform="translate(0)" fill="#e85560"/><path d="M215,125.33c0,.37.06.73.08,1.09H188.29v-1.09Z" transform="translate(0)" fill="#a5a6a6"/><path d="M225.05,112.7l-1.94-.71a1.6,1.6,0,0,0,0-.72q12.21.2,24.43.43c.08,0,.15.66.23,1Z" transform="translate(0)" fill="#a5a6a6"/><path d="M249.47,133.25l-.82.11c-3-4.46-1.44-9-.52-13.94C248.6,124.29,249,128.77,249.47,133.25Z" transform="translate(0)" fill="#c4c2c4"/><path d="M138.81,136.44c-.18-.56-.36-1.11-.53-1.67C138.45,135.33,138.63,135.88,138.81,136.44Z" transform="translate(0)" fill="#3a5b65"/><path d="M126.07,115.07l-.81-.44Z" transform="translate(0)" fill="#3a5b65"/><path d="M123.78,114.6l-.58.52Z" transform="translate(0)" fill="#3a5b65"/><path d="M371.16,147.07,369,147l1.58-1.18Z" transform="translate(0)" fill="#f1c0c5"/><path d="M372,125l.72.34Z" transform="translate(0)" fill="#f1c0c5"/><path d="M390.3,150.14c1.17-1.61,2.38-3,4.54-1.37Z" transform="translate(0)" fill="#f1c0c5"/><path d="M56.81,205.7l4.59,0c2.82,2.53,6,.89,9.06.8h0l.77.77h0c-.06,5.2-1.17,6.21-6.22,5.44-2.87-.44-4.23,1.14-5,3.53-.25.82,0,1.81-.26,2.61a17.47,17.47,0,0,1-1.64,2.78l-2.73-2.19c-.28-2.58-.55-5.16-.83-7.75Q55.68,208.67,56.81,205.7Z" transform="translate(0)" fill="#e9535f"/><path d="M85.72,217.13l-.12,1.44Z" transform="translate(0)" fill="#ee7a84"/><path d="M96.36,193.53l-2.25-2.4a2.14,2.14,0,0,0-.15-.69c0-.46,0-.92,0-1.38l1.26-1.42Z" transform="translate(0)" fill="#ee7a84"/><path d="M98.66,195.05l-2.33-1.54,3,.7Z" transform="translate(0)" fill="#ee7a84"/><path d="M97.17,186.15l.4.48-.75.49c-.07-.21-.24-.45-.19-.6S97,186.27,97.17,186.15Z" transform="translate(0)" fill="#ee7a84"/><path d="M82.57,200.29l-2.09,0c-.29-.72-.59-1.44-.88-2.17a15.27,15.27,0,0,0-1.71-3.2c-1.33-1.53-2.73-2.24-2.87.83l-2.28.86-4.6,0-1.49,0h0l-.79-.87c-.09-2.06.24-3.49,2.89-3.85,1.47-.21,3-1.62,4.07-2.84a74.2,74.2,0,0,0,4.49-6.17l5.3-.72,2.28,5.29c3.09-.15,2.14,2.16,2.31,3.79v.8h0l-1.54.77h0l-2.21.78-.81,5.36Zm-3.26-8.85c-.08-.21-.12-.54-.27-.61s-.41.14-.63.22c.09.21.12.54.27.61S79.09,191.53,79.31,191.44Z" transform="translate(0)" fill="#e9535f"/><path d="M87.2,192v-.8l1.85-1,.39.53Z" transform="translate(0)" fill="#ee7a84"/><path d="M85.68,192.76l1.54-.77Z" transform="translate(0)" fill="#ee7a84"/><path d="M65.87,195.7l.79.87Z" transform="translate(0)" fill="#ee7a84"/><path d="M94,190.44a2.14,2.14,0,0,1,.15.69c0,.29-.07.58-.11.87C94,191.48,94,191,94,190.44Z" transform="translate(0)" fill="#d05d64"/><path d="M75,195.7c.14-3.07,1.54-2.36,2.87-.83a15.27,15.27,0,0,1,1.71,3.2h-.38l-.38,0h0l-.75-.75h0l-.76-.76h0Z" transform="translate(0)" fill="#e85560"/><path d="M68.14,196.58l4.6,0Z" transform="translate(0)" fill="#e85560"/><path d="M77.31,196.56l.76.76Z" transform="translate(0)" fill="#ee7a84"/><path d="M78.08,197.33l.75.75Z" transform="translate(0)" fill="#ee7a84"/><path d="M82.66,198.89l.81-5.36Z" transform="translate(0)" fill="#e85560"/><path d="M71.22,207.23l-.77-.77Z" transform="translate(0)" fill="#ee7a84"/><ellipse cx="213.6" cy="81.55" rx="137.06" ry="0.54" fill="#f1ecf0"/><path d="M164.13,193.45c0-12.5,0-25,.07-37.48a20.51,20.51,0,0,1,.64-3.59c0,12.63,0,25.27,0,37.9A15.83,15.83,0,0,1,164.13,193.45Z" transform="translate(0)" fill="#d05d64"/><path d="M224.16,160l-13,.94-.09-1.44,14.53-.47Z" transform="translate(0)" fill="#c4c2c4"/><path d="M204.39,168.43l3.58-1.77c-.29,2.28-.82,4.56,2.37,4-.73.33-1.75,1.14-2.12.91A31.89,31.89,0,0,1,204.39,168.43Z" transform="translate(0)" fill="#f6e9eb"/><path d="M212,169.84c-.06-.85-.12-1.7-.21-3l4.88-.74Z" transform="translate(0)" fill="#f6e9eb"/><path d="M181.58,177.49l3.48-4.48,1,1-4.36,3.63Z" transform="translate(0)" fill="#a73036"/><path d="M242.46,182.18l-4.16-4.29,1-.84,3.4,4.84Z" transform="translate(0)" fill="#a73036"/><path d="M247.59,187.65l-3.68-3.9.36-.35c1.24,1.31,2.47,2.62,3.71,3.92Z" transform="translate(0)" fill="#a73036"/><path d="M180.33,179.34l-4,5-.85-.76L180,179Z" transform="translate(0)" fill="#a73036"/><path d="M248,187.32l4.45,2.78-1.72,1.62-3.12-4.07Z" transform="translate(0)" fill="#a73036"/><path d="M181.72,177.62c-.46.57-.93,1.14-1.39,1.72L180,179l1.55-1.48Z" transform="translate(0)" fill="#a73036"/><polygon points="187.41 172.27 187.23 172.26 187.32 172.01 187.41 172.27" fill="#a73036"/><path d="M211.4,170.31a.91.91,0,0,1,.58-.43Z" transform="translate(0)" fill="#f6e9eb"/><path d="M243.17,183l-.71-.82.27-.29.8.73C243.4,182.75,243.28,182.87,243.17,183Z" transform="translate(0)" fill="#a73036"/><path d="M243.91,183.75l-.74-.75c.11-.13.23-.25.36-.38l.74.78Z" transform="translate(0)" fill="#a73036"/><path d="M220.44,151.55l5.34.08,5.65.32c.08,0,.16.12.51.41-14.56,0-28.84,0-43.12,0a11.15,11.15,0,0,1-2.47-.61l2.89-.09h2.28l21.33-.09Z" transform="translate(0)" fill="#a5a6a6"/><path d="M79.31,191.45c-.22.08-.48.28-.63.21s-.18-.4-.27-.61c.22-.08.48-.28.63-.22S79.23,191.23,79.31,191.45Z" transform="translate(0)" fill="#e85560"/></g></g></svg>