<svg xmlns="http://www.w3.org/2000/svg" viewBox="0 0 291.11 211.55"><g id="Layer_2" data-name="Layer 2"><g id="Layer_1-2" data-name="Layer 1"><path d="M154.62,199.14c-14,.92-25.82-4.22-36.91-12.23-7.84-5.67-12.12-13.67-15.42-22.15-3.58-9.21-9.22-15.35-18.91-18.06-16-4.5-22.68-16.11-23.2-30C59.57,100.12,67.23,87,80.93,77.58c.89-.61,2.18-.63,3.29-.93a47.75,47.75,0,0,0,1.11,6.25c3.57,11.31,7.27,22.58,10.92,33.87q-2,4.2-4,8.39l7.24,1.34,1.82,5.88c-1.71,2.57-3.74,5-5,7.79a5.28,5.28,0,0,0,.85,4.79c.88.88,3.13.62,4.74.48a11.3,11.3,0,0,0,3.15-1.3c1.72,5,3.56,10,5.14,15,1.07,3.41,2.89,5.53,6.71,5.3v4.84c1.74-.53,4-.57,5.1-1.7,1.67-1.63,2.57-4,3.79-6.14l1.08-.9,14.76-4.38c.67,1.48.92,3.59,2.06,4.35,6.91,4.58,8,12.15,10.27,19.1l-.78,5Q153.94,191.87,154.62,199.14Z" transform="translate(0 0)" fill="#edf1f5"/><path d="M138.41,89.8c.52-.59,1.06-1.71,1.57-1.7,11.24.38,22.52.51,33.73,1.45,13.26,1.12,22.91,8.88,31.08,18.72,4.4,5.29,7.91,11,8.16,18.24l-2,6c-1.33,2.67-2.67,5.34-4,8l-1,1-2,3-1,1q-1.51,2-3,4l-3,7c-1.63,2.34-3.75,4.49-4.79,7.06-2.42,6-4.31,12.17-6.42,18.27l-3.82-4.26L180,172.13c-3.93-15.41-8.3-30.72-11.62-46.26a34.53,34.53,0,0,0-11-19.46c-4.3-3.86-8.06-8.32-12.36-12.19-1.54-1.38-3.95-1.8-6-2.66C138.86,91,138.64,90.38,138.41,89.8Z" transform="translate(0 0)" fill="#eef2f5"/><path d="M163.09,31.5q23.43,0,46.86,0c8.37,0,9.89,1.62,10,9.79.23,16-1,13.09-13.28,13.18-14.29.11-28.58.16-42.87-.09-2.84,0-7.84-1.17-8.07-2.47-.66-3.72.62-7.79,1.14-11.71l3.83-1.89c-.25,2-.86,3.93-.67,5.84.36,3.7,3,6.19,6.36,5.09,2.46-.8,5.47-3.63,5.92-6,.56-3-1.46-6.17-5.71-5.75-2,.2-3.9.5-5.85.76Zm14.09,8.37c5.68,3.58,29,3.11,33.3,0ZM178.64,45l0,.89h19.59l0-.89Z" transform="translate(0 0)" fill="#f1f6fa"/><path d="M84.87,76.48c1.52-1.08,2.89-2.6,4.58-3.18C100.25,69.58,111.12,66,122,62.5c5.66-1.84,7-1.17,8.78,4.4.82,2.51,1.46,5.07,2.19,7.61l-2.81,1c-1.66-.38-3.53-1.44-5-1-10.79,3.2-21.49,6.69-32.22,10.09l-5.12,1Z" transform="translate(0 0)" fill="#2d2b5d"/><path d="M210.94,161.55c5.91-3.31,11.74-6.78,17.76-9.87a20,20,0,0,1,17.33-1c1.92.81,4.65,3.89,4.28,5.08-.77,2.47-3,5.37-5.31,6.26-3.43,1.32-7.47,1.28-11.26,1.39-6.37.19-12.75,0-19.13,0l-.11,1.39c2.59.55,5.41.62,7.73,1.75a71.69,71.69,0,0,1,12.54,7.54c1.17.9.68,3.93.95,6-2.3.09-5.26,1.13-6.78.08-4.34-3-8-7-12.13-10.27-2.35-1.84-5.23-3-7.86-4.49Z" transform="translate(0 0)" fill="#e6edf8"/><path d="M226.47,25.13A44.27,44.27,0,0,1,231,24c4.6-.64,7.71-3.18,10.31-7,4.46-6.52,11.4-7.87,16.48-3.06s9.86,6.8,16.89,4c6-2.38,11.55.94,16.45,8H226.56Z" transform="translate(0 0)" fill="#f1f6fa"/><path d="M210.94,161.55l-2,3.95-2,1-3,3h-1l-4,2a36.5,36.5,0,0,0-4.29,4,61.39,61.39,0,0,0-3.7,6c-.49-1.69-1.79-3.64-1.34-5,2.19-6.74,4.85-13.33,7.34-20l3-7c3.2.3,3.08-1.87,3-4l1-1,2-3,1-1,5-5,3,0v12.22C213.45,152.83,212.19,157.19,210.94,161.55Z" transform="translate(0 0)" fill="#eef2f6"/><path d="M181.92,177.58l3.82,4.26q1,3,2,6c-9.75,7.59-20.48,12.28-33.14,11.28q-.68-7.27-1.36-14.56c.64.45,1.43,1.39,1.89,1.25C164.1,183.16,173,180.35,181.92,177.58Zm-3,14.35c1.9-2.37,3.84-3.73,3.74-4.91-.14-1.53-1.9-2.91-3-4.36-1.22,1.13-3.3,2.15-3.44,3.39C176.08,187.54,177.58,189.21,178.91,191.93Z" transform="translate(0 0)" fill="#fdc417"/><path d="M110.93,208.48a589.23,589.23,0,0,1,99.14-.06C202.42,212.58,118.48,212.58,110.93,208.48Z" transform="translate(0 0)" fill="#f1f6fa"/><path d="M214.92,135.5l-3,0c-.33-1-.66-2-1-3l2-6c3.48-3.66,7-7.26,10.44-11s7.77-5.77,12.89-4.94c1.88.31,4.65,1.35,5.12,2.71.61,1.78.09,5.19-1.24,6.18-5,3.72-10.46,6.74-15.75,10C221.23,131.5,218.08,133.51,214.92,135.5Z" transform="translate(0 0)" fill="#e5edf8"/><path d="M84.87,76.48l3,9.06,5.12-1c-.59,1.77-2.07,3.82-1.62,5.26q9.3,29.31,19.17,58.45c.46,1.36,2.27,2.26,3.45,3.38l-3.72,2c.23.79.47,1.73.76,2.66,2.16,7.06,2.91,7.38,10.07,5.15a37.9,37.9,0,0,1,5.88-.9l-1.08.9-8.89,3c-3.82.23-5.64-1.89-6.71-5.3-1.58-5-3.42-10-5.14-15q-1.89-5.88-3.77-11.76-.92-2.94-1.82-5.88-1.65-4.86-3.29-9.73C92.6,105.48,88.9,94.21,85.33,82.9a47.75,47.75,0,0,1-1.11-6.25A3.89,3.89,0,0,0,84.87,76.48Z" transform="translate(0 0)" fill="#342f62"/><path d="M74.94,153.47c10,.3,20.11,10.07,17,20.89-1,3.44-3.19,4.24-5.7,1.82a9.14,9.14,0,0,1-2.67-4.57c-.8-4.36-3.36-7-7.12-8.89a8.53,8.53,0,0,1-3.11-2.4c-1-1.37-2.46-3.56-2-4.5C72.09,154.43,74.35,153.82,74.94,153.47Z" transform="translate(0 0)" fill="#eef2f6"/><path d="M160.71,38.33l-3.83,1.89c-4.88.57-9-1.18-9.89-6a11.09,11.09,0,0,1,2.78-8.57c4.76-4.76,11.48-1.58,13.32,5.86l-2.33,6.78Z" transform="translate(0 0)" fill="#5cbdae"/><path d="M26.8,5.47c3.94-.26,7.55.18,9.48,4.78H0C2.21,8.25,4.63,5,7.86,3.44c2.72-1.32,6.39-.69,9.64-.93C19.42,7.2,22.8,7.32,26.8,5.47Z" transform="translate(0 0)" fill="#f1f6fa"/><path d="M194,83.23A7.77,7.77,0,0,1,202,75.52c3.54,0,8.06,4.76,7.89,8.23s-4.71,7.77-8,7.71C198.32,91.4,193.86,86.75,194,83.23Z" transform="translate(0 0)" fill="#f1f6fa"/><path d="M130.14,75.5l2.81-1,5.46,15.29c.23.58.45,1.17.68,1.76q4.59,14.75,9.19,29.5l-1.33.6L143.08,117c-.36-1.59-.62-3.22-1.12-4.77Q136.1,93.87,130.14,75.5Z" transform="translate(0 0)" fill="#363163"/><path d="M61.22,34.54l11.3-5.14c-.45,3,0,7-1.32,7.79C63.79,41.3,63.64,41,61.22,34.54Z" transform="translate(0 0)" fill="#7bb3e2"/><path d="M191,181.51a61.39,61.39,0,0,1,3.7-6,36.5,36.5,0,0,1,4.29-4l4-2h2l-15,16C190.28,184.19,190.62,182.85,191,181.51Z" transform="translate(0 0)" fill="#edf1f6"/><path d="M191,181.51c-.33,1.34-.67,2.68-1,4l-2.19,2.34q-1-3-2-6c2.11-6.1,4-12.29,6.42-18.27,1-2.57,3.16-4.72,4.79-7.06-2.49,6.64-5.15,13.23-7.34,20C189.16,177.87,190.46,179.82,191,181.51Z" transform="translate(0 0)" fill="#e6edf8"/><path d="M26.8,5.47c-4,1.85-7.38,1.73-9.3-3,1.77-.89,4.18-3,5.18-2.42C24.5,1.06,25.47,3.59,26.8,5.47Z" transform="translate(0 0)" fill="#ffe3a3"/><path d="M205,169.51h-1l3-3Z" transform="translate(0 0)" fill="#e6edf8"/><path d="M143.08,117l3.87,4.62,1.33-.6q-4.59-14.76-9.19-29.5c2,.86,4.43,1.28,6,2.66,4.3,3.87,8.06,8.33,12.36,12.19a34.53,34.53,0,0,1,11,19.46c3.32,15.54,7.69,30.85,11.62,46.26l-26,7.47c-2.31-6.95-3.36-14.52-10.27-19.1-1.14-.76-1.39-2.87-2.06-4.35l3.24-1.74-6.86-10.88c-.7-2.52-2-5.06-2-7.57.14-7.55-3-13.67-7.3-19.45-2.62-4.56-5.62-9-7.65-13.75-.76-1.79.74-4.54,1.21-6.85,2.1.9,4.24,1.72,6.29,2.73a12.25,12.25,0,0,1,2.26,1.91Z" transform="translate(0 0)" fill="#facfaf"/><path d="M138.09,143.53,145,154.41l-3.24,1.74L127,160.53a37.9,37.9,0,0,0-5.88.9c-7.16,2.23-7.91,1.91-10.07-5.15-.29-.93-.53-1.87-.76-2.66l3.72-2Zm-10,8.55c2.51,1.65,4,3.36,5.08,3.15,1.34-.24,2.39-2.11,3.56-3.28-1.21-1.12-2.31-2.95-3.66-3.16C132,148.62,130.6,150.36,128.14,152.08Z" transform="translate(0 0)" fill="#2d2a5c"/><path d="M154,179.6l26-7.47,1.89,5.45c-8.92,2.77-17.82,5.58-26.77,8.25-.46.14-1.25-.8-1.89-1.25Z" transform="translate(0 0)" fill="#f9b21e"/><path d="M101.36,132.38q1.88,5.88,3.77,11.76a11.3,11.3,0,0,1-3.15,1.3c-1.61.14-3.86.4-4.74-.48a5.28,5.28,0,0,1-.85-4.79C97.62,137.39,99.65,135,101.36,132.38Z" transform="translate(0 0)" fill="#f6ccaf"/><path d="M96.25,116.77q1.65,4.86,3.29,9.73l-7.24-1.34Q94.28,121,96.25,116.77Z" transform="translate(0 0)" fill="#f7cdaf"/><path d="M117,164.43l8.89-3c-1.22,2.09-2.12,4.51-3.79,6.14-1.15,1.13-3.36,1.17-5.1,1.7Z" transform="translate(0 0)" fill="#f5ccaf"/><path d="M210.94,132.51c.34,1,.67,2,1,3l-5,5C208.27,137.85,209.61,135.18,210.94,132.51Z" transform="translate(0 0)" fill="#e6edf8"/><path d="M203,145.51c.07,2.14.19,4.31-3,4Q201.44,147.51,203,145.51Z" transform="translate(0 0)" fill="#e6edf8"/><path d="M206,141.51l-2,3Z" transform="translate(0 0)" fill="#e6edf8"/><path d="M203,169.51l-4,2Z" transform="translate(0 0)" fill="#e6edf8"/><path d="M178.91,191.93c-1.33-2.72-2.83-4.39-2.67-5.88.14-1.24,2.22-2.26,3.44-3.39,1.07,1.45,2.83,2.83,3,4.36C182.75,188.2,180.81,189.56,178.91,191.93Z" transform="translate(0 0)" fill="#f9b116"/><path d="M128.81,116.51c-1.45-.26-3.15-.11-4.3-.84-5-3.08-9.91-6.2-14.52-9.75a8.92,8.92,0,0,1-1.85-11.75c3.2-5.35,9.64-7.86,14.89-6.12,6.15,2,7.37,7,7.89,12.5a12.25,12.25,0,0,0-2.26-1.91c-2-1-4.19-1.83-6.29-2.73-.47,2.31-2,5.06-1.21,6.85C123.19,107.56,126.19,112,128.81,116.51Z" transform="translate(0 0)" fill="#f1f6f9"/><path d="M128.14,152.08c2.46-1.72,3.87-3.46,5-3.29,1.35.21,2.45,2,3.66,3.16-1.17,1.17-2.22,3-3.56,3.28C132.11,155.44,130.65,153.73,128.14,152.08Z" transform="translate(0 0)" fill="#6864aa"/></g></g></svg>